<svg xmlns="http://www.w3.org/2000/svg" viewBox="-497 -500.5 994 1001" width="994" height="1001" style="background-color: rgb(255, 255, 255);"><path d="M0.406022162104847,-2.0918230317155473L0.48249693829661805,0.6311362060393315L-2.728197679145392,0.16066167585789115zM-0.5203792241402515,-0.49958451459532005L2.776741060291372,-0.2428505450345758L-0.41668325740719125,2.04246020944822zM130.43270730687408,-2.0945365621836687L130.3853172093116,0.6432064173208433L127.36286622206812,0.15130499504450093zM129.39134761688243,-0.49825139848876254L132.86515478471557,-0.2364610896266007L129.60374549414368,2.034737637933687zM0.41519478624052564,-132.0811346551801L0.4712939421399974,-129.26614822293223L-2.72616730712445,-129.97331158870378zM-0.5228507563218352,-130.39140794074024L2.7650498023479635,-130.38607103426935L-0.4025204672821991,-127.94306519216985zM-91.52964678768461,-94.00542907073944L-91.38072102949079,-91.22939331705582L-94.71558546960286,-91.85147747005739zM-92.38342516004131,-92.34564277523765L-89.21823235413784,-92.27500713146273L-92.34493861511125,-89.86559965151562zM-129.6205765208787,-2.087503429380612L-129.4211106518853,0.6193701193654744L-132.81856072297768,0.16810816019681302zM-130.4322658048477,-0.49999925778467047L-127.31196613187642,-0.2495375038698713L-130.43665880152972,2.0495619114728654zM0.3966076478955636,127.89802209285587L0.49127751603971676,130.52611335619315L-2.727563742679208,130.29640871813044zM-0.514096612854816,129.39226010983992L2.7846234062497377,129.9012869410271L-0.43084821465099254,132.02704741594908zM-0.5240747722418091,-1.799032427141519L2.5184353809365017,-1.5657494374919803L-0.4005499118793077,0.763415767081996zM129.50390591807957,-1.799641919317097L132.66280983415143,-1.5484216596247422L129.49683783796786,0.7466974813903362zM-0.527748976837788,-131.76012635425107L2.4943958982933117,-131.77387475205757L-0.37283622464013894,-129.13710788462637zM-92.47059369484315,-93.69223116596291L-89.52706550653498,-93.65298632724124L-92.2295757899182,-91.07719429245905zM-130.55199743495768,-1.797120952698685L-127.62831330434155,-1.585123753260079L-130.29562145726888,0.7808786084072612zM-0.515788546560461,128.1620675716431L2.5381996844255563,128.64756880574868L-0.4286004410497104,130.6587404184402zM0.3908725845303389,-0.8117990100410416L0.47718725119533417,1.9493313027278458L-2.461870532541056,1.4638338048646986zM130.27956207820836,-0.832167012305644L130.50334902669383,1.9579096847943855L127.69302109166591,1.4756234250627611zM0.41191872844550215,-130.71654038121673L0.4649651182948918,-128.0186247450166L-2.4706945435557772,-128.73321166959863zM-91.44162398347237,-92.65452020428627L-91.47404939789779,-89.95891120377446L-94.49918300355694,-90.60624818249948zM-129.50096781652135,-0.7917994693869674L-129.54935893659209,1.9399670112067504L-132.61322683708542,1.4531985557317197zM0.37012776601957054,129.0969645107605L0.4872423126622089,131.9147701676275L-2.451180775497163,131.65937431254702zM1.8836889685257523,-2.1144225743967655L2.4170881391288415,0.6145058532505252L-0.8672878320952813,0.19857577341306126zM132.05104176531626,-2.098560104566645L132.48560146991656,0.6107365408997786L129.04899515175074,0.18648261593368748zM1.8657962463302087,-132.27273415343544L2.4216404712929065,-129.50620002025073L-0.8539474420638027,-129.67455588547128zM-90.17341821192183,-94.16221977524062L-89.55199600775688,-91.39274514418108L-92.72041220649386,-91.62569173004334zM-128.28644042262223,-2.1313273428797035L-127.65211469469955,0.6184692007737208L-130.78010471854316,0.21151719437280375zM1.9019069653571217,128.04812973434457L2.410571172874565,130.73302710422053L-0.8789888626723742,130.069651325126zM-2.4401876365451494,-0.489793762005919L0.9246623995653225,-0.26393530721641406L-1.9179640385794847,2.0550700169555114zM127.62777154171904,-0.48600397406079593L130.84514694292426,-0.2832663647457944L128.24574135122165,2.070611286539769zM-2.434261278288981,-130.61668406526996L0.9443890794640684,-130.11786550570565L-1.943617076734399,-128.11625859271547zM-94.40852617004776,-92.50409331430812L-90.93130207516684,-92.07496131545417L-93.97297673207659,-89.9989201242364zM-132.5079683284054,-0.4930011860021615L-128.9981947047897,-0.246644718136468L-132.07947535378844,2.040986851871808zM-2.4420584825354377,129.6369918976049L0.9006628598599324,129.5951784361684L-1.8920936528838064,132.22131972538415zM-2.0349929189240954,-1.798282168518055L0.9370950401390422,-1.5424039990815737L-2.3355913967742583,0.7393200700481255zM128.11310641048178,-1.79645981637151L130.93583441893966,-1.5490478820866598L127.73910957033196,0.7441416009066667zM-2.0324312636558868,-131.97341468834122L0.9449407623487249,-131.4856869642978L-2.3459987742521498,-129.36380412022518zM-94.06233232388553,-93.84554775435345L-90.9803978142187,-93.42366450078806L-94.31914139264639,-91.2605360976013zM-132.18346075007105,-1.7997427548166296L-129.0619370400853,-1.5360510972855415L-132.40963116071566,0.734427754550668zM-2.03322262846852,128.37697096475918L0.9254359463547328,128.4017867743057L-2.325702593445524,130.8414158386963zM2.3461051242141124,-0.7722593787668792L1.9760539418359016,1.9485663791784793L-0.8886697904907015,1.4250590971399029zM132.41534136207582,-0.7717518844728372L132.1320565607982,1.9395328205372295L129.107631027998,1.4335851614871105zM2.3408189690082595,-130.86904224610737L1.9835951704926094,-128.22514004878977L-0.8909248639415563,-128.52599128286403zM-89.63058018796936,-92.76459122129926L-90.05219012047367,-90.09233312912079L-92.81212267118897,-90.47009180721979zM-127.7235080449121,-0.7721043183230625L-128.18065765870875,1.959044600692187L-130.88388469613253,1.414425815182378zM2.3513681928810763,129.3250492869075L1.9660073313771158,132.1191472180661L-0.8838862486988797,131.3787092678906zM-0.5193136837887562,0.7999855305485003L2.5488697252348285,1.094579588094917L-0.43574534463068787,2.9618007994444273zM129.4029784538529,0.8096521393082086L132.68070879028568,1.0896570362299078L129.8392138998034,2.957056742549728zM-0.520897004314651,-129.16125381535716L2.548554078032909,-129.0776786297305L-0.4338463769028729,-127.23379208395106zM-92.37829578402646,-91.09299927486006L-89.46849934749417,-90.94995373345262L-92.5638263304603,-89.10511323239584zM-130.43949402799905,0.8035631063613862L-127.58312014187605,1.0993105255023448L-130.71266558043615,2.953492286224113zM-0.5142615887760154,130.7612518388921L2.545655118214816,131.26657879114777L-0.4375828326234163,133.1576257351746zM0.42313341167550866,-3.021379466763009L0.4769622758156639,-0.6500018601305458L-2.493906384306556,-1.1849845911942893zM130.72364326975537,-2.9943325448903915L130.37536974367154,-0.6401441941122249L127.63626673688432,-1.221889179085228zM0.4202011472878176,-133.21845623947718L0.46470225699623496,-130.61801170583203L-2.478714101099436,-131.34898841990525zM-91.70724043454801,-95.09167332858851L-91.39080525877421,-92.569430520749L-94.50019716228948,-93.19969422754667zM-129.87733867896299,-3.027693298964224L-129.42222556713892,-0.6794192085486889L-132.6233368978401,-1.1492534105749317zM0.42566914597586536,127.17516650167043L0.4870658112832674,129.31548342537315L-2.5065456540745163,128.98207460199512zM0.9658085163829077,-3.0384206948118635L2.3704189649981227,-0.7867554536854198L-0.8212784831187053,-1.0325088524416606zM-2.3555204101263487,0.8757162483913226L0.9147705489378344,1.0203897841737597L-1.0741991370738102,2.961578968373862zM131.3163112717509,-3.0260031545330124L132.461658556391,-0.7581455677379827L129.14222690089252,-1.073536278667949zM127.74703775153787,0.8968158540629337L130.88757367560646,0.980620861031053L129.25568730536543,2.9802482858449575zM0.9543182243601703,-133.35347313499844L2.350388369161672,-130.9321631611099L-0.789757595259517,-130.9772964356027zM-2.370450829222927,-129.28887560282365L0.9530093967314556,-128.86978752556382L-1.097507565770853,-127.38889960144564zM-91.21950993125323,-95.19570185890427L-89.63706107571159,-92.8315986901525L-92.68676350193591,-92.88866795904522zM-94.35875986496231,-91.17929496723917L-90.97229335124226,-90.80771015040705L-93.2421792892208,-89.21359338857792zM-129.39322936517115,-3.0544134597536114L-127.72850360226695,-0.8152277227974889L-130.76856576507166,-0.9880438183878437zM-132.45228323832995,0.854893585522216L-129.0675694658476,1.053027252582054L-131.40034402485685,2.9497641628346742zM0.9812130141198705,127.29732301517868L2.393475930184148,129.3499791776403L-0.8597399460416935,128.90026053701413zM-2.3422023828741136,131.0440426769453L0.8716804143779731,130.928482454721L-1.044427029766184,133.29040760004474zM-0.5344801878854458,-2.753093478711375L1.8358674795192171,-2.536318427951065L-0.38024899018683,-0.5219319670796665zM0.3725309261357005,0.4665274600624915L0.43969974647977755,2.9930421128829314L-1.733368974062418,2.351774300796684zM129.74418513719493,-2.751657397184349L132.1246876004172,-2.5036514770602825L129.5158904900351,-0.5560349994974749zM130.22274083092918,0.4235973398863669L130.73382913215931,2.9756830823755203L128.58591666166484,2.4120634514802197zM-0.5415718337584552,-132.90368685861174L1.7927380808194713,-132.89942810702527L-0.3300279456140748,-130.47185383430542zM0.41194045733185825,-129.48587421145592L0.42417978227050157,-127.17276481475733L-1.7572585410492998,-127.99364202624487zM-92.65406485462509,-94.77414781038993L-90.33209038493646,-94.74719854404405L-92.19226888968218,-92.38955994999883zM-91.41980941085212,-91.38229948087191L-91.71402450429314,-89.05102688641956L-93.88686681699235,-89.85489218965714zM-130.80893802034566,-2.7404663323880922L-128.46249267714427,-2.5761192228473L-130.2710559272634,-0.4947583185067145zM-129.4954718241064,0.522736604090753L-129.85072429792808,2.9841787822942694L-132.03856710561274,2.304428487357084zM-0.5199022312488183,127.39745016745844L1.8741392359770157,127.84471664290878L-0.43309870328125605,129.41011424209088zM0.33624207978610376,130.43248727976834L0.45446974191047185,133.1559387325249L-1.7118501231435157,132.6865427876492zM-1.183610898679178,-2.6970132914335863L0.9550835231397423,-2.4614033941665436L-2.286421622722889,-0.6542429860568311zM2.3335755787472507,0.6784475490527396L1.0528784771094477,2.9368894454158285L-0.8715050575943737,2.1973226771883927zM129.12291597726042,-2.674403878885979L131.1496673009372,-2.456640947497517L127.80767244416684,-0.6816148452734652zM132.41803160465005,0.6370964398286563L131.37660791053074,2.9431465018200957L129.31551420370832,2.232416730008209zM-1.2074161857355314,-133.01970626676587L0.9518429092037859,-132.6159130907108L-2.2593757217305788,-130.7722450348071zM2.3673063153517693,-129.42343280037852L1.0484313358788655,-127.39633058571488L-0.90078865296831,-127.96278166287635zM-93.34417228349197,-94.86090950066124L-91.10849885551667,-94.49987192875858L-94.25488128364191,-92.64448166662538zM-89.63238424206095,-91.28744971578223L-91.09695610174614,-89.2274242777075L-92.94831408231882,-89.86506975924158zM-131.49596979170278,-2.717893965990517L-129.2396508445697,-2.4663526396136985L-132.37453308261664,-0.6284130660527455zM-127.75938713457734,0.719181464000618L-129.267147722456,2.9339757737495007L-131.05372086533112,2.1595024339068427zM-1.1496917253491301,127.63184464550095L0.954783249670696,127.69283898132258L-2.3200405225838905,129.45786142214624zM2.3031350113520377,130.78526719245767L1.055822807618762,133.2538878479251L-0.8440088207084748,132.36870935190097zM0.9642816444343665,-1.781876116376802L3.0472799048210986,-1.7158054530018725L1.6814375463804543,0.891812052589935zM-1.1458162059837005,-2.144578709334477L-1.5279276017649681,0.7851078377996337L-3.368802605921765,0.05812992380166426zM1.3780321856141278,-0.4985268306120006L3.4883688193111566,-0.32576471341322827L1.1761454087451488,2.1256324917584073zM-1.7124741753388633,-0.9402925086014804L-1.0805221071779512,2.063222938495412L-2.900002813119105,1.4829390868948074zM131.12573549875634,-1.7891708288401194L133.56340594369436,-1.6621976288586315L131.67573926228746,0.8454989409100113zM128.95884971169028,-2.18283228788764L128.3908457280519,0.9170248100570614L127.27963975568966,-0.035533469902600645zM131.45737027802986,-0.4989251294610229L133.96969293816025,-0.28934192789945956L131.2873648065826,2.0896080050936607zM128.2323900377503,-0.9779864509496845L128.9941408381537,2.152483987534081L127.75235163756233,1.4313719802043425zM0.9970228534985707,-131.69575291943175L2.9186810538512087,-132.42928090247653L1.7772951882861399,-129.1527173039827zM-1.1071152678593248,-132.2311290618914L-1.6191326558103767,-129.20078890139388L-3.3162984900007313,-130.54130459355014zM1.4259320531148714,-130.36781444119254L3.372175183491925,-131.05925082164063L1.2444391770636365,-127.94347539853588zM-1.6704318168019345,-130.99918863688941L-1.1540139487447365,-127.9787582996931L-2.8685533300892483,-129.08806515573096zM-91.03709185181482,-93.56047359455377L-89.38154369102573,-94.25298129029643L-90.135187550491,-91.03923682090598zM-93.1318584661066,-94.11037357592326L-93.50979680793375,-91.17954324535485L-95.64771332859755,-92.25824631542253zM-90.54712906259132,-92.25466763000698L-88.90197698163321,-92.88045508299518L-90.7551697310725,-89.81035852823214zM-93.59205332901395,-92.86643662030396L-93.12746653962706,-89.92806619535803L-95.22030141596237,-90.84644985651677zM-129.20200115400084,-1.769866313209087L-127.49914381844998,-1.769856261499953L-128.27773754101554,0.9338530579203003zM-131.27242039057734,-2.119792739712495L-131.54599271054082,0.7053051107921253L-133.89601492165454,0.11314668118719079zM-128.70540200237198,-0.4984099653420176L-127.00538922622339,-0.3680710964933182L-128.91854396683647,2.167822009568514zM-131.70336591920366,-0.8973817449639468L-131.19958607421495,2.0060811178826703L-133.46192871131956,1.497170143870016zM1.055746034080563,128.12607560923348L3.096281787928796,129.04344750653394L1.5409712736265608,130.89648897654607zM-1.186708703815521,127.95042992554487L-1.4441227696614838,130.66522772893833L-3.4117149401934284,130.75488300688585zM1.4541814504590287,129.3735286018226L3.503196325593005,130.43685720006803L1.0851686376183995,132.16283675494478zM-1.7442727531698243,129.12847837392198L-1.0164548312092279,132.03712908552524L-2.932271511256867,132.11214366644379zM-0.18689780862384808,-2.8905008538024286L-1.5438150766693854,-0.5240526265784864L-3.043745933045699,-1.4476349397952653zM1.3244329526050256,0.8553072697913418L3.2037590309673205,1.0774939946479725L0.246266834766586,2.9293871557368663zM-1.9484709983435449,0.39704143781553525L-0.20524470133902672,2.923644092406239L-1.6657618676353136,2.4964841409754532zM130.10774777612738,-2.8802752395197606L128.248830947054,-0.42046167926299227L127.72455212304136,-1.5614515013934276zM131.42140290190179,0.8386787329004244L133.66491753867246,1.0935492484220524L130.54372804232634,2.929960438853704zM127.99291595650533,0.4727635381833472L130.07497336944124,2.9317993206519617L128.96822277129718,2.4126068123619193zM-0.19576816721983276,-133.13989734284365L-1.619166916082128,-130.56990189515187L-2.9595237350369716,-132.00797884674233zM1.4241127738286927,-129.03139291547862L3.1105037919926466,-129.66358764904575L0.23984225251759295,-127.29842067986104zM-2.0572679160258245,-129.69748535651775L-0.21569109300631573,-127.31082545888967L-1.546518558285745,-128.03010917795697zM-92.33604865269673,-95.00888637821141L-93.50441442781562,-92.52399189650227L-95.31071917876578,-93.70603358640169zM-90.5698615133408,-90.89103411553411L-89.14593945429172,-91.47487170465527L-91.88646365496776,-89.14862920057368zM-93.85102620355816,-91.6308256825608L-92.34354263806148,-89.16016013106567L-94.00163216663745,-89.76856795611555zM-130.49980422396249,-2.920868456552399L-131.54344723428892,-0.6104681155893068L-133.58679702464917,-1.3308518480344746zM-128.77880081411251,0.8705594196846491L-127.25947384711463,1.0606607167217341L-130.0428561849956,2.930968283769797zM-131.87789288177726,0.3749419910435961L-130.50285177844995,2.9266909176235827L-132.29432257165234,2.5155367625300493zM-0.18743636817136983,127.34930482320367L-1.420900803398493,129.31928414517236L-3.16612164676907,129.3248122760094zM1.360678738919141,130.76728645279945L3.1875547077155124,131.82814285937158L0.2262253717042789,133.12234877256682zM-1.8835055706305734,130.510724684682L-0.18929500287391832,133.1232503575274L-1.7466769938133935,133.03878429354947zM0.12361292385749956,-2.6539888398558307L1.9114521221696843,-2.7521009034943096L1.7844125212907016,-0.4110799278470876zM130.4411200998062,-2.68729273883734L132.49866634122006,-2.7002488058037457L131.7352807908533,-0.42962812655614196zM0.1639904818569337,-132.69927554169337L1.806855848599017,-133.4291284163891L1.8486312368619346,-130.54435537767642zM-91.97721955688777,-94.50152772202135L-90.52282943997342,-95.23618709176095L-90.05719687676013,-92.45617829835413zM-130.19062028338385,-2.611930086000248L-128.70399483896796,-2.7644187131227373L-128.14149697489194,-0.4408208720742428zM0.2023648688050781,127.37585231615193L1.93522313856078,127.93981795621391L1.6818895599520274,129.72274972099854zM-0.43607743680384253,-3.286910825241067L1.8840351380971674,-2.0140953326682114L-0.526819399846384,-1.8193697041256252zM0.45576191909842145,-3.314680758105818L0.439172068835149,-1.5159853984713627L-1.8160722893805108,-2.2897097054577227zM-0.5154315758006981,1.7545220204172616L1.9064700418342748,2.136815925465859L-0.46990016458663575,3.2290379161517833zM-1.8436290391442673,1.9896379324938807L0.907778086521744,1.9649455796451492L0.01471265117558257,3.1657923498958738zM130.26288737478106,-3.251394602402729L132.1353672757537,-1.9671667761042304L129.43685051090202,-1.9018144835279442zM131.23365290305364,-3.1351434983966775L130.29885003712457,-1.5557076752070427L128.4603256183647,-2.429524688431184zM129.44535901028323,1.8196736409448262L132.17066794287214,2.120096366698217L130.21907820828142,3.1806058543918603zM128.41462636201493,2.006849163580149L130.97229002802192,1.8398485048704025L130.60591216850605,3.2736781935843524zM-0.39224649842814846,-133.81214486223152L1.8490033114808293,-132.20925209348204L-0.5356185116057399,-132.0129457663112zM0.4337122896531395,-133.81070130348428L0.42363394345109945,-131.68189178824716L-1.7784845345511795,-132.5417496302933zM-0.5129963627861555,-128.39677146475765L1.9141632247317797,-128.12563492387915L-0.4800285604986831,-127.2711846093181zM-1.900459186471673,-128.18945766767766L0.9955348995352707,-127.95004287916953L-0.016214014510538444,-127.65409045110773zM-92.79925082605143,-95.55165198163144L-90.2417140920092,-94.10375201351759L-92.45589914495926,-93.88297423135273zM-91.9941715581704,-95.6098417164292L-91.44472265154339,-93.63123237507261L-93.9002464562,-94.29730413499995zM-92.2441577541593,-90.16312845964846L-90.20014927473798,-89.96820168459946L-93.05255703412261,-89.16629635818403zM-93.99204451271743,-90.08556006842366L-91.07133921340703,-89.88054124936491L-92.27575693978932,-89.33152518464338zM-131.16468300548823,-3.202134885005655L-128.37437954095992,-2.047659711178842L-130.45376601209475,-1.8705812658504066zM-130.3319121236068,-3.287467877855713L-129.41899227358005,-1.7030998748292034L-132.08420076424994,-2.1298081093499874zM-130.45537793389545,1.8140087316531548L-128.35909430760177,2.1500233832589597L-131.17835631704568,3.156343747122789zM-132.0957510649818,1.965125139689992L-129.23935464328378,2.0429581301689312L-130.4999994531712,3.1122925921759803zM-0.47278082002314004,127.25419049504886L1.9096090168049147,128.16021747188898L-0.5156898953348338,128.37918303101708zM0.47427936580059177,127.18550207313751L0.4539757458604366,128.64701269596392L-1.8493934131079688,127.96107622885347zM-0.5141478158623448,131.90582108097985L1.8914866793635825,132.40219336228466L-0.45620056205429665,133.72632827876023zM-1.809871194022895,132.25458246550815L0.8005575136186736,132.00731609697783L0.08817537895728078,133.77244415953876zM2.3432526855355884,-2.2397812930610526L3.178906559745096,0.7196328944403776L1.1860862916509722,0.21561982956511422zM-3.264763608471545,-0.4751373433944111L-1.051548691724551,-0.408633293071185L-2.391933236735561,2.1882992055211563zM132.8695198838248,-2.197227393702205L133.65852105109857,0.6610898838745337L131.1708483504736,0.23160894077211017zM127.16990630267651,-0.4687857173680511L128.9400594123197,-0.460486210490994L128.17243249653748,2.233800496914605zM2.306033400291141,-132.70837646910283L3.2344215223740727,-129.90642442782465L1.1677906142664431,-129.68037142059342zM-3.170306481787051,-131.1562844796014L-1.0034361065158488,-130.18802758938003L-2.5345029486287567,-128.34180311042832zM-89.9851450251246,-94.51472498887084L-89.03356803929083,-91.59646868083152L-90.74526252769898,-91.66555602839927zM-95.4612927372853,-92.85117848353899L-92.94681447654204,-92.1717604456212L-94.77235945215038,-90.14475363083034zM-128.22401132920177,-2.277643298838652L-127.3445514336661,0.8194403798506904L-128.7138354486658,0.1536743499324003zM-133.70563830763442,-0.47889891845250293L-131.0733426894375,-0.35583200522024877L-132.91990828832505,2.139259492728312zM2.3896900552084333,128.23803571368097L3.1015609114539204,131.27957054047903L1.216994570269303,130.16850892524974zM-3.2390403657303906,130.20167884753278L-1.1791874880704023,129.4151785595854L-2.2900176831308636,132.67831491040272zM0.877809294619382,-3.107680995875273L3.085906835826862,-0.7884362411321671L1.1941329555013078,-0.9692620998579071zM-2.6899920213016775,-1.8020672289923605L-0.7142090530424353,-1.624366882521888L-3.0581765806589996,0.8205645947255089zM3.099875272710255,-0.8284825280210827L2.5005463331377906,2.123303562569176L0.8619560491550669,1.3110484822406456zM-3.1010600712980354,0.9417659026053922L-0.9866822246581936,0.8105593744202217L-1.070106789991323,3.113054059839733zM131.47057823188143,-3.1085885288729713L133.5496150476022,-0.8243180266119673L131.17747313131497,-0.9324727813804088zM127.74927120742365,-1.805987676195274L129.37932418614284,-1.664224357688178L127.44884427628148,0.8643425170947125zM133.57988512489413,-0.7976407941257438L133.0176172910279,2.034621332689048L130.90469256393212,1.368888978225435zM127.33231515739494,0.9632341869545178L128.98449357790042,0.7998674791674263L129.56515950360813,3.102277670743403zM0.9068517966910041,-133.56397235411112L3.1128230303901607,-131.38833911031014L1.1381742588663875,-130.95288519729513zM-2.613739667021742,-132.46579810104623L-0.700438578141042,-131.44911283586066L-3.1481994098403288,-129.7307759047329zM3.05780723131753,-131.32055847656832L2.607391487706546,-128.51639471504632L0.7971789359790364,-128.59699461644763zM-3.011490396110291,-129.76237756945164L-0.963498829591254,-129.08562824397757L-1.1828598602460068,-127.32643217455643zM-91.4173800272007,-95.34151595836774L-89.1371494337041,-93.11735399874586L-90.7946135622711,-92.9135014888752zM-94.8987086472151,-94.1648674138428L-92.69043428541157,-93.43737222057622L-95.3802268314999,-91.51062199149315zM-89.20028034077782,-93.12299855777087L-89.73093703745322,-90.13532942008068L-91.1133970758893,-90.6427946144832zM-95.29565497199854,-91.45533393051758L-92.8438355252368,-91.00822659423996L-93.52535069783566,-89.1780522475006zM-129.7155955420186,-3.065089373204802L-127.39261381059472,-0.7273068005926251L-128.77375888629018,-1.07298316306792zM-133.13269133224162,-1.7997584928788632L-130.81996533305187,-1.5888246227130007L-133.54953831456066,0.7827135988031244zM-127.40792552757655,-0.8780294666614576L-128.118545902526,2.243886935792491L-129.0509682397454,1.2400120476577057zM-133.54103503124162,0.9293487239597678L-130.9863935633734,0.861921431680807L-131.67023781618357,3.074109181224773zM0.8016521415467858,127.36261464266985L3.03104136644867,129.77628264091572L1.3251555779520963,129.03554070440006zM-2.6410972044129983,128.86746437703135L-0.8297066515736442,128.22810549226443L-2.99157379901647,131.33837793876648zM3.140760592607682,129.67298011980526L2.407336298734267,132.65645251167393L0.9142807636611638,131.3162542101606zM-3.078828492185081,131.63789373453852L-1.090190370881004,130.72061754972796L-0.9888302228814674,133.5466853774499zM-0.9387607284913486,-2.944010690376858L2.282268133521027,-2.05801654239063L0.8821594654728231,-2.1228586288076823zM0.9663761453006863,-2.811493865648889L-1.5966665342119999,-1.6231017493058668L-1.5953764815911875,-2.6902902466204144zM-1.5027425533876162,-2.6623384685985925L0.023272782028816663,-2.481250151680863L-3.005706919220309,-0.6767686722401538zM3.0663478632939305,0.7399466882163133L0.9926479747230423,3.1113235623453983L0.4261808525621359,1.9690870419578979zM0.8693917415657355,2.030607656308875L2.2955968238658633,2.169676647687565L-0.9393216949290972,2.9246015575787303zM-2.282643802576999,2.117420432943744L-0.8026087805767328,1.9289030800252283L0.8595857126512301,3.078562348606198zM129.5381366281358,-2.9906234670096588L132.73678140101785,-2.0704583546470645L131.1251006452736,-2.063804039918447zM131.42028533997987,-2.8550276190910946L128.43489300251036,-1.8600361265973098L129.09350659093195,-2.409822115886766zM128.9443843737232,-2.6704967152989614L130.28171040878522,-2.4960998666416145L127.46308033083716,-0.653760710579034zM133.52840381668892,0.76094485492814L131.66109874205165,3.0418001544444437L130.47002593576326,2.017612283147026zM131.11510164004198,1.9906391538241182L132.74839817206637,2.1679720903766904L129.53651886231887,2.9662746173743617zM128.16537189273558,2.1383365050724774L129.41789959885878,1.992371814385706L131.36541344182783,2.9941775421169865zM-0.8785435426116244,-133.49713027129934L2.28637440677534,-132.61636422534045L0.8178360063387857,-132.18574316886009zM0.9310032635431718,-133.34470381068041L-1.4080616341771166,-131.7761729150549L-1.7486084998685565,-133.17836093976456zM-1.4550920425224119,-133.33297801773315L0.006104815662294649,-132.4519041330706L-3.036189463718992,-131.2098269456406zM3.049139321854444,-129.74650194661112L1.0361855210572826,-127.34711091222626L0.39985184766738213,-128.26038165256767zM0.9657994162674638,-127.85538974085739L2.232797106825343,-128.5594568680241L-0.9729296525903052,-127.63461933346804zM-2.24408517702493,-128.51826119435077L-0.9667259487976998,-127.7510809577748L0.9851442553201282,-127.78012379022395zM-93.15683707967861,-95.23817526894402L-89.95664643048814,-94.3769817246926L-91.26297200034857,-94.11185124895638zM-91.31851170133618,-95.14686380275977L-93.35398597646282,-93.62131746436162L-94.15529157372131,-94.95882697547161zM-93.73144148433386,-95.02851125255121L-92.08007753817793,-94.41227869953002L-95.27578004908513,-92.98168972145619zM-89.22531191766595,-91.58532412976685L-91.49584674565668,-89.17399370330862L-91.39578702711607,-90.02244725542276zM-91.14456983466259,-89.70372931605056L-90.01761191807678,-90.36464966527376L-93.21427375777594,-89.40885753811834zM-94.51580496651478,-90.23844870544076L-93.02371465929086,-89.89635588398646L-91.28826962571468,-89.34243193001544zM-131.40676113973942,-2.9064458761224956L-128.1737143079394,-2.039126041884208L-129.36820948574336,-2.1793139435684665zM-129.5028333386348,-2.8560412027724333L-131.40580717329394,-1.5990849650139451L-132.4913781624985,-2.6697596937887917zM-131.95093466984872,-2.6574040558380188L-130.2371254642083,-2.4658883607486244L-133.4714683604468,-0.6970648759329667zM-127.4199241774263,0.67948458977168L-129.70047346978185,3.0719340834157287L-129.56877746613745,2.068938619332201zM-129.38540994922346,2.0571605929348236L-128.15711786854945,2.1745337448531603L-131.40615711564928,2.8931915237871864zM-132.72685474514572,2.090291726012643L-130.96703599913317,1.837421377931409L-129.70612793014834,3.197172757631118zM-0.9782369598542331,127.64581020914746L2.258184173845025,128.49142602414315L0.9457196565117094,127.9122297090589zM0.932078975145753,127.51678774941256L-1.795888794171832,127.78076446710214L-1.3618570514764223,128.75191372583484zM-1.4294610295583756,128.02876689521239L-0.06972169570458131,127.49787191198712L-2.985993965316152,129.82735570420556zM3.0832563585900234,131.2337808801023L0.9785104301912694,133.56516426626123L0.42340990179781596,132.19576395008082zM0.859033910925199,131.9888857261138L2.2523612372305046,132.8950083448411L-0.885728277653202,133.41534359454496zM-2.235883844731728,132.7995724731961L-0.7365714230427741,131.88113378579038L0.7467883972720004,133.6185314065134z" style="fill:rgb(255,0,0);fill-opacity:1"/><path d="M130.4528598214047,0L0,0M0,-130.4528598214047L0,0M-92.24413132858828,-92.24413132858828L0,0M-130.4528598214047,0L0,0M0,130.4528598214047L0,0M145.23751726783058,-14.78465744642587L14.784657446425866,-145.23751726783058M145.23751726783058,-14.78465744642587L14.784657446425866,-14.78465744642587M14.784657446425866,-145.23751726783058L14.784657446425866,-14.78465744642587" style="fill:none;stroke:rgb(0,0,0);stroke-opacity:1;stroke-width:1.5;stroke-linecap:round"/><path d="M14.284100242602621,-14.284657756902067L146.09174626456243,-14.431780955462918L14.430985653517233,-146.09039344831731z" style="fill:rgb(119,236,158);fill-opacity:1"/><path d="M-10.454334772969856,-155.69185204080046L-102.69846610155814,-117.48312354798402M-10.454334772969856,-155.69185204080046L-10.454334772969856,-25.238992219395726M-102.69846610155814,-117.48312354798402L-10.454334772969856,-25.238992219395726" style="fill:none;stroke:rgb(0,0,0);stroke-opacity:1;stroke-width:1.5;stroke-linecap:round"/><path d="M-9.991985996236076,-156.38319341128474L-103.5152072295446,-117.64408308346061L-10.099942421717172,-24.386691313434852z" style="fill:rgb(119,236,158);fill-opacity:1"/><path d="M-117.48312354798402,-102.69846610155815L-155.69185204080046,-10.454334772969856M-117.48312354798402,-102.69846610155815L-25.238992219395726,-10.454334772969856M-155.69185204080046,-10.454334772969856L-25.238992219395726,-10.454334772969856" style="fill:none;stroke:rgb(0,0,0);stroke-opacity:1;stroke-width:1.5;stroke-linecap:round"/><path d="M-24.385439002738273,-10.101198438477114L-117.64747054106455,-103.5148379653569L-156.38105826437737,-9.991099243663847z" style="fill:rgb(119,236,158);fill-opacity:1"/><path d="M-145.23751726783058,14.78465744642587L-14.784657446425866,145.23751726783058M-145.23751726783058,14.78465744642587L-14.784657446425866,14.78465744642587M-14.784657446425866,145.23751726783058L-14.784657446425866,14.78465744642587" style="fill:none;stroke:rgb(0,0,0);stroke-opacity:1;stroke-width:1.5;stroke-linecap:round"/><path d="M-14.284100242602621,14.284657756902067L-146.09174626456243,14.431780955462918L-14.430985653517233,146.09039344831731z" style="fill:rgb(119,236,158);fill-opacity:1"/><path d="M145.23751726783058,14.78465744642587L14.784657446425866,145.23751726783058M145.23751726783058,14.78465744642587L14.784657446425866,14.78465744642587M14.784657446425866,145.23751726783058L14.784657446425866,14.78465744642587" style="fill:none;stroke:rgb(0,0,0);stroke-opacity:1;stroke-width:1.5;stroke-linecap:round"/><path d="M14.431663838035448,146.0910703450676L146.09106883205047,14.429752623244275L14.284099490596388,14.286009192370404z" style="fill:rgb(119,236,158);fill-opacity:1"/><path d="M0.9409194184359362,-2.9391550661751817L-2.2817008960788683,-2.054225021441675L-0.8874944551023447,-2.137896645393408zM-0.9675208075252094,-2.81014701493087L1.6180606810057794,-1.6412353143016678L1.577736059264707,-2.679894403777727zM1.5022244678787766,-2.6535830500240123L-0.019071175353156833,-2.4990668034128505L3.0046324602962646,-0.6740983105178416zM-3.065469075089786,0.7380692512585609L-0.9897160029396551,3.1115600998465487L-0.43260067479244263,1.977118812849595zM-0.8746402739223818,2.050783012490123L-2.2951717254603503,2.1591209851910724L0.9415360666374548,2.921372735329069zM2.2828327301002576,2.109677645597741L0.8127921710862059,1.952812944668079L-0.8673489684411864,3.0687861427444445zM131.37040481428048,-2.9857284868414062L128.1693200427291,-2.067362028484524L129.77532814719714,-2.078186217684334zM129.48537795241128,-2.856507354791672L132.4824168442594,-1.8833127020577103L131.80381007302665,-2.391456676160882zM131.96011509095652,-2.653428895565343L130.62990853979622,-2.523447328711427L133.4410910590212,-0.6498719396779341zM127.37789263977218,0.7595470676505899L129.2430536721803,3.0408558339984797L130.43459687217765,2.0263452623056346zM129.78549722713382,2.007642519711596L128.15760801544002,2.1608535200882293L131.3719477616329,2.9627806932104392zM132.74028626659523,2.1219453975274893L131.4984726802387,2.0279964659282L129.5328459228634,2.9813348695545754zM0.9790105272170504,-133.25407014637824L-2.2568149049598936,-132.41052020777033L-0.9504715550024339,-133.01001531581372zM-0.9322652739491991,-133.38603622634025L1.7858951133337628,-133.15087190487307L1.3746460933607132,-132.13769753874897zM1.4244377451848147,-132.8680556870615L0.07820112070772706,-133.42533551902477L2.9851468869293423,-131.07668589482049zM-3.082598755543862,-129.67374613397484L-0.9763839687102596,-127.34044263470363L-0.4288030285677627,-128.70239200431882zM-0.8613538290802698,-128.9042987790308L-2.2543976569106534,-128.01631560325413L0.8874755532456462,-127.49143782165686zM2.237931998075612,-128.11083808014982L0.739856279568125,-129.01255064431655L-0.7495123448984602,-127.28866347947542zM-91.2678470298852,-95.06405238702038L-94.50220270310632,-94.20525241803387L-93.32125489437513,-94.72500062257741zM-93.21387159958813,-95.09652644037267L-91.46651978122112,-94.55123686295025L-89.95436138106685,-94.34654212430874zM-90.77281638261053,-94.76378167394687L-92.35906385574653,-95.02852921968125L-89.24336270344243,-92.89746596494797zM-95.3086136532873,-91.50814330987745L-93.0900103322447,-89.14223690290041L-92.95219046191126,-90.38590031788884zM-93.26894540109456,-90.61649933854642L-94.49295233586848,-89.79258426541801L-91.32940689040362,-89.32266835764669zM-89.98011536114007,-90.02189723246185L-91.70723795796799,-90.67745712242701L-92.94739944276805,-89.03239760672226zM-129.49725725026536,-2.9015977497127015L-132.73107992960615,-2.034259716012295L-131.54326768982583,-2.1954192672852684zM-131.4046745673798,-2.851699731366981L-129.498585878457,-1.6105112346176866L-128.41179255836994,-2.6690657670255966zM-128.95508169658285,-2.6515339369562394L-130.66538254326036,-2.4802990084928918L-127.43507894428693,-0.6949152185055728zM-133.48352070332047,0.67599847950397L-131.19880138515015,3.069090859871274L-131.34879260130333,2.0816588245794607zM-131.52627099637377,2.086705964781492L-132.74777786368438,2.154123371593908L-129.4975560096392,2.890447396634865zM-128.17864340921136,2.0852578026292514L-129.92829215079,1.855106835001966L-131.20811744420536,3.1909120953790473zM0.8808657423519406,127.41161712045057L-2.286582982916524,128.292631786822L-0.8225586921806936,128.7078032966692zM-0.9325345953912327,127.5641009774469L1.4179113285115785,129.12041661023122L1.742899199624931,127.72753461626364zM1.4575174447316728,127.5769244090365L-0.004835814898966784,128.44099932108855L3.0351041229891784,129.69865704287227zM-3.048088845131803,131.1573543771783L-1.0320936950425528,133.55929893974317L-0.4076032126475284,132.6534237839853zM-0.9729064078828662,133.0718504749827L-2.228310186540043,132.33623684898157L0.9729406616776322,133.266518345998zM2.2405735222478684,132.38078887714443L0.9714924635744904,133.18393121026298L-0.9837900530770819,133.10988558255488zM-0.8732934808426123,-3.106991903757179L-3.084590114490911,-0.7846550685147724L-1.2077927092601584,-0.9801232616751019zM2.6905611805768284,-1.7973181169591326L0.724263271033938,-1.638166244101344L3.055380422038476,0.8232239471900309zM-3.098221125099274,-0.8302044926394163L-2.5003006464410245,2.123574389052697L-0.8716831021089435,1.3188905174571648zM3.1007345953424483,0.9366332081627035L0.9971481890053812,0.8212076408445794L1.0677935202458522,3.1139293849397705zM129.4375257528224,-3.108903843597971L127.35682595191076,-0.8215945666418203L129.71887903797955,-0.9412718237072623zM133.15732543093816,-1.796747203946263L131.53945482816948,-1.6833020757864436L133.452331661848,0.867788865862261zM127.32704424951777,-0.7991287062541506L127.88748001339957,2.0335235289512408L129.9941779107398,1.377865591173355zM133.57303098784305,0.9535076890050604L131.93639070389202,0.8162785817461271L131.33516166016503,3.101983963195866zM-0.7931330632811531,-133.5403551838889L-3.028556579125073,-131.12568888580145L-1.343986662187456,-131.8846332115631zM2.637710325587747,-132.03174348170032L0.8435841611162325,-132.69436581167076L2.9889103869452627,-129.56505816780577zM-3.1393012344285953,-131.23470671120302L-2.405668452288966,-128.24816070774563L-0.9252351869316806,-129.5837792144873zM3.079315830073406,-129.26817456101656L1.1000397039012746,-130.1799416237315L0.9863207706190011,-127.35902062861123zM-92.93485668387972,-95.28412509944954L-95.25852153509412,-92.89688437413267L-93.93119501111956,-93.64965768586454zM-89.57365364065667,-93.91760541172297L-91.71250406469754,-94.25150640736013L-89.20253434649624,-91.40204552028703zM-95.33653978170635,-93.0802568285943L-94.57078950169564,-89.99689477602712L-93.52177251574696,-91.26948490700786zM-89.14914504463373,-91.17358847259325L-91.50549352124226,-91.76173951560045L-91.13858205503003,-89.15179870335898zM-131.18400700639293,-3.0621463358094996L-133.51021735761557,-0.7216227154450606L-132.1503589878916,-1.088001182692493zM-127.7726380032013,-1.7965650625462395L-130.07800949938263,-1.6005530978928804L-127.35805467107322,0.784857746568674zM-133.49446889678572,-0.8805866906613529L-132.78195620066958,2.2461859038712646L-131.87268682350035,1.2466612006605338zM-127.36509461467573,0.9257352548209448L-129.91273201527054,0.8713854978016801L-129.23540411276642,3.0746494813244283zM-0.9042224266127669,127.34198722935021L-3.1127392095016377,129.51988175914153L-1.148714668479277,129.94526782486756zM2.6144946805943943,128.44040593595497L0.7091548877897,129.4489804902891L3.146555305265148,131.17726020719186zM-3.0558471515294916,129.58354264677584L-2.6087901690721913,132.38476746546033L-0.8055675530475591,132.3228573489407zM3.007727043367663,131.13639006032687L0.9798830291067854,131.832483054437L1.1780662321192334,133.58180416648958zM-2.3407131306680125,-2.240969428685797L-3.177745062827586,0.7217818198751781L-1.2002236550251504,0.21465903975505782zM3.265186642538536,-0.4749985029947463L1.064180881602826,-0.41017282046898396L2.3893143243793866,2.1896998925192905zM128.03757707311593,-2.1981872160010103L127.24759280617977,0.662120419382319L129.72475071446425,0.23153822756313033zM133.73655543842594,-0.4685097669034906L131.98195273988222,-0.46206257921331323L132.7287761124933,2.235100915172364zM-2.3867425424766404,-132.66946058238736L-3.099126180747396,-129.6235954503689L-1.2328131252967123,-130.74007497858zM3.23793839971471,-130.70042742616576L1.194170022822203,-131.49736081025975L2.2865734259838355,-128.2262856367996zM-94.51687200859746,-94.51084354784298L-95.3045647442272,-91.3786275439049L-93.89128198284988,-92.40909436446147zM-88.98711131755226,-92.5924309031294L-91.42214506173507,-93.04273157133393L-89.8660986593457,-90.05434584363492zM-132.6765899674885,-2.278646712823706L-133.55713933166868,0.8238161777093096L-132.2135549916443,0.1503019660588351zM-127.19986542270713,-0.47883406835235426L-129.82286895462786,-0.35697234899511116L-127.98718621642494,2.1403349864030257zM-2.3038104357197597,128.19651356425206L-3.2344741936853882,130.9988822921589L-1.1803972191156007,131.22867801681414zM3.168236379501241,129.74593397513152L1.016508896191924,130.72198962030933L2.5339365728275838,132.5652074158954zM0.4378087169724976,-3.2836702159531437L-1.8879334670742765,-2.024148175999809L0.5263773864120627,-1.827986416747636zM-0.4565663622088089,-3.3128883351821647L-0.43998290357091857,-1.5265193816142364L1.8202966294694436,-2.2963970919041867zM0.5153627957936173,1.7649928588514288L-1.9095218646265861,2.1435737034783675L0.4704117051432526,3.227238246370792zM1.8480891252965548,1.9975412235395964L-0.9118085770567028,1.9811844348832077L-0.012533184550135634,3.1570791502777844zM130.64025890718585,-3.2450286125625545L128.7664301814482,-1.9778367109391135L131.4743210555696,-1.9129394851989203zM129.66562044515896,-3.128030826646648L130.61215142232504,-1.5710695654435234L132.45073300409908,-2.4367044166104166zM131.46650572947274,1.8329770003639931L128.73238963015197,2.127197936217478L130.6821147845789,3.175629872119117zM132.49523832367893,2.013438064520669L129.92947900994199,1.853867754481914L130.30378753796217,3.268498989698005zM0.47401848748159636,-133.64773473183735L-1.9129422118185966,-132.7565865842771L0.515176360647284,-132.53624100047946zM-0.4749250365006844,-133.71826979672966L-0.4547915311276307,-132.27056521568937L1.8534639313180312,-132.95172730417488zM0.5141774923987021,-128.99065023294526L-1.8947715080684056,-128.4972651087963L0.4568466519799871,-127.18103735745119zM1.813725036457537,-128.64509256351985L-0.8034220050555543,-128.88704223082726L-0.08655566771226636,-127.13681790484566zM-91.42509012788571,-95.32974946302026L-94.28511872313582,-94.48034182450624L-92.26142517980215,-94.37360018830807zM-92.31500668783865,-95.40106124227721L-93.2971248974856,-94.26732111971702L-90.51200771812,-94.51530911384035zM-92.04574150362042,-90.68170690683806L-94.2781270204712,-90.21985548846979L-91.64776550673206,-89.01051946312555zM-90.57009701552057,-90.40807401020949L-93.31603104981234,-90.50759913935454L-92.23801123811134,-88.99640870886937zM-129.73378042217144,-3.1957986288556586L-132.53540836804942,-2.057157725861038L-130.45931608136223,-1.8828484539838917zM-130.56926234304638,-3.281377968877943L-131.49450823272625,-1.7196669101136914L-128.817239568431,-2.1347599297089532zM-130.4573605226015,1.8278822186306853L-132.55010398969554,2.1564485999324363L-129.72104035928604,3.1514739901374664zM-128.80538882848333,1.9736896819352694L-131.6698644054092,2.058667464574465L-130.4057569103111,3.1034476621908538zM0.3941476198845282,127.09613578415151L-1.8531594179211983,128.6876474231967L0.5352644343469538,128.88516949184455zM-0.4346233981335029,127.09661348086985L-0.42440979206512053,129.2145918070079L1.7827805538883397,128.35774741131502zM0.5128006622971908,132.5206122265536L-1.916922818014502,132.78735335286257L0.48037479202759487,133.63259673717775zM1.9052381014168152,132.72996523060837L-0.9964996972703544,132.97887873935383L0.015008959543255596,133.2317183466317zM-0.12605627823735605,-2.668619690261049L-1.909187121972969,-2.744228267855089L-1.7946704479964655,-0.41710348159789107zM0.18851457679608624,-2.8968172760719804L1.5543671668955439,-0.530363922601983L3.0420133555362074,-1.447788990019018zM-1.3338022145316493,0.8673317817347121L-3.2025159380648773,1.0702744216660676L-0.2485769466313108,2.937363985292201zM1.9632668437582508,0.4052529605136494L0.20806962678108398,2.9317814733479373L1.6585773776674557,2.492917005852442zM130.4627115919377,-2.6992091136313685L128.40692360896642,-2.694537399147275L129.16410747093337,-0.43620492693538443zM130.80126545949838,-2.888330513719516L132.68141872978748,-0.4274151262115159L133.16586742998632,-1.5592245487619492zM129.47677935751284,0.8488633161409406L127.24172056910639,1.0883488614470538L130.36026149419723,2.937758011104987zM132.93000349488986,0.48363921858011627L130.83477997357755,2.940177475630685L131.92878689978374,2.4061347455032274zM-0.20845744668956745,-133.54440826826368L-1.9258813403389428,-132.9601843027723L-1.6955750611782803,-131.1890153887224zM0.1896947785346531,-133.5639543538368L1.428435972223937,-131.60614685933072L3.1667643484692474,-131.56852549556982zM-1.369062583344332,-130.13262716362203L-3.187292475448556,-129.0799020648539L-0.2285400404349494,-127.7761571028754zM1.8961988020197715,-130.38916492874299L0.1919374729768069,-127.77385241652324L1.741777573210212,-127.87068773506404zM-92.54122060337409,-95.26049030403526L-93.90615937954013,-94.76076108981162L-94.4720684362116,-92.89823461678617zM-92.15834756179858,-95.31174724064046L-91.06680084825234,-93.21852439071158L-89.07949106164025,-93.43423312825995zM-93.86959915362388,-91.83065270789629L-95.41775280588067,-90.88010790681005L-92.5870777106423,-89.50380376751973zM-90.67891696210432,-92.09756785965627L-92.15569667640311,-89.48449016013197L-90.4250070842048,-89.67752511141678zM-130.71851326524398,-2.634756123823788L-132.1955366911303,-2.747516995718044L-132.7795204118769,-0.4476783201721961zM-130.40471673384582,-2.927513799299568L-129.35524838233866,-0.6188212054506878L-127.318796304632,-1.3286351839427253zM-132.13833597408583,0.8875366064611343L-133.64425386281818,1.047877931592582L-130.86596178236817,2.9395556506392646zM-129.0171758757172,0.38158384529446127L-130.40088538700448,2.9347623809929178L-128.61568140911584,2.5136052134266493zM-0.16367040750415884,128.1967986232254L-1.8074237787182572,127.48083214493296L-1.8588196619843744,130.35607431217193zM0.19755519009697337,127.75961696244457L1.6310927785944966,130.33169816452278L2.9562471305363673,128.89737120438397zM-1.4381196587081282,131.89086090770465L-3.1054733633542213,131.23314942886248L-0.24130207716548763,133.61461637217022zM2.075916818717837,131.22048293010567L0.2182892051243438,133.6024811630531L1.5357078243646096,132.87064386659958zM-0.9718984876696926,-1.7930391920105024L-3.0457960961031922,-1.7120169122779076L-1.6935680420982566,0.8927956904179646zM1.1546319589131835,-2.1523775048940443L1.5411404877374095,0.788109972870769L3.365037497255062,0.05653568720838992zM-1.3885726326716066,-0.49851880812484806L-3.4867402001850194,-0.3276514987337672L-1.1854971110490289,2.1339021516735zM1.7261903719910112,-0.941543874792225L1.0906475169439014,2.073829793992063L2.894424736936229,1.4799744946706073zM129.77390267363143,-1.7987803217381277L127.34302795898459,-1.6596440845383853L129.2207367668858,0.8461639924060673zM131.95899973627493,-2.191671786952903L132.5366147455991,0.9219160602567387L133.61412548740464,-0.0379761181187207zM129.43986927836778,-0.4989165061344714L126.93716740791781,-0.2909428686530436L129.61108339518174,2.0975912196023994zM132.69240031640228,-0.9789990787949667L131.92626411312128,2.1642117786349355L133.1415282217206,1.4270477140304765zM-1.0672882021934154,-132.79417785544365L-3.0925649525931536,-131.8565081723221L-1.5514094710845725,-130.01050441147768zM1.1956072622891851,-132.9644167700562L1.4550806668488474,-130.24282545714223L3.410122014767622,-130.14941964298941zM-1.4667707946137287,-131.53761592616797L-3.500754819063087,-130.4669752509451L-1.0932843302288393,-128.73660700344502zM1.7573448517247463,-131.78009716032295L1.024716110111463,-128.8598933404629L2.929201664034932,-128.79667911071667zM-93.52113253406702,-94.50117271854326L-95.23955368817036,-93.71764868577864L-94.1711191670852,-91.61398177299996zM-91.29502149926874,-94.63495099467373L-91.05843022548729,-91.89285494012907L-88.80628109478974,-92.00046867346352zM-93.98050468013075,-93.23406371223302L-95.70654858682748,-92.29625151723606L-93.59429944039887,-90.38249568916748zM-90.82083957706219,-93.43621335170899L-91.42881092240414,-90.53385877153588L-89.25962963811395,-90.63821022633616zM-131.7131183918552,-1.785597715014179L-133.4039803577845,-1.761602721793807L-132.64309390160446,0.9349400229375404zM-129.6263942146256,-2.1273593921256677L-129.3503017614546,0.706658843757216L-127.0114241053871,0.11296870355356634zM-132.2128704908132,-0.4984076240786315L-133.89798116464536,-0.37021730109579676L-131.99888831382012,2.176356769989313zM-129.19228635419034,-0.898273328487051L-129.69879404724588,2.01559724222281L-127.44658699806563,1.4949365001346864zM-1.0039025215577861,129.20476977061966L-2.9168024603991047,128.4760292569495L-1.7905576439142505,131.75587058393336zM1.1158738711256266,128.66802351949914L1.6335779959581718,131.7097010370691L3.3113580768218567,130.36347362398985zM-1.4385367156964664,130.54343716512525L-3.3681184794166628,129.84114891049137L-1.2541547487925255,132.97207579457123zM1.6846148267223362,129.90673665184227L1.1648068273503258,132.93809819329482L2.86184097179848,131.81635559410634zM1.184494848764277,-2.701033586277418L-0.9550410840689488,-2.4719695645269386L2.2959315144559014,-0.661476364599995zM-2.3429941660213305,0.6861100981030636L-1.055335424704691,2.9401561940016943L0.8729443115747916,2.2082132232995946zM131.7841344430498,-2.6780366080279774L129.7571363334827,-2.467334643877493L133.10919959360442,-0.6891082634988817zM128.47987764107526,0.6445116636685619L129.52735936086967,2.9468086992652074L131.59246280988947,2.2431591524705827zM1.1500575757330143,-133.27784233113448L-0.9546303396645668,-133.22459502104346L2.3299580430827826,-131.45712725421205zM-2.312352490469033,-130.11462605559603L-1.0582864522964772,-127.64826296321665L0.8452536636142804,-128.52771655676858zM-91.18155075989192,-95.0532250809842L-93.38278140084327,-94.92956532943367L-90.18467510354519,-93.1260816484181zM-94.82171095362635,-91.7772280168774L-93.39346104631812,-89.3983043694856L-91.58460582263837,-90.26438064166429zM-129.40921816909068,-2.7223025701237638L-131.6670654363458,-2.476816145068254L-128.5234162063979,-0.6353608002123341zM-133.15727561046816,0.7270277594718539L-131.64184788969243,2.936942537592308L-129.8513468699763,2.17050921834019zM1.2087231993889098,127.88206137982667L-0.9518853570596362,128.28042303173993L2.2685474368219563,130.1281211640147zM-2.376929670096286,131.49185195062682L-1.0508395914311779,133.51196051444532L0.9023839823762341,132.95575214131784zM0.5341558783218405,-2.7635887481352834L-1.8392644218287808,-2.5401008500025974L0.3813611798172239,-0.5321213698059717zM-0.373239891524435,0.476359249626036L-0.43945358840314797,3.0025343184646243L1.736440843617299,2.3569173998531925zM131.16140948915125,-2.7618976783886238L128.7781811384562,-2.5073659188554975L131.3948923566146,-0.5665473706997319zM130.6868727760969,0.43306180389633614L130.1720617543771,2.9848193582182345L132.32304318112753,2.417929805829282zM0.5192874587552199,-133.51995602689715L-1.8775790461600845,-133.06421663925397L0.43454422371514806,-131.50986864970454zM-0.33661833582944345,-130.46698289639264L-0.4542965159676667,-127.74140922771765L1.714662215486826,-128.2140272558576zM-91.8389787414543,-95.216547312429L-94.22745165982137,-94.86082641606583L-92.22585744903493,-93.12697772606992zM-93.00288352672447,-92.08109693224655L-92.8173055220566,-89.451017614699L-90.6246040741501,-90.00061497173151zM-130.09738413192017,-2.7509630297471452L-132.4470478890928,-2.58011099054451L-130.63754569058855,-0.5047369476521979zM-131.41524701417913,0.5331805171650983L-131.05474287835935,2.993498901935815L-128.86449309168358,2.3091315488429394zM0.5414615630121223,127.9927634942922L-1.7959353661486683,128.00222305375638L0.33072643944682945,130.4274328319193zM-0.41298815082077717,131.43354353767452L-0.4238619315251624,133.74354518450562L1.7605974460356557,132.91695259367552zM-0.9676491404529839,-3.043118443183979L-2.3797558276115907,-0.7943019009045661L0.8220196889133444,-1.0420845729032613zM129.58789098897861,-3.0306059891676735L128.43632938859923,-0.7654822309326789L131.76752370333367,-1.083416696891454zM-0.9834047775852102,-133.61242102590998L-2.4029931954714465,-131.5650468083123L0.8610126939054268,-132.01916644283233zM-93.29273676874585,-95.38565522962924L-94.8915577673041,-93.2839697993522L-91.75127913350721,-93.6200682784163zM-131.5144260690295,-3.0593990637447597L-133.18807490984858,-0.8229120750602414L-130.14001366033594,-0.9971937781868057zM-0.9559330319692274,127.54739147089305L-2.359550674403474,129.96763513383124L0.7900984272214711,129.92259783834666zM2.3645104920833404,0.8819952331735706L-0.9154765270200041,1.0313079385965895L1.0763513140878933,2.9662017452216465zM133.1692256017844,0.9031394782460664L130.0206951572494,0.9912658603460233L131.6525938801802,2.9850995783997165zM2.351062488757575,-129.85681486414117L-0.8721079752512665,-129.970363226012L1.046430765644921,-127.61044635291778zM-90.14128324269568,-91.58033117286084L-93.46865706744242,-91.57678565055086L-91.27486280111661,-89.37356665000246zM-128.4460734635817,0.8610740791076159L-131.84198294554557,1.0640724342134855L-129.50368767178423,2.954358403670705zM2.379662701008714,131.62468912788975L-0.9538241334646828,132.05119736272104L1.0995467116071982,133.52074778644382zM-0.42324049704138117,-3.030247365290772L-0.47739614732902586,-0.6604264293996174L2.5022745598319207,-1.1901592432458128zM0.5193246145428219,0.809852537597956L-2.556704116257502,1.1001578085324104L0.4357415862531667,2.970822691805836zM130.18193865040772,-3.002901429090533L130.53399399106164,-0.6508308585560656L133.27951373225832,-1.2271007502896039zM131.5067760056021,0.8196398370004211L128.2187482973379,1.0952845473240567L131.06664623986464,2.9659086536117245zM-0.42577862589139037,-133.74045709846158L-0.48746660444246753,-131.60414709562232L2.5148831457953715,-131.93003730211845zM0.5143055780930406,-130.13802464399177L-2.553522331857104,-129.63486081913484L0.43757883830254996,-127.74008995720327zM-92.76441869047714,-95.46187459623197L-93.1344852123141,-93.27138757818152L-89.96386689924645,-93.61197958102194zM-92.10047240814458,-91.78523924552222L-95.02703687956911,-91.33792104429197L-91.93853734524704,-89.46041538974885zM-131.02846549797948,-3.0364210032091696L-131.48802872848088,-0.690055510752504L-128.27567631634426,-1.1543565239745288zM-130.47029151115535,0.8136242174237485L-133.33200370521914,1.1048242235406491L-130.19315115735318,2.9623845969718046zM-0.42030259262615827,127.6794263273627L-0.46511842983451784,130.28074918919475L2.48705893792219,129.55279990377244zM0.5208248289775225,131.75773978233295L-2.556308589327656,131.83493525601833L0.4338458448886195,133.68196645785108zM-2.3568392905553908,-0.7724726123576011L-1.9838512919159879,1.9533956457438162L0.8889377766768445,1.4358721087830555zM128.4817840928478,-0.7719427194710842L128.76738772511723,1.9444281032332933L131.80147824163186,1.4443097584070614zM-2.3621354012889704,-131.58289585690864L-1.9738170147212468,-128.78293516386927L0.8841996102156829,-129.5197767024442zM-94.87711676601734,-93.26949521892087L-94.43084583436587,-90.48224244054938L-91.68498678834969,-91.17266378129885zM-133.19507705069077,-0.7723360726739265L-132.73439209243702,1.9638172110264098L-130.0246865280582,1.425314003816787zM-2.351521749518756,130.03848603607355L-1.991318672335568,132.68657135012901L0.8910876160597898,132.39414062135813zM2.0423275307492026,-1.8037860282493372L-0.936773596168494,-1.5528483709921634L2.3461988712138253,0.7398392570722296zM132.80143013524184,-1.801862347395656L129.97339107000744,-1.5596394078294606L133.1793344659367,0.7447066130558457zM2.0404071080936226,-132.53553525378786L-0.92494945117806,-132.51785381338135L2.336295148878971,-130.0658089403915zM-90.41860781834187,-94.24787163865562L-93.49656007920225,-94.15272605784784L-90.17427587959969,-91.75739402860415zM-128.71640167703185,-1.8053323241856212L-131.84663857779552,-1.5463659599631694L-128.4876098047695,0.7349031419795196zM2.0398538121312777,128.92806959819208L-0.9447362375550121,129.41309534754205L2.356635231218268,131.54444277748797zM-1.890944370644823,-2.120792709263343L-2.4282037411754214,0.6137349629386265L0.8673953060257104,0.19932590150983134zM2.4510395393093583,-0.4897082960589938L-0.9245241311109106,-0.2641576463109227L1.9252373975960864,2.0615977871848012zM128.84876747654897,-2.1048054265832015L128.41118802492662,0.6099746576611605L131.8611287739014,0.18709892410715565zM133.29098232131173,-0.4858802596608173L130.06503136721778,-0.28367916704792656L132.6685761984366,2.0772912715236282zM-1.9093176339319728,-132.86525925682366L-2.4216755068057245,-130.1752531828337L0.8792403349431634,-130.84005648632908zM2.4528774380153053,-131.27039962220852L-0.9003085939690917,-131.3154866234071L1.8991839617483202,-128.67921899074105zM-94.34993778196744,-94.58368567510541L-94.94050651362026,-91.864237664466L-91.75230962016282,-92.45080961519946zM-90.0652126064652,-92.96965425785632L-93.53130897257208,-92.91745979414506L-90.54272672512417,-90.39615521313975zM-132.62783027124362,-2.1378436356637613L-133.2668971227633,0.6176963323969558L-130.12986249295918,0.21241545845192036zM-128.38908366748822,-0.4929472057933348L-131.9116612342724,-0.24671217681627453L-128.82033937361638,2.0473912274244936zM-1.8729040604451217,128.62798938718305L-2.4327272227834893,131.4005113766232L0.8538784774340771,131.23660447255043zM2.4450853636360597,130.29087645085198L-0.9444043164287559,130.79244047047516L1.9510717585872301,132.7972520046593zM0.5239425859648488,-1.8089053659310084L-2.5261995249085643,-1.5714133196658364L0.4006190234822018,0.763523543427574zM-0.39086279800405577,-0.8118112780776874L-0.47717041923149905,1.9584232351236401L2.469671132697068,1.470183185123318zM131.40461034461106,-1.80944408322499L128.23662421612505,-1.5540055050479074L131.41341446692576,0.7466544461036264zM130.63072833566017,-0.8323603072354415L130.40533293703695,1.9670704486796067L133.2218635858878,1.4820850007251054zM0.51552873134174,-132.7569310051771L-2.546041609263093,-132.26479340226933L0.4288749624598386,-130.25135767784627zM-0.36994650729094714,-131.8131291547304L-0.4872902525945965,-128.98525057222426L2.458874675347057,-129.24111207399946zM-92.02824941432687,-94.40404163402411L-95.00404911854415,-93.99717457852658L-92.21934847408168,-91.86558802110976zM-93.02049317701483,-93.43012214693661L-93.03238330051511,-90.63820490974207L-89.99549469849973,-90.96488689264325zM-130.35678519684063,-1.8070556087648164L-133.28660655480527,-1.5908909966975824L-130.614533106939,0.781151463293128zM-131.4092473026867,-0.7916389786982754L-131.35928234188094,1.9489794874046469L-128.28611938309422,1.459454633462899zM0.5276841794495145,129.13914367866502L-2.5020244891759935,129.12722632811492L0.3727023942649651,131.7731217941742zM-0.4120869866559292,130.19359852546032L-0.46485412160445366,132.89954439245906L2.4785790237218963,132.17993916737333zM-0.4058495416930941,-2.1011012221304424L-0.4826837369036966,0.6304469628955888L2.7386481689298106,0.16159096188046732zM0.5203369468811676,-0.49958623739205693L-2.7869215112699592,-0.24331045169834647L0.4164696740557711,2.051959986444789zM130.47614166586376,-2.1038526533760007L130.52459655195292,0.6425483117588727L133.55535901061404,0.1522410442627418zM131.5186966703973,-0.4982387905840977L128.0324328690361,-0.23686505115411038L131.30473790833125,2.0441671390925937zM-0.3963653822868125,-133.02018192256958L-0.49147361356986546,-130.38482294230502L2.7379538861896977,-130.6100407705775zM0.5140141841132801,-131.5179638276608L-2.794847012057293,-131.00656029031788L0.43071793761099214,-128.8723949227646zM-92.9461633722731,-94.6719320380071L-93.1248730415655,-92.0180991972802L-89.76399774897364,-92.30418111521237zM-92.1131487896532,-93.14576662279312L-95.29629671741019,-92.70950639324482L-92.1258184364149,-90.52081273975296zM-131.28792633049102,-2.096720389872948L-131.48917274596897,0.618646039065009L-128.07876837130468,0.16901105345355277zM-130.4778615706716,-0.49999880164477456L-133.60597700162202,-0.2500578243884183L-130.47225865613711,2.0591199233875783zM-0.4150897043718377,128.8185212029546L-0.47142296110305665,131.64338137760714L2.736627555807914,130.93501646018154zM0.5227889059095123,130.5188125508042L-2.7751299294626084,130.52086828711674L0.40222613322007555,132.97536479753117z" style="fill:rgb(255,0,0);fill-opacity:1"/></svg>