<svg xmlns="http://www.w3.org/2000/svg" viewBox="-497 -477 994 954" width="994" height="954" style="background-color: rgb(255, 255, 255);"><path d="M0.4063451012735492,-2.0303330106079684L0.48083021773166296,0.6371214852461933L-2.640475383062861,0.15422651744301208zM-0.5208835631864139,-0.4995636864190983L2.6914351127877865,-0.240910105795172L-0.4172514855437218,1.9794588001330327zM124.32920221289987,-2.0327990876721986L124.28253673247707,0.6497772451613542L121.342876203768,0.14403683459208166zM123.2902471164017,-0.49822241054045935L126.67188305758317,-0.23460664115813867L123.49908510327538,1.9718140596173601zM0.4154915273086609,-125.91563743348433L0.4692828746983064,-123.15982086098197L-2.6380744660646163,-123.87144192665512zM-0.5235270633076111,-124.29061801477484L2.6797079816952767,-124.27647716373917L-0.40288085433001486,-121.90183502676986zM-87.213262015406,-89.62791122806244L-87.06852569230671,-86.91013514405837L-90.30878115900698,-87.53820743846003zM-88.07029021048261,-88.03174309725313L-84.98457732011374,-87.95425507232133L-88.02910120800804,-85.61228562516887zM-123.51640396813788,-2.0262388248499996L-123.32174159478096,0.6248442716499847L-126.62306971434141,0.16240954528125193zM-124.33217761013066,-0.4999999625633179L-121.28929772818032,-0.24750653487683713L-124.33313981083397,1.9864915053589174zM0.39694694714517303,121.85549039481927L0.4900376953128225,124.43168402124523L-2.6402847065156445,124.18175578921937zM-0.5144184786071064,123.29151415523619L2.6993338011807255,123.79558049173183L-0.43161525851596844,125.85980557415341zM88.02705338367565,85.56819440773593L88.02894016238727,88.18066590723114L85.02797519254148,87.84942347977625zM87.03137920558399,87.03624628829435L90.36464225228303,87.46865614503542L87.19454740885267,89.57135137725108zM-0.5246314276495982,-1.7379651402609706L2.4449743901541954,-1.502425740364098L-0.40136653417105433,0.7611668475939655zM123.39923028265905,-1.738603175733193L126.47890444129696,-1.4853325123694656L123.39562164472497,0.7447116550715556zM-0.5285324630110607,-125.59502499695603L2.421021220236542,-125.60059229583429L-0.373512328891938,-123.03838668058829zM-88.1550636542967,-89.31493838102561L-85.2796838652351,-89.26912151166647L-87.91668323141391,-86.7655713196183zM-124.44842480556976,-1.7360366870584767L-121.59125838955923,-1.5215386967871036L-124.1961203168849,0.7783513508144773zM-0.516093929777956,122.11910414508934L2.464588844081907,122.60091026166012L-0.429518485970408,124.55554150056692zM87.1083816797722,85.84336941625781L90.16355603988531,86.26133797718884L87.1174458879553,88.28647575280154zM0.3914817767373103,-0.8110337899370408L0.4750479796267732,1.8949639073010869L-2.385506184697625,1.3952939156670565zM124.1795924236029,-0.8312833290029673L124.39698379608943,1.903732547596038L121.65922729232156,1.406774814438032zM0.41236839784852397,-124.61512948103667L0.4624796880346929,-121.96948556102367L-2.393824514216758,-122.69094086525602zM-87.12732945597241,-88.34002411793938L-87.16011237890054,-85.69753548799748L-90.10194177273985,-86.35362354031133zM-123.39974450890674,-0.7911508610771034L-123.44728693883727,1.8853908062423848L-126.42672492093698,1.3849840878658215zM0.3708770656380474,122.99703514153286L0.4855487804138527,125.756830019773L-2.3754022743854417,125.48013881207274zM87.90852829912119,86.72024095056933L88.10879287436254,89.4842525580376L85.33410957746199,89.14513770370345zM1.8090910686185109,-2.0530393157574265L2.3293070206426334,0.6198968958648018L-0.8661215968699522,0.1929033947802839zM125.86612231970577,-2.0373172645284496L126.29006668901286,0.6159326670152131L122.94940441903589,0.18114557240089574zM1.7913210526990926,-126.10106356504265L2.334208866625886,-123.39254154896136L-0.8532534269337859,-123.57995084647169zM-85.92724202263926,-89.78010495676874L-85.32070274157971,-87.06796261570211L-88.40571998160378,-87.31811269085547zM-122.25067578822542,-2.069792232090371L-121.63216068912828,0.6240609651986313L-124.67820396561841,0.20549224177939923zM1.8271744050329413,121.99917922352483L2.3225209475685435,124.63009469863474L-0.8774188602102923,123.96380398809146zM89.54305997562035,85.67586818529001L89.97847507846309,88.30510362487804L86.6766826765217,87.7047304029336zM-2.3538329685424575,-0.48978886789702425L0.926036991078068,-0.26171068421664906L-1.844480514926802,1.9917385772260132zM121.60632124315565,-0.4860172012986061L124.74608910835879,-0.2807799957874051L122.20863009145768,2.007036222198351zM-2.3476382901798836,-124.50884842423021L0.9456135323583638,-124.01467443485993L-1.8702517345696719,-122.06955505116089zM-90.00312546025586,-88.18518260549139L-86.61631865552593,-87.75889612136403L-89.57877361482335,-85.74162348624624zM-126.31380662253044,-0.49298420509301205L-122.8963161146837,-0.24465496826429314L-125.89547069054038,1.9778781984696452zM-2.3559570151752527,123.5291673880271L0.9021240037667302,123.49641306196847L-1.8184434809826688,126.04797551048013zM85.29721385058097,87.20947161202677L88.4623244212203,87.23254359509421L85.89412647402148,89.72416505620534zM-1.9611513238160294,-1.7372968297067652L0.9381687560283042,-1.479420707761803L-2.249293924603466,0.7374935044374651zM122.07664336676189,-1.73551928553902L124.832984769339,-1.4859737669983477L121.71754477235528,0.7422690195062648zM-1.958408955367498,-125.80221725769763L0.9460307431740846,-125.31845247034983L-2.2598982801977785,-123.25800370583109zM-89.66773078428021,-89.46396411369284L-86.66318220076285,-89.04439863814162L-89.91406747483313,-86.94356524868168zM-125.9993135163653,-1.7387185375955965L-122.95693135990979,-1.4731540449886935L-126.21548101696348,0.7326485495531869zM-1.9595428762315248,122.32774483169383L0.9264738300934067,122.36052537391497L-2.239207446253073,124.73195516220751zM85.74798262496262,85.9930608957667L88.5367181459689,86.0817727277478L85.41572670416228,88.41864631093944zM2.2603900532669874,-0.7712802026708014L1.8987577209842266,1.894775007808053L-0.8868712818600217,1.355729227893851zM126.22158122138691,-0.7709975867531109L125.94495168961696,1.885177952913134L123.0051929822347,1.3650436668710795zM2.2551519686943777,-124.76017480121963L1.906831139475529,-122.1683030197822L-0.8897066157787142,-122.49174754681448zM-85.39720041106446,-88.44450817378238L-85.80885597126874,-85.82473744129298L-88.4943710927606,-86.22423431937858zM-121.70116050375402,-0.7708827021257971L-122.14825295842837,1.9058958448646943L-124.77775944627378,1.3442108902922054zM2.265594875322665,123.21812152907283L1.8882977459106336,125.95463391116091L-0.8816161288421064,125.2059179936448zM89.91810848622335,86.90258894852336L89.60625241818612,89.61057238600469L86.72061955546673,88.93876666598808zM-0.5197175760910895,0.7389611652354087L2.4749429615360277,1.035482694900975L-0.4362489571113954,2.8539008809783053zM123.29911471974293,0.7485814293685745L126.4966549595979,1.0306448366303964L123.72515708521519,2.8491184751157177zM-0.5214426936913864,-123.118254687002L2.4744396831723847,-123.02697144126039L-0.43402056114745535,-121.22837946684544zM-88.06305040585559,-86.83793553175835L-85.22204261923832,-86.68883268887004L-88.24111364296782,-84.89007013465225zM-124.33641557256438,0.7424049489588134L-121.54691436265317,1.0401333765278433L-124.59964397267139,2.845806415628032zM-0.5145225319115677,124.59620578841124L2.47191625821707,125.0976621254223L-0.43841729797195944,126.93642716350371zM87.0428227463934,88.32513082318599L90.16973694491247,88.75548874526152L87.35159983342295,90.59290826906249zM0.42341824510822623,-2.915047370359993L0.4748150877292277,-0.5822985934959216L-2.4172097611709957,-1.1309987772587742zM124.61127203770066,-2.8874716595448975L124.26845091098558,-0.5712497724932286L121.6032509592027,-1.1696233090765626zM0.42056879382515056,-126.99907279427698L0.462210937222417,-124.44680283419618L-2.4017561593811094,-125.18441944886409zM-87.38457272434405,-90.6630455190869L-87.07656198375376,-88.186545235938L-90.103024816631,-88.8239370824851zM-123.7644047251794,-2.9218133562833883L-123.3197573782232,-0.6127766900590744L-126.43676466115342,-1.093754694772226zM0.4258567415415003,121.16841689866732L0.4853624405698691,123.27961560274429L-2.430195610444911,122.92557309369622zM88.25162663727906,84.84554570789156L88.00753711047211,87.00799780717817L85.26704292031056,86.5632948402109zM0.922482456929342,-2.9325471730724573L2.2946585537441653,-0.7214633692908226L-0.8202765308111117,-0.9755913466434664zM-2.279583878493602,0.813939179171572L0.9169703802551994,0.9626454952206887L-1.034250981623992,2.8530172146144857zM125.1563295862134,-2.9203093998283878L126.27564136220823,-0.6926430185326208L123.03942533479389,-1.0166494706457379zM121.71294513240665,0.8348005602519466L124.78683497027286,0.923577051683147L123.17788722081123,2.8712242770716525zM0.9113557367021241,-127.1308115141654L2.2747626693107534,-124.7560026540784L-0.7892539261504823,-124.81731952411617zM-2.294209905528486,-123.24072411267385L0.9545788028473603,-122.82334837479516L-1.057233377181269,-121.38085742687744zM-86.93733544726717,-90.76448078400473L-85.3921467616514,-88.44535378242571L-88.37015927109267,-88.51627328244997zM-89.96215798091636,-86.92052092593842L-86.65476893051633,-86.5496402781849L-88.87644352830335,-84.99674286674363zM-123.31974656473187,-2.9483233364834134L-121.69401429428979,-0.75013063266119L-124.66390646446908,-0.9311479198621427zM-126.26635352918818,0.793339341845706L-122.96203760283649,0.9946829373079606L-125.24300515119086,2.8415796098530794zM0.9374925575179782,121.28621561345102L2.3176949336321218,123.30433931536534L-0.8583230112877048,122.85437498553009zM-2.2666541972909746,124.87233669409318L0.8742313569026194,124.76631498807838L-1.0044416394740394,127.06548201018842zM88.77698810941631,84.90932943822179L89.97909067153536,87.00169010325804L86.73729165878437,86.55588452938711zM85.40466026706987,88.5525455247214L88.4733760315638,88.47523926524096L86.82160518137758,90.69832305891806zM-0.5349527729415594,-2.6471814734053667L1.7948158281921318,-2.427084444562602L-0.3819750037217191,-0.46421765401002313zM0.3740400000378299,0.4071807307135093L0.4347404399360111,2.8961040068797668L-1.686668491502693,2.235198834384716zM123.63020203225894,-2.6458863119884195L125.96644475471442,-2.3950170633450822L123.4114092761389,-0.49758019664449016zM124.12040128775074,0.36394192770088024L124.61671452682464,2.8776889351924773L122.51516414547918,2.296852709084634zM-0.5424242351657932,-126.6847994753883L1.7520369862433343,-126.67409378076536L-0.3317246995486879,-124.30975832740783zM0.4130015846895312,-123.44135128923864L0.4190696900931953,-121.15769272328563L-1.7099593263115784,-121.99264042708117zM-88.33194712306704,-90.34569691756796L-86.04715280663653,-90.31288917750886L-87.8788587309343,-88.01574418906792zM-87.10246874656899,-87.12528273026561L-87.39725016716805,-84.82525693460565L-89.51401584995853,-85.6468234753175zM-124.69581794699117,-2.6346318966125257L-122.38595982710204,-2.466185360556039L-124.17050218596134,-0.437666314809427zM-123.39007977454992,0.46367307040205985L-123.74334936867136,2.8882534256232426L-125.87462691989097,2.1865570759526896zM-0.5199686206818634,121.39039876176392L1.8324577731365717,121.83761082047728L-0.43460110092585497,123.36367485736424zM0.33808162784039525,124.26911265663345L0.449802673105365,126.94701410664491L-1.6657723524746122,126.45252482028313zM87.27954755674375,85.06320027049543L89.62144034344976,85.45902537198268L87.11274686350205,87.07513749771066zM87.85957950381709,87.96094979080405L88.24596067477654,90.60639406230595L86.15241848204424,90.10698643103474zM-1.1420096239095103,-2.591958477733143L0.9559918010909945,-2.3535168901827914L-2.210846657043879,-0.5942622212556357zM2.260198900529978,0.6204488338932609L1.0005297326934488,2.844506570131341L-0.8638641533610315,2.074782185146968zM123.04803278223952,-2.5695303075533213L125.03758237869653,-2.348834527242993L121.77309009294568,-0.6213727543752554zM126.23436524172861,0.5786595626065687L125.20956464619613,2.8493404562714586L123.20850432568177,2.1117375702935424zM-1.165735262030881,-126.79798725517217L0.9529392018993648,-126.39472014750737L-2.1840684197308784,-124.60259992023623zM2.293999669366017,-123.3708894485717L0.9967151736631022,-121.37005451560331L-0.8938503631667245,-121.97488818039758zM-88.97743603067838,-90.43057195032515L-86.7849140417158,-90.06917269225636L-89.85903355518684,-88.26451209430871zM-85.385080977682,-87.02427235546043L-86.8255628749314,-84.9917698457007L-88.61701081524282,-85.66873935738597zM-125.33780762858635,-2.6126212779132043L-123.12574388285391,-2.358381586555592L-126.18888270216625,-0.568734724702773zM-121.72250009575613,0.661613505708103L-123.20542427444447,2.843144767513435L-124.93078088368112,2.0349793159500313zM-1.1080709784057412,121.62023653176395L0.9555037675530214,121.68740330833319L-2.244297269009675,123.40819230447546zM2.2296899244186594,124.61675543616686L1.0034514773844085,127.0430215369337L-0.8362769219406727,126.13553034981523zM86.69805332398363,85.25869413256845L88.69470433675622,85.35781626564705L85.43489700711638,87.0682711603316zM89.90259077483393,88.27132455338017L88.83289376421097,90.66758224693217L86.88589908853612,89.82534993657788zM0.8892427994545147,-1.7207192743202184L2.946257219510531,-1.6509394355146823L1.590195422829826,0.8881427068214565zM-1.0689519119716602,-2.081416185679624L-1.4494152587618658,0.7956456323512084L-3.2404632774598734,0.045531528216075146zM1.290375728273676,-0.498623500371714L3.368446856584099,-0.32273489481677137L1.1000078633356245,2.061597420300825zM-1.6238794376351777,-0.9391996267389735L-1.01103089109254,2.010249115153822L-2.790785113067154,1.4124665145985955zM124.94045281773951,-1.7280153918423822L127.33550235209191,-1.597615300467358L125.47838668063825,0.8421146892962961zM122.92503470316497,-2.120518741630595L122.35678455674314,0.9242703553885268L121.2879967005733,-0.04399063887027238zM125.26205261518903,-0.4989933360075821L127.72384027784409,-0.2867743205848265L125.10158396383505,2.0260066817047484zM122.21237992443493,-0.9776862335389394L122.95209928668065,2.0975794774816587L121.73847175576434,1.3636227590707244zM0.9207518270823869,-125.52401539710962L2.815971829698868,-126.24129833042986L1.6889717850136172,-123.04684868414881zM-1.0309065978624616,-126.05802945051276L-1.5393159536867986,-123.08780543344966L-3.188607896644139,-124.42305054982477zM1.3376402800188059,-124.26007043338335L3.251436488984448,-124.93267567202209L1.1697536791901455,-121.89566127815708zM-1.5822360819996963,-124.89016039173947L-1.083432051564552,-121.92569502584732L-2.7600273082306237,-123.0292749880746zM-86.79289123984182,-89.17826356184848L-85.15225677635371,-89.85914205286345L-85.90534871810843,-86.72230256440037zM-88.73525014798102,-89.72705535630092L-89.10998450038947,-86.85380717903838L-91.18978797592173,-87.9355686658719zM-86.31665798674467,-87.93591288619405L-84.69117484795531,-88.54778108622747L-86.50952889320544,-85.55225917856502zM-89.18517738164867,-88.54623846078461L-88.73626256061605,-85.66299067584097L-90.78044767562896,-86.58344703645986zM-123.16685472721935,-1.708691967098572L-121.47281831892904,-1.7054775890041276L-122.26327792073153,0.9306535530892555zM-125.08601428965638,-2.057063025840703L-125.35604969396927,0.7143499581893196L-127.64541287324253,0.10247404253904305zM-122.68543106797898,-0.49853022778688855L-120.99901051784343,-0.3646133461912164L-122.885374374659,2.1033825990904447zM-125.50738238698521,-0.8961118183204165L-125.01828688469192,1.952837099712382L-127.22867257879254,1.4267907216214786zM0.982603239822244,122.07669187116592L2.996351702015728,122.9871227860633L1.4467404999569,124.78131574843218zM-1.109013756413324,121.9036261856544L-1.3612910114445893,124.5749928611611L-3.288525680335486,124.609788336747zM1.3678717825110538,123.26565416538224L3.3833985196016747,124.31694611870853L1.0075601460806711,125.98628514969641zM-1.6550894365940942,123.0217214394132L-0.944999116970122,125.8798952505887L-2.8256068882306558,125.91054572168639zM88.64447052144389,85.84467522497613L90.94741572278001,86.48525542025683L89.11000137366979,88.46274552785248zM86.59139266732498,85.57282954763221L86.22529357757355,88.42179901217825L84.70067548300689,88.04132459117608zM88.98111665235123,87.04479823042574L91.32396188348746,87.79737077876167L88.72994408845354,89.67426219202379zM85.94454987375293,86.69444755962728L86.72564469258838,89.65828828386084L85.18030216796265,89.40697233562418zM-0.141851356482539,-2.7809675785908543L-1.4849926132988684,-0.44888422770261016L-2.9234394594846678,-1.4040420526956225zM1.2478251760419712,0.7932879204002197L3.098913286686604,1.0186696252643934L0.20354496653749943,2.8219363133244744zM-1.871972835559013,0.33571829954390714L-0.16519929560730046,2.822934948548407L-1.6029693265971852,2.3853825823993495zM124.0349938826972,-2.7734192636966357L122.1923834125953,-0.3584826681280884L121.72606808662198,-1.5019919271643634zM125.23477572018754,0.7769083645923714L127.43465588359423,1.0344146121495654L124.38458063666485,2.8225708822471507zM121.95810963555542,0.4113846057781839L123.9991131181855,2.829410728740528L122.90636459967614,2.3032404959729513zM-0.151460471011216,-126.91484434871352L-1.5553035680607727,-124.39286579115249L-2.843519390194086,-125.82991253030372zM1.3479779363470996,-122.98318821722066L3.005073385789667,-123.5988022979751L0.1972321071293079,-121.28784443699577zM-1.9811090005136756,-123.64879863965122L-0.17413479417930539,-121.29817876639079L-1.4848976630705175,-122.01271557464695zM-87.96666834031151,-90.57538004234283L-89.11811813487101,-88.13367841487828L-90.86549112257102,-89.32482957025547zM-86.32530480512044,-86.63245674039965L-84.92017238981693,-87.20407336585076L-87.60423354428404,-84.92957020324803zM-89.45356634002057,-87.37119641264086L-87.9779032523437,-84.93725782280009L-89.6086660338867,-85.54750410255491zM-124.3386641154505,-2.8122267955843827L-125.36590362238394,-0.5371646675852648L-127.34944450261219,-1.28450239581944zM-122.74533890874183,0.8082999585407638L-121.23881130781685,1.0022140054472684L-123.9692951653558,2.8233798950010556zM-125.69064014752614,0.31427836982011204L-124.34644406685476,2.8269466224679354L-126.10678605456314,2.4028108382036164zM-0.14071631976739418,121.34404114834567L-1.353349495278425,123.30092619501748L-3.0562176142202553,123.22486760882838zM1.2848993294304445,124.5955380695096L3.082749171349992,125.64597967115455L0.18263492848563834,126.89610492950557zM-1.8066318040690057,124.33932415464507L-0.1498619464533013,126.91082791138271L-1.6836477072411915,126.79761257564452zM87.68023182915798,85.02121173526147L86.08282229569463,87.27133196485693L85.0866566143688,86.47355660938004zM88.92530845847448,88.35270508991412L91.02270828095976,89.11548187214119L88.0022608583193,90.56570106542127zM85.75739002850885,88.05110849979334L87.65050474126681,90.57189262368233L86.35195794094831,90.3210288755035zM0.0818916398534838,-2.549175449826258L1.8620083218823626,-2.6432743491565933L1.6962414960276522,-0.35158603150881224zM124.2826500014061,-2.5820882460074492L126.32070021477217,-2.5893978479281756L125.54052005276577,-0.37254973655603885zM0.12033344252410766,-126.47650693957591L1.75242847886986,-127.19710161711022L1.7673795363695308,-124.37415608498617zM-87.69576484926408,-90.07025812060033L-86.24512657355693,-90.79929117157138L-85.81896128790297,-88.07448070680746zM-124.11607293328083,-2.507200744893108L-122.6275102861888,-2.659574377080805L-122.12000413394743,-0.3772607085177506zM0.16454703384670022,121.3619078345902L1.8989346279319628,121.93107543572401L1.5766597959848356,123.66670971037475zM87.94002530660285,85.08047552516464L89.93749774593036,85.47657971845862L89.16261257371777,87.29890309437259zM-0.4350963203825492,-3.1643460096657794L1.8405214151868938,-1.9061267095955712L-0.5275370432754918,-1.7155798006000862zM0.4562451278887312,-3.1911031754971138L0.43420531428790315,-1.4011978470075173L-1.7683384937054867,-2.193751497356806zM-0.5155365576826639,1.6486461607253167L1.8636971799536848,2.032818790329082L-0.47027257074216794,3.1045875688070383zM-1.7992633166093144,1.8819425034184398L0.9141741344094427,1.8682987188532543L0.007201130671019129,3.035811297589743zM124.13711889222826,-3.1292637136625654L125.97524411229851,-1.858811334175108L123.32489006641292,-1.7979774720237633zM125.10947166755005,-3.0087304942854303L124.17494423933402,-1.43547943534935L122.39706106099791,-2.3418425902266566zM123.333862584401,1.7129807229326959L126.01161013426587,2.0166447564720067L124.09178035227282,3.056427040456734zM122.34301079764111,1.89808678081978L124.87815792417157,1.7473066763031893L124.4603082460693,3.140659062738467zM-0.3908844100175547,-127.56437201401326L1.8052997192931783,-125.98337657856372L-0.5365272577467708,-125.79766894669535zM0.4344994610873404,-127.56166151407304L0.41852085697349617,-125.45509266141191L-1.730908369589689,-126.32866336378738zM-0.5132646004582075,-122.38970926278031L1.8709926721729202,-122.11452340567644L-0.4798400201858598,-121.2690798310927zM-1.8571861160132195,-122.17896980498108L0.9959793277256702,-121.93864433038308L-0.01668126324130348,-121.65569836418528zM-88.46630306056267,-91.09837370908079L-85.9602709811138,-89.66998621545567L-88.13487282757524,-89.45702751610557zM-87.66277568200987,-91.15582794733913L-87.12521645611729,-89.1965327933916L-89.52923083418224,-89.87302669991129zM-87.92324805172984,-85.94779226725892L-85.91824836614452,-85.74834745098629L-88.71995045137733,-84.95714268267395zM-89.62333468087874,-85.86745759160127L-86.7479611705485,-85.65962368741982L-87.94592712088215,-85.12620112189806zM-125.03775771379541,-3.0805700580569395L-122.30132374423917,-1.939964772498903L-124.3423955098474,-1.765517689305594zM-124.20725441438327,-3.1657223572229616L-123.30766766805665,-1.5921656507662452L-125.92233098849977,-2.02816451187223zM-124.34406046012914,1.7072631115048411L-122.28549669221782,2.045638910117881L-125.05191981553503,3.0331504982387147zM-125.93479547834822,1.857527379207268L-123.12390609630211,1.9425565181633497L-124.37855149628936,2.985968622490819zM-0.47226668302009167,121.25155429996381L1.8662945949208802,122.15019685107531L-0.5161398603719359,122.37156134851033zM0.4744690029447714,121.18341530613262L0.4492959354877185,122.64981349615887L-1.8016529899613423,121.94008369725796zM-0.5141127802195035,125.68700746870691L1.8493090362394844,126.1828511987266L-0.45730820449112825,127.47555887183883zM-1.7649105243882912,126.0300053077667L0.8091560364540542,125.79517959855013L0.07786643640538438,127.5202326329555zM87.74821673316927,84.90400356773898L89.64377613356635,85.83903139126464L86.92523010557377,85.91024744191553zM88.77421689949459,85.00887102168095L87.79322307301688,86.19389244950554L85.99400689674023,85.45051892973267zM87.10044273186344,89.37776876132234L89.63860731712077,89.80445415048386L87.57817292332518,91.04316452883582zM86.00025273057746,89.68722890427394L88.49184911325874,89.42500862792615L88.0693450254155,91.11314990844194zM2.2392943243572447,-2.177518548312676L3.0522441856510243,0.7272150972512688L1.101734459255268,0.20702647316030343zM-3.1421994182300517,-0.47515733186558606L-0.9600847214450934,-0.4049997072302663L-2.290988829588392,2.123434016996956zM126.63968418770651,-2.1349829410573076L127.4082141466522,0.6678769161388218L124.97781632924631,0.22382904701738138zM121.16720659603308,-0.46876952803162175L122.92585440049824,-0.4573291681765555L122.14610772854665,2.1693756741092804zM2.202538091751116,-126.52098170890886L3.110184944705725,-123.7689410660861L1.0805499328066959,-123.58579589724769zM-3.045958380439688,-125.03153833799307L-0.9108852218606648,-124.07253659005845L-2.4364293669631842,-122.28508978838892zM-85.75740243209425,-90.12160459553672L-84.82999111797236,-87.2514736905102L-86.51034142983062,-87.36120664101497zM-91.00668627074289,-88.52027893646638L-88.53749845649766,-87.84769784132558L-90.34009619118373,-85.87975419346773zM-122.20320420118125,-2.216038200615646L-121.34801931524392,0.8260509030627248L-122.6879452086528,0.14671031965181702zM-127.45787068978173,-0.47893047216816353L-124.87572537363256,-0.3524883357403968L-126.69211860019072,2.0746957858096637zM2.2853262151577343,122.1751819530623L2.975517003422333,125.15811312147197L1.1324297506834693,124.05586964190616zM-3.1177094416342794,124.07697048238327L-1.0894116352178413,123.30887746874886L-2.1861518924114165,126.48987072111052zM90.24403695256467,85.7921256851728L90.94661660089103,88.67082352682323L88.69362736496858,87.78478175926367zM84.79041303853188,87.67830289737593L86.52114499711044,86.96525901269459L85.7861769442549,90.09072301699138zM0.8185938685599448,-3.001887042860838L2.978195795469284,-0.7225456730586178L1.1188826916090975,-0.9125022364976683zM-2.5853864141004945,-1.7410218795766705L-0.636782662452501,-1.5602166096444394L-2.936780256986434,0.8177224862076657zM2.979445431888647,-0.8263007328987125L2.384286165550961,2.0729396024418407L0.7952177360998216,1.2368771334703155zM-2.9932577691914424,0.8789209801813784L-0.9000114703409752,0.7522051034716342L-1.0224031161059082,3.0058088687641114zM125.28592774915434,-3.0022573667988004L127.3172242727185,-0.7587877960981346L124.99182675525181,-0.8758897895201891zM121.72856458066352,-1.744917662725079L123.34771518134401,-1.5996275040703027L121.44407732593939,0.8610291637819378zM127.33387060953184,-0.7955950075915388L126.78029184283923,1.983761968939576L124.72409330265467,1.2953490416654065zM121.31466580814785,0.9005073929624308L122.96174947192716,0.7375113899774175L123.487218785773,2.998916169477276zM0.8479124322424434,-127.3329216695202L3.006414241825401,-125.19380664806559L1.0613456815704816,-124.78951305631773zM-2.5078454279496225,-126.27942564107377L-0.6228929915253589,-125.27254826756193L-3.028210914064448,-123.61084851586413zM2.9384236806268933,-125.19278834274333L2.494336192857175,-122.43177640047293L0.7261894600553617,-122.57122567525668zM-2.9007422514750782,-123.70192401923804L-0.8636601418287404,-123.02619725059895L-1.1512699623345075,-121.31425019923226zM-87.14545275790022,-90.9047997349756L-84.91354237198185,-88.71627783050674L-86.54947884025758,-88.54000371271277zM-90.4622431347894,-89.77261160788181L-88.29300450456647,-89.05198344540995L-90.92784801996152,-87.18306727549967zM-84.98918338999906,-88.78994802009652L-85.52364855901969,-85.84537603195461L-86.85236504321979,-86.40530627071344zM-90.85572843190795,-87.18752111180243L-88.4359400051758,-86.73987480767667L-89.14815024433254,-84.95981545388179zM-123.65059640866995,-2.9595129230315935L-121.37572534160775,-0.661748961166135L-122.7373123155703,-1.0156730682193955zM-126.90279079653172,-1.7387228517248312L-124.63312290071111,-1.5251433092850835L-127.30234205778291,0.7803501579964706zM-121.40408322549051,-0.8771064035780846L-122.11240654092352,2.188203324726819L-123.0038673215329,1.1724190818647093zM-127.30817738239378,0.8667009617136963L-124.79290782366031,0.8055938027045484L-125.49389357107056,2.9646401879988793zM0.7420200161957666,121.34304250069206L2.9238432878299907,123.71405416814726L1.2498090516125686,122.98527480022993zM-2.5369749084259303,122.80328148202119L-0.753098239563979,122.18044060264789L-2.8688761855495204,125.21206833380386zM3.019704100725257,123.54979105614078L2.2933711065233275,126.47518184099955L0.8458741262908451,125.1378495273595zM-2.9725140803434313,125.45123829132643L-1.0085092195393042,124.55010781089365L-0.9346490557555904,127.31489527168344zM88.82537105578454,84.90652877044765L90.87247014956431,87.23594734372467L88.74197747606743,86.74473525918856zM85.37489535985992,86.39880904143286L86.91601232068045,85.82566281906755L85.07428931169817,88.81615846226417zM90.93965466870972,87.14485370539289L90.29525448561745,89.9880129279683L88.44818650499022,88.87479569543024zM84.93675812616215,89.06057780135315L86.60575644108505,88.20832337596026L87.06595940289245,90.8921801008817zM-0.9385132005091058,-2.8220555264373335L2.2207834450266444,-1.9503434537305593L0.838894784912418,-2.0179517810136387zM0.9662753249703968,-2.691033131661044L-1.5885964196772324,-1.5350227301998227L-1.4988439347231206,-2.564294899320664zM-1.4432321231105403,-2.5575595974324408L0.06777339769647595,-2.372867027372467L-2.899125253419572,-0.6166471584755195zM2.9608061484937247,0.6798787058708118L0.9063096852943175,3.006697165629604L0.40746814504559403,1.8604979117800116zM0.8254397451641271,1.923252471742928L2.2345875718133206,2.0648608682232847L-0.938862287547491,2.802237421215318zM-2.220325756724497,2.0078874321101305L-0.7494436154892536,1.8116133089908475L0.8486043427837942,2.9708500200805528zM123.41350440211167,-2.869020537649874L126.55017559434083,-1.9627665134451318L124.96500912982472,-1.9585637100865254zM125.29496311068021,-2.733372237670963L122.35815579372324,-1.7604135350513737L123.03324016301387,-2.296564988459194zM122.87861823153564,-2.565764334093257L124.21005703337714,-2.3873234442117814L121.44426485310085,-0.5939860049753882zM127.29866359353518,0.7034102901197594L125.45003669574797,2.9495685515927317L124.33340778639773,1.8940949415679365zM124.9544059956859,1.8831893401971511L126.56222815943714,2.063143324530936L123.41205497115418,2.8440180964534436zM122.10198871403183,2.0303002747517054L123.3495624116235,1.8783457750687462L125.234807941762,2.8817047113610794zM-0.8776581116397857,-127.25060979529391L2.2254008493009514,-126.38066417236377L0.7734222917687906,-125.96660089037118zM0.9311591656201652,-127.09441853031731L-1.3862791585929166,-125.55656858869338L-1.6660450364572048,-126.94688773901817zM-1.3952620378320681,-127.10278263454302L0.050642505965463935,-126.22518626305998L-2.929964446967032,-125.02662898252477zM2.942470057020865,-123.68362253628665L0.9223457341032053,-121.32179356846366L0.409768187709566,-122.25503420881657zM0.9226802445825704,-121.8436583919653L2.1712821102667834,-122.54120786806129L-0.9727973254193973,-121.6323070756392zM-2.183594637091417,-122.4958093662706L-0.9219450084134442,-121.72660434635235L0.9843746160749045,-121.79475962304285zM-88.82523333925835,-90.78530226129332L-85.6867498111228,-89.93546668204722L-86.98166176173831,-89.68439175939044zM-86.98709113834435,-90.68872344601378L-89.01347407413296,-89.18504227544636L-89.73540975850204,-90.53139498127084zM-89.34065503732403,-90.59248567144847L-87.71070160296674,-89.97819392752359L-90.83803728009227,-88.5912041258578zM-85.00139612287515,-87.31700438393683L-87.2408002170742,-84.9558174051233L-87.09802962276643,-85.79491436920888zM-86.86263109077804,-85.48349358630928L-85.74802556502763,-86.14052540641939L-88.88298825631378,-85.20044018763924zM-90.12318105843423,-86.01421994220814L-88.65436521318944,-85.68043597105158L-86.9584286993557,-85.12980326710819zM-125.28152564301766,-2.7841562956975285L-122.11005413948665,-1.9317076636328627L-123.29477928491302,-2.0744868018511395zM-123.37723214156674,-2.7253730745513183L-125.29094145070174,-1.4720326196657507L-126.26051553400875,-2.5929450669644623zM-125.76616095739183,-2.5525776077665494L-124.0763743894986,-2.3578208756075654L-127.23957272879045,-0.6366752999063128zM-121.40106162944853,0.61791493186151L-123.64662328593444,2.9613584310553547L-123.48525520263065,1.9678004203635626zM-123.31269824009536,1.949902142026294L-122.09296367093367,2.069754998457195L-125.2806971563883,2.770693620698042zM-126.53837281767365,1.9786507733368648L-124.78626609797426,1.718221813030068L-123.60405021062931,3.093478174814598zM-0.9783020956480535,121.6436261746106L2.1972929176845977,122.47134866340832L0.902174207393412,121.90219849764688zM0.9337986246627668,121.5173536309855L-1.7883881042761036,121.81836750513772L-1.2665755498166194,122.68145219954259zM-1.3692119338316742,122.00883325412956L-0.02580745082790603,121.48818675681133L-2.879564594174056,123.76343030262599zM2.977896564113076,125.04940518379735L0.9008408649181184,127.33454929990731L0.39584654980244166,125.97064339642311zM0.8144626896710885,125.76482658575503L2.1913554305784544,126.66723982072561L-0.8846530908195862,127.16580845154822zM-2.1739452528529313,126.56584523112798L-0.6815346803379907,125.65155476370715L0.7343149037609655,127.38047486319373zM86.94955056525332,85.15865899832565L90.12341987205309,86.01370769548424L88.66300453367295,85.65209248655802zM88.8691389405951,85.14424551170274L85.92303361660039,85.70654425264222L86.70147235492395,85.97366941602296zM86.5491091445658,85.60500780697303L87.75097339971977,85.10523432471606L85.0401434184302,87.35749402657991zM90.89234590278764,88.63884734766471L88.93880484519319,90.90108178295571L88.0582431724022,89.62195459420944zM88.56514274692648,89.49128598186716L90.13663050373616,90.13253172645382L87.03420172031672,90.78134299441zM85.74173582894915,90.18082596623523L87.03920352054259,89.31693339437129L88.71270556262772,90.90740134212446z" style="fill:rgb(255,0,0);fill-opacity:1"/><path d="M124.32770056905103,-1.4960208363893307e-18L-4.158544503965279e-36,-4.7889288288549073e-32M-1.4960208363892825e-18,-124.32770056905103L-4.158544503965279e-36,-4.7889288288549073e-32M-87.91298829917405,-87.91298829917406L-4.158544503965279e-36,-4.7889288288549073e-32M-124.32770056905103,1.4960208363892348e-18L-4.158544503965279e-36,-4.7889288288549073e-32M1.4960208363892825e-18,124.32770056905103L-4.158544503965279e-36,-4.7889288288549073e-32M87.91298829917405,87.91298829917406L-4.158544503965279e-36,-4.7889288288549073e-32M139.66145030590064,-15.333749736849628L15.333749736849624,-139.66145030590067M139.66145030590064,-15.333749736849628L15.333749736849624,-15.333749736849628M15.333749736849624,-139.66145030590067L15.333749736849624,-15.333749736849628" style="fill:none;stroke:rgb(0,0,0);stroke-opacity:1;stroke-width:1.5;stroke-linecap:round"/><path d="M14.83316529233632,-14.833750078425133L140.51571248692403,-14.980906560499918L14.980072000339542,-140.51429314067485z" style="fill:rgb(119,236,158);fill-opacity:1"/><path d="M-10.842601775174527,-150.5040520810752L-98.75559007434856,-114.08933981119822M-10.842601775174527,-150.5040520810752L-10.842601775174527,-26.176351512024162M-98.75559007434856,-114.08933981119822L-10.842601775174527,-26.176351512024162" style="fill:none;stroke:rgb(0,0,0);stroke-opacity:1;stroke-width:1.5;stroke-linecap:round"/><path d="M-10.38023318451691,-151.1953934349616L-99.57239247218827,-114.25023763126751L-10.48816796799244,-25.324112338068467z" style="fill:rgb(119,236,158);fill-opacity:1"/><path d="M-114.0893398111982,-98.75559007434858L-150.50405208107517,-10.84260177517453M-114.0893398111982,-98.75559007434858L-26.176351512024155,-10.84260177517453M-150.50405208107517,-10.84260177517453L-26.176351512024155,-10.84260177517453" style="fill:none;stroke:rgb(0,0,0);stroke-opacity:1;stroke-width:1.5;stroke-linecap:round"/><path d="M-25.322798312999858,-10.489486070473683L-114.2537918863562,-99.5720048831878L-151.19315320494147,-10.379302671036156z" style="fill:rgb(119,236,158);fill-opacity:1"/><path d="M-139.66145030590064,15.333749736849628L-15.333749736849624,139.66145030590067M-139.66145030590064,15.333749736849628L-15.333749736849624,15.333749736849628M-15.333749736849624,139.66145030590067L-15.333749736849624,15.333749736849628" style="fill:none;stroke:rgb(0,0,0);stroke-opacity:1;stroke-width:1.5;stroke-linecap:round"/><path d="M-14.83316529233632,14.833750078425133L-140.51571248692403,14.980906560499918L-14.980072000339542,140.51429314067485z" style="fill:rgb(119,236,158);fill-opacity:1"/><path d="M10.842601775174527,150.5040520810752L98.75559007434856,114.08933981119822M10.842601775174527,150.5040520810752L10.842601775174527,26.176351512024162M98.75559007434856,114.08933981119822L10.842601775174527,26.176351512024162" style="fill:none;stroke:rgb(0,0,0);stroke-opacity:1;stroke-width:1.5;stroke-linecap:round"/><path d="M10.38023318451691,151.1953934349616L99.57239247218827,114.25023763126751L10.48816796799244,25.324112338068467z" style="fill:rgb(119,236,158);fill-opacity:1"/><path d="M150.50405208107517,10.84260177517453L114.0893398111982,98.75559007434858M150.50405208107517,10.84260177517453L26.176351512024155,10.84260177517453M114.0893398111982,98.75559007434858L26.176351512024155,10.84260177517453" style="fill:none;stroke:rgb(0,0,0);stroke-opacity:1;stroke-width:1.5;stroke-linecap:round"/><path d="M25.322798312999858,10.489486070473683L114.2537918863562,99.5720048831878L151.19315320494147,10.379302671036156z" style="fill:rgb(119,236,158);fill-opacity:1"/><path d="M0.9406937476198101,-2.817166062813283L-2.2202198078807287,-1.9466541168315719L-0.8441255279898248,-2.0326213820852077zM-0.9673800141688211,-2.6902606875611794L1.609028042323394,-1.5541416264973322L1.4820035600961705,-2.55203924767155zM1.442707510771264,-2.548802814265519L-0.06368480838849105,-2.3904431661053835L2.8980478352716506,-0.613918603458056zM-2.959892050270673,0.6779129736795929L-0.9030553346161397,3.006794572909524L-0.41412315276761075,1.8684570372398417zM-0.8306164206437316,1.9431888215490458L-2.234152838805233,2.0542248662533633L0.941117671198221,2.799027873927653zM2.2205499636521835,2.0002419530638904L0.7601028711416511,1.835370697365873L-0.8570012465430907,2.9608289113002986zM125.24474907695296,-2.8640958847264244L122.10560852105311,-1.9597393621243322L123.68516744296618,-1.9726063148793056zM123.3603731713829,-2.734771150959169L126.30808336356779,-1.7826953301196995L125.61437168252303,-2.2789750806511937zM125.77554801017945,-2.548694370181462L124.4511312282652,-2.4145033080895826L127.20956792843273,-0.5899669055579138zM121.35729357749334,0.7020314890916475L123.20416794005666,2.948937646356656L124.32064457401854,1.902195448380655zM123.69592965223731,1.8999231558874015L122.09346602010466,2.0559705747066075L125.24612936863028,2.8405478311360532zM126.55339409417881,2.014071278216442L125.3170205278337,1.9142679595965373L123.4124135954612,2.8681023239170833zM0.9790756533449436,-127.00589066446413L-2.1959675235475107,-126.1803742161464L-0.9067597180481763,-126.76935331034255zM-0.9334710728153427,-127.13613187720505L1.7791975924253634,-126.86549133361316L1.2779250686407226,-125.95399498013488zM1.3641428743706532,-126.63763696424985L0.034192897720705606,-127.18442773612688L2.8787347655630646,-124.89027651267527zM-2.9772344712968697,-123.60784024400216L-0.8985992838861918,-121.32080701325077L-0.40123678247136163,-122.6773647881411zM-0.816656553838993,-122.87833854600703L-2.1933968175583445,-121.99381519971517L0.8864017831465938,-121.49058132177076zM2.175981323041265,-122.09428421140352L0.6846474899632966,-122.99222230614313L-0.736977224753818,-121.27622854994631zM-86.93665054117488,-90.61008151122934L-90.1102358156144,-89.76921438542205L-88.94023114022144,-90.28061157383873zM-88.89394605625615,-90.56965348926701L-87.0758186614999,-89.76431058869113L-85.77004960275319,-90.32594339253197zM-86.50155617911837,-90.32766552881091L-88.06599071572563,-90.58367337761321L-85.01884847626157,-88.50529158616487zM-90.87175295435311,-87.23746662907635L-88.68490949028867,-84.9200903250745L-88.58387400177261,-86.15274437078023zM-88.88704249914882,-86.38733333222936L-90.10079468397183,-85.56396681720388L-86.99928031389008,-85.11572419759673zM-85.71150629097096,-85.8006397951633L-87.42945281854314,-86.45436051207854L-88.59885521099514,-84.81202403978813zM-123.37216214506276,-2.7792803025534223L-126.54444075319421,-1.9270070358321751L-125.36622531921675,-2.0901542233444648zM-125.27995961532199,-2.720737680673087L-123.36125657302405,-1.482034003446863L-122.39430885262621,-2.5936698776101124zM-122.88954086978015,-2.5467063954045064L-124.57591022378617,-2.3719666479843613L-121.41665499800223,-0.6344915404400912zM-127.25203467738818,0.6143889648428622L-125.00264700061534,2.9584928526768692L-125.18156548887386,1.980282766309227zM-125.34859048992747,1.9792730205668085L-126.56159491739129,2.0491892794497026L-123.37264281015496,2.7679792617135512zM-122.11681086481431,1.9735846003827784L-123.8586053911986,1.7351662037193467L-125.06010878495934,3.087690757627937zM0.8800063861754516,121.40783501348403L-2.2255765222582777,122.27794361450614L-0.778081452167917,122.67695643950279zM-0.9326843601602253,121.56400438730897L1.3962539147933062,123.0896830725L1.6600820336176625,121.709047607684zM1.3977055605719382,121.5567895522056L-0.04951073121689964,122.41764100435583L2.928875708299385,123.63158148883261zM-2.941234079092712,124.96960014227321L-0.9164840174402696,127.33395627486257L-0.41935244112144165,126.40878479591622zM-0.9296582074532485,126.83303668355677L-2.1667653980064636,126.10408929768133L0.9727720172089684,127.01849220971499zM2.1801139410604042,126.15310174957101L0.9260595366282762,126.95850387663234L-0.9825218894379368,126.84401256474975zM88.78927124658054,84.98831916076476L85.68676427209456,85.89307694308232L87.26377880183415,86.18562824318289zM86.95927691474992,85.17745496115218L89.64970837476619,86.50383762659419L89.37813220749462,85.3857317592836zM89.31007151094968,85.12651035821396L88.00077252027779,85.9418184901803L90.82969241518693,87.24197247653682zM84.9550966587273,88.58667247136557L86.76846552644925,90.85016645949136L87.86283318592902,89.97979156173206zM87.15870783022153,90.18802828092376L85.70282609718961,89.81119984383119L88.8782803930981,90.66067934573516zM90.08238951744633,89.71002365062682L88.97628278215059,90.45666227486319L86.92844519741381,90.4932215450001zM-0.8140631022843053,-3.001214680358446L-2.976861718639813,-0.7188318910829179L-1.132207241595734,-0.9229792059667168zM2.5859798980555064,-1.7362743389582453L0.6464590666131256,-1.5737458148103556L2.933970075752324,0.8204133257642001zM-2.977808722648035,-0.8280252383636129L-2.3838928469253613,2.073347860234745L-0.8047074708475592,1.2442842061332686zM2.9928914075209,0.8737533072640763L0.9098989939963376,0.7625363487751966L1.0203416610026148,3.0067361213688075zM123.37184356006519,-3.002579412724088L121.3389145334622,-0.7560988787389198L123.65449877814882,-0.8843474859450726zM126.9277606667676,-1.7356793168945899L125.32031115305925,-1.6184807230502491L127.20672615479013,0.8645532119404383zM121.32271809161635,-0.797071502685603L121.87451926831055,1.9827774571102308L123.92474253384822,1.3039008735797726zM127.34031746035689,0.8907382235703207L125.70823421359489,0.753460546163075L125.16296932276411,2.998827007674685zM-0.7334513032417709,-127.30962445734822L-2.9213904931975394,-124.93767856783633L-1.268290266080542,-125.68411168641964zM2.533589763858391,-125.84560916700572L0.7666263405321628,-126.49137471899931L2.8661929360304024,-123.44101187619547zM-3.018257569526926,-125.10758005491137L-2.2916436240497253,-122.179119640581L-0.8565078468443049,-123.51208241069932zM2.9729990682565384,-123.20451437645234L1.0179337780728044,-124.10038483661384L0.9321992161905095,-121.34046394372183zM-88.54324878726294,-90.84736979535535L-90.82021636471121,-88.50305347015212L-89.51449974463827,-89.24743534599322zM-85.34682442784286,-89.52546975176486L-87.44766936845872,-89.84651477106831L-84.99392999737007,-87.07245513926384zM-90.88439652102197,-88.74760118667649L-90.12463727333544,-85.72329190799903L-89.11220808015612,-86.99433291141271zM-84.92490119594876,-86.90449061056542L-87.24613422550287,-87.47900474466466L-86.86066535012112,-84.92831170145446zM-124.99862951875457,-2.9565598248712766L-127.27680449487023,-0.656229131659974L-125.93608698309109,-1.0302368208768304zM-121.75220432099057,-1.7355308064965242L-124.01483660326473,-1.5365866755271766L-121.35493896951982,0.7825106540193001zM-127.2479284752473,-0.8797287760195556L-126.5376738378175,2.190370758422844L-125.66919566155218,1.1789648456011124zM-121.34766098227658,0.8630670613325608L-123.85632024500156,0.814822492290091L-123.16127564439807,2.9651362237854286zM-0.8452851775835358,121.32270691651696L-3.0062889342799375,123.46411007711369L-1.0715579506563788,123.85854616315736zM2.5086069001146267,122.37645883642578L0.6312009172184967,123.37546755620549L3.0266012230878325,125.04685571356042zM-2.9365172811618527,123.46101216717999L-2.4957988642041173,126.21951445467367L-0.7340928950549859,126.09746914034685zM2.8968008430417633,124.94640656063127L0.8785947595136504,125.64134852549276L1.1477364599644384,127.34365962548016zM86.99659901920404,84.90672654195104L84.9094388461514,87.08167693952602L87.12566290621731,87.32340357520748zM90.42504561899929,85.94719686172861L88.79659687596613,86.83300830616338L90.8995993795481,88.68502083819624zM84.94320205053566,87.07673972815685L85.42006090594712,89.81276928842728L87.42516083718887,89.55493064551288zM90.83412044512218,88.54247565710035L89.2767111953982,89.11415339214622L88.76713325609204,90.94122956225412zM-2.236767264468451,-2.178715432972618L-3.0510278160244146,0.7293751838627662L-1.1154241837317038,0.20606327120874793zM3.1426241569186217,-0.47501799157872127L0.9721689419335127,-0.40653897385493826L2.2884261653724356,2.124833943334763zM122.01707587042371,-2.1359369767300036L121.2476072396554,0.6689292128185429L123.6678486046531,0.2237307860103566zM127.4889427105607,-0.4684912355361825L125.74517482398167,-0.45894330541933837L126.50485270863892,2.170711518856624zM-2.2823934382073503,-126.48200320989645L-2.9730804640302595,-123.49478416201114L-1.1477453619869604,-124.60224058495032zM3.1166265488931844,-124.5748083320609L1.1038989477797596,-125.35326933916537L2.182693767551626,-122.16439632982943zM-90.08149356747856,-90.11789279111261L-90.84688804005182,-87.04412818327505L-89.46316052417137,-88.06957887099067zM-84.77782780624624,-88.26106449921632L-87.16882297141716,-88.6970719526252L-85.63845282558924,-85.78690943773462zM-126.44702375521327,-2.2170711211653633L-127.30331486833663,0.8303118388957789L-125.9886316196314,0.14348230436848036zM-121.19731371303911,-0.4788654266255428L-123.77059214353514,-0.3536181076389982L-121.96462585815796,2.0757605121656444zM-2.2003421421334743,122.13358592369138L-3.1102251605876075,124.88619738387145L-1.092651961503488,125.07269069349286zM3.0438489519983993,123.62035461218318L0.923343445154444,124.58717107908001L2.4360268670717264,126.37150226559473zM85.65351903694473,85.7456589132136L84.80789136042009,88.49962936060767L87.12369320588782,88.49975761575486zM90.96409118354123,87.19530324501447L89.17895599833089,87.99830313572103L90.24849494982963,90.03799346464282zM0.4368456083536101,-3.161107502051595L-1.844306317458377,-1.915936283463115L0.527086098755127,-1.7237132449551806zM-0.4570341614825926,-3.1893340712916296L-0.43504176160337815,-1.4112822612021874L1.7724505334356104,-2.200140697976074zM0.5154736865197524,1.6586928024496514L-1.8666065346626213,2.0392250483002394L0.4707582377932291,3.10283917972zM1.803649090736555,1.8895951698989772L-0.9180326422425591,1.8841390984309916L-0.005241838144356303,3.0270227621399224zM124.51576050584401,-3.122938492910403L122.67632053965151,-1.869242870482475L125.33587467635284,-1.8085756670770126zM123.53949289365505,-3.0015573828352027L124.48573924688077,-1.450205879753319L126.26347280201183,-2.3489937678813693zM125.32762436028683,1.7258312731325625L122.64125430920926,2.023387891892484L124.55907705235228,3.051537865444844zM126.31644490190469,1.9044464243119363L123.77313369921094,1.7613364956100335L124.19912634143202,3.134974110547921zM0.4735246540822567,-127.40005376647046L-1.8695127479041493,-126.51602451138446L0.5156134834722529,-126.29300908481302zM-0.47510089451329485,-127.47007217479272L-0.45014621302079816,-126.01694589358986L1.8056217178837324,-126.72206929428536zM0.514147024803915,-122.95952055457128L-1.8524455625739955,-122.4666048905906L0.45792392742044097,-121.18144785656628zM1.768645571383018,-122.61963813128924L-0.8120130150255869,-122.84914450524234L-0.07625794600779134,-121.1387906651966zM-87.09541860529843,-90.87738531048252L-89.90438037061561,-90.03605435919282L-87.92021987064514,-89.92696159700417zM-87.98297041957181,-90.9492241764152L-88.9564330825075,-89.8169553422722L-86.21986612378059,-90.07422174799211zM-87.70489444199254,-86.4484305746689L-89.89816496012408,-85.98640567293671L-87.31695944444257,-84.8040509581341zM-86.27774067388295,-86.17885814589337L-88.98123030725625,-86.2678083312854L-87.9002986447207,-84.79222072856095zM-123.61037365812182,-3.0742593004055156L-126.35800570224724,-1.9492162549136243L-124.3203255821786,-1.777281475150751zM-124.44356419531307,-3.159696450997581L-125.3555236402026,-1.6083730244834955L-122.7288678863327,-2.0326875549888146zM-124.318300147283,1.7206780027244055L-126.37322099817118,2.0517180918110953L-123.59718379709348,3.02836093593439zM-122.71609243376514,1.8658057933741665L-125.53484238424251,1.9577829276167353L-124.27702090384072,2.977168309478989zM0.39280040984525955,121.0935878127388L-1.8093429090196682,122.66342768300424L0.5361678888247688,122.85055780598512zM-0.4353957783845635,121.09532042228274L-0.4193154715639812,123.19146987739471L1.735085860298184,122.32078300205072zM0.5130757323506203,126.27688272551372L-1.8736191321049005,126.54776232526389L0.48016878940464053,127.38444231189034zM1.8618509119432576,126.4898359371079L-0.9968094629879791,126.73904297067877L0.015333161394361139,126.98020845488128zM88.17542922390292,84.69711463433607L86.23434100044797,86.21402341155897L88.74949940150901,86.32774915984467zM87.28328175567736,84.77057338245149L87.86093323846694,86.71272618398415L89.77580385241488,85.75558763930408zM88.91251232593049,89.8945629110033L86.16638681699153,90.07398696168072L88.08037048293788,90.87185139399548zM89.88132929532266,89.97699468217583L87.12188140178806,90.10358058320153L87.91680814944847,90.75982600130214zM-0.08429072798672549,-2.563564714905147L-1.860012092997205,-2.63539500495014L-1.7057849024818814,-0.3572577361758647zM0.1433219360918681,-2.7869560863022245L1.4955739203057925,-0.4546572911466903L2.9213338385707277,-1.4044621070796606zM-1.256817309602015,0.8049995415754095L-3.0976712969112485,1.0114201463046346L-0.20574108845512462,2.829655796648531zM1.886432064205198,0.34361538456828716L0.16785225502421547,2.8306183270409133L1.5958034042363984,2.381983744421951zM124.37090214439453,-2.5937389794345647L122.33441531892562,-2.583593138057138L123.10905866948002,-0.3788853385394487zM124.62364974485774,-2.7813600378122008L126.48700085909732,-0.36571335308359515L126.9140429472793,-1.4990020936327795zM123.41339454478248,0.7867824341851054L121.22166025014909,1.029197970210522L124.26917936636603,2.830095080132948zM126.71408085903529,0.42196615267926246L124.66006955008123,2.837290288559749L125.74040117061526,2.2969610147921404zM-0.17075248240450697,-127.30785911049162L-1.89075878723681,-126.71845393322045L-1.588576453824495,-124.99436826858513zM0.1427569490642095,-127.31848545125233L1.3600262346473269,-125.37302845553211L3.0574465112568516,-125.41902543401018zM-1.2929008180055388,-124.05429291669047L-3.0825059971666313,-123.01173980924543L-0.18482287979621834,-121.75235564580154zM1.818991834305531,-124.31048622126481L0.15239954811084006,-121.73640590663148L1.6786963410494409,-121.86135427233859zM-88.16447855271728,-90.82013364809337L-89.53377010919287,-90.32649514495836L-90.03117570556833,-88.48892530699216zM-87.86651319715575,-90.86480453191066L-86.79438682750099,-88.79742555760834L-84.85820692438757,-89.0631820390223zM-89.45147118887743,-87.55090741079218L-90.98223568792196,-86.60540296728792L-88.20585946218166,-85.27695078140407zM-86.41465949259509,-87.81694296557718L-87.85820590439009,-85.24495685494935L-86.1563835235617,-85.46121936745504zM-124.54268524505427,-2.5298091656002724L-126.02191538345619,-2.6428518525611473L-126.54995095122132,-0.38355643786973204zM-124.31566048336066,-2.8185408318088947L-123.28270540783116,-0.5450474798351266L-121.30586827010578,-1.282487172884554zM-125.92103537638745,0.824962848547694L-127.41458628477196,0.9893595006969012L-124.68907189007496,2.8317531352839804zM-122.95439518583912,0.3206045578825477L-124.3070936400182,2.8345983098606844L-122.55288730694286,2.4010145882879192zM-0.1199213891682227,122.16950161819744L-1.753099420183653,121.46253088437406L-1.7770669141139361,124.27621389766337zM0.15311476093580167,121.73463390325881L1.5669960251290904,124.25862109742867L2.840118908903496,122.82513337104996zM-1.361662876638414,125.68839078227765L-3.0000213979668304,125.04757651147126L-0.19854542036314377,127.3745720470457zM1.99944018176941,125.01846587213963L0.17653520104690879,127.36437144002339L1.4741123406494931,126.63784400013418zM87.91480808561285,85.5827176968174L86.0253156673691,85.16470500972869L86.48912516756494,87.77569648143549zM88.16636793430317,85.27116614879408L89.86018979060471,87.77670044572882L90.61300861407318,86.38539456496126zM86.85609514093093,89.0570672543092L84.85035890165288,88.76760601337564L87.8126529064605,90.90073886085645zM90.25392587640656,88.57904877510215L88.20620974761776,90.89387787385783L89.26928874345417,90.1626274510839zM-0.896519272226475,-1.73158948644782L-2.944866331489085,-1.6471120089544833L-1.601715839921871,0.8890946673979028zM1.077386394470746,-2.0889184496962434L1.462277306463841,0.7986620613269154L3.2365727491013714,0.04392653826603066zM-1.3004160034863783,-0.4986165034674898L-3.366850636060546,-0.3246142864762537L-1.1089698104890344,2.0695606400470403zM1.637112817068692,-0.9404714612426144L1.0208275815428953,2.0204355548827544L2.7851610450258435,1.4096427343642601zM123.70914375599351,-1.7373283002071824L121.32056309595514,-1.595025151078846L123.1682299104137,0.8427466232816279zM125.74212535647999,-2.12913342625937L126.3197962970413,0.9288482605903254L127.35535300251442,-0.04604468443425275zM123.38526792737362,-0.498985468197291L120.93268029584976,-0.2883665506789L123.54685353274046,2.0336818689794876zM126.46156454693507,-0.9787291803147669L125.71745538537162,2.1087317827438037L126.9051197173305,1.3596042255753633zM-0.9938432534868709,-126.59287856531584L-2.9927829015174945,-125.66235804159174L-1.4564752886330659,-123.87540842709663zM1.117502152457476,-126.7605136980392L1.3718183268675996,-124.08234976843575L3.286915970710883,-124.04450458962816zM-1.3799855388474869,-125.39507185647106L-3.381009964349956,-124.33650886982869L-1.0152409468385153,-122.66312762959677zM1.6676708649206482,-125.63645246295751L0.9530204945394078,-122.76701198534496L2.822410084177375,-122.74796692969294zM-89.1061582243227,-90.09843978624023L-90.81205113702735,-89.31797555909958L-89.72908568501725,-87.2773850853945zM-87.03038099309018,-90.22993232439268L-86.79867534564801,-87.53715095453634L-84.59890081395577,-87.6834401739042zM-89.55024690643349,-88.89063040158956L-91.25700807740711,-87.95909518731409L-89.17317506892525,-86.10813816372298zM-86.56650283543325,-89.09153760752358L-87.15912240869557,-86.2428583989789L-85.03546691496366,-86.38019076822306zM-125.49755722899731,-1.7241410737231515L-127.18015121771072,-1.6972014051117121L-126.40643120292916,0.931735650830463zM-123.56279601008754,-2.064316570711815L-123.29026305646758,0.715744750217663L-121.01174268940872,0.10224197039085467zM-125.98192066795426,-0.49852907151571413L-127.65408867125245,-0.3667598027879902L-125.78126531682899,2.1116187244070006zM-123.13835391701357,-0.8970042416404427L-123.6300257223425,1.9620019938728588L-121.42955712300628,1.4246090757719843zM-0.9272622527107719,123.1264181014625L-2.814130136183514,122.4136909294467L-1.7017090547431455,125.6113223470862zM1.0392857219104104,122.59102961998798L1.5532995211980232,125.5721958817331L3.183651206927525,124.23148285417545zM-1.3497474026858416,124.40076210125372L-3.2473810916013823,123.7173887837252L-1.1791079557487343,126.7692171711242zM1.5959242334749948,123.76533233945736L1.093818541517415,126.74035861006018L2.7533586686450215,125.62495408448667zM87.21152295995962,86.5206359218581L84.9891125178988,86.13694749526769L86.56045668123406,89.05700335759974zM89.19857657295562,86.03960938510002L89.80466059272015,89.09844494193347L90.97719288709007,87.81980942559315zM86.85541724846078,87.78730229508437L84.58058330989817,87.44340883497351L86.991956594335,90.21981232277534zM89.88884596526687,87.19596359609534L89.25031244472432,90.26602411556114L90.50813663637612,89.23181271907784zM1.142770471573483,-2.5956867292322086L-0.9559410857793549,-2.3636781830880054L2.21998135977058,-0.6011680124507666zM-2.2692493003877283,0.62781381807624L-1.0029189498300122,2.847535664620909L0.8653575046530322,2.0851834420738316zM125.60854697405635,-2.5728696228825445L123.61886223152705,-2.3591242706649607L126.89301909922231,-0.6285390312234753zM122.4135211324404,0.5857746209382775L123.444132870003,2.8527419302639823L125.4491528112329,2.1220163735687207zM1.10830702430233,-127.03881422374738L-0.9553421568120957,-126.97925891913015L2.2538458780744737,-125.25607734113453zM-2.2385394928895193,-124.03304349819346L-1.005820499934261,-121.60903223287919L0.8375492472590719,-122.51100890339742zM-86.8859807622318,-90.6105649464707L-89.04377152057536,-90.48165525589825L-85.91895194309039,-88.72382769386434zM-90.40617921115947,-87.49372514720503L-89.00214774183348,-85.154306032541L-87.253998764034,-86.0469508669453zM-123.31715609183857,-2.6167377261459794L-125.53059681815546,-2.368439386139059L-122.45905390368227,-0.5753558124859424zM-126.94340389487803,0.6691662669810372L-125.45315947249021,2.8459100797628216L-123.72386493743747,2.045456578027122zM1.1669233047066954,121.85372986613802L-0.9529738562943967,122.25165396426713L2.1928612971524095,124.04770080406492zM-2.3032533665624424,125.29370254510394L-0.99910584648601,127.28764710963051L0.8955484674837442,126.6928008292776zM89.17179312601303,85.41488751702796L87.13341818171662,85.75819058716247L90.3571144092973,87.52190394250088zM85.87004229370248,88.74734728781435L87.00019309807188,90.85021927288454L88.97846883412319,90.21848133553439zM0.5346192375372363,-2.657253326806822L-1.7980812254307406,-2.4305601733483653L0.38308737754386435,-0.47398836140169165zM-0.37473723818642635,0.41658216749311444L-0.4345048964096933,2.9051318615336976L1.689616744945759,2.2400878325300666zM125.02502294315953,-2.655704497973079L122.68621503513984,-2.3984324773417747L125.2488986520181,-0.5076648862420249zM124.53875750770838,0.3729750837811216L124.03878925433516,2.886351891267213L126.1433390889732,2.3024748865085445zM0.5193423546573108,-127.27621611157689L-1.8357554803091831,-126.82068002177404L0.4360385153022325,-125.30541696887316zM-0.33844971234122945,-124.380320449857L-0.44963831101712215,-121.70042968660091L1.668462633707991,-122.19795924265236zM-87.49956364553977,-90.77049648528623L-89.84922224302805,-90.41318672152735L-87.87683110363623,-88.72336103659778zM-88.65831606134313,-87.79448873143014L-88.47241476552966,-85.20732014843006L-86.33413694463198,-85.78163164043741zM-123.96015429464065,-2.6447086317202255L-126.27311613724378,-2.4698581372133086L-124.48761541913233,-0.4472350926233446zM-125.27016202554253,0.47368831317255927L-124.9117539119681,2.8971174777846835L-122.77822069280683,2.190996070599636zM0.5423076003098745,121.96170680510484L-1.7551096346999264,121.97752052524582L0.33242742404041237,124.3394820487596zM-0.41403250679928716,125.2271642225682L-0.41876455310246513,127.50778504641337L1.7131716702513915,126.6673638332425zM88.57434513732628,85.45863230382444L86.25124493610546,85.56302972693675L88.63927769807303,87.76177848953641zM87.93260858819522,88.63414957267457L87.57863460054074,90.99739114849271L89.71437380346809,90.27550352224408zM-0.924185871348439,-2.9369582598783275L-2.3036368857757865,-0.7287454583591478L0.8210120115595172,-0.9846935752791914zM123.49766585628788,-2.924628762104078L122.37231273183004,-0.6997149839196029L125.61985543105247,-1.0260535474929862zM-0.9395470449131067,-127.3729066961962L-2.3268551411970453,-125.36003364713288L0.8595914405454437,-125.81410171492277zM-88.91186240255406,-90.94233343206118L-90.47368978265534,-88.87733832926074L-87.40619335001284,-89.21566032185235zM-125.33743050600732,-2.9530172459470005L-126.97181316163544,-0.7575507768631883L-123.99421184265704,-0.9398292707064779zM-0.9128356282902248,121.52000134272711L-2.2835659630464824,123.89367086289148L0.7895908457719991,123.83257526559987zM87.06219068154421,85.07442875058436L85.86875416958927,87.41218840110389L89.04717919295938,87.2479203444527zM2.2881983238505925,0.8199089549006269L-0.9176648588895531,0.9731400664358383L1.0362772806036689,2.8573482721802015zM126.95255138919318,0.8408133388668128L123.87097088645714,0.9338095573622404L125.47993323464948,2.8757743972876137zM2.2751390173736636,-123.77843558499002L-0.874653211068054,-123.88248932780382L1.0063249392590985,-121.58532255842462zM-85.8754141837639,-87.30031765399008L-89.12439810621649,-87.28936087896568L-86.97831175411247,-85.14485896318519zM-122.38198764587612,0.7992124674026098L-125.69703589259727,1.005297787110886L-123.410810480697,2.8458870390031707zM2.303049367011338,125.42213801212301L-0.9553727148481024,125.84674073659379L1.0591340934014724,127.27816330953505zM90.44909141051691,88.93973309767465L87.28725278383958,89.24661502455994L89.05540134086576,90.84898396093968zM-0.4235183349152781,-2.923501647106356L-0.4752748886504158,-0.5923126631745017L2.4252293587807623,-1.1358487448551433zM0.5197320210273957,0.7484039513518781L-2.482403111031812,1.0407460720855295L0.4362349547893472,2.862513031698593zM124.04394719228412,-2.895623237914838L124.39041772726526,-0.5815178419102062L127.06179476130588,-1.1745219753109568zM125.36017256289719,0.7581441278773924L122.15278422751165,1.0359580444892884L124.93033062001629,2.85756088276932zM-0.4259579089862435,-127.49642806797983L-0.4857941525097674,-125.38914159200124L2.4381881967110792,-125.7358169407952zM0.5145694654596863,-124.05302945720264L-2.479409936921795,-123.55369884454025L0.43840433624703984,-121.71133218876135zM-88.4245672343258,-91.01579212721774L-88.78688675820084,-88.85764737598222L-85.69871917944532,-89.2148328591231zM-87.75362563542853,-87.50054981994337L-90.61104867579033,-87.05533409744726L-87.59837113118321,-85.22906233466044zM-124.89102283421579,-2.930130021191306L-125.34005458423964,-0.6230093483057297L-122.2122099919697,-1.098523685638965zM-124.32289678223042,0.7520389238509584L-127.11744311296295,1.0453316501628929L-124.0558197856619,2.8542924811221493zM-0.42066429660584076,121.64885785218584L-0.46264872299032217,124.20190378417125L2.409749154811231,123.46729885414715zM0.5213745084148186,125.54984923768954L-2.4818192686450478,125.63493403305449L0.4340086250151606,127.43660333003224zM87.59853957321555,85.17819518774516L87.82022455685822,87.66280597973972L90.54428131232831,86.9439450845662zM88.80666153864807,89.0022524021724L85.64778036030063,89.14072775844413L88.45573127302326,90.94529220170654zM-2.2706310102423335,-0.7714997322354462L-1.906218218050381,1.8992880390735507L0.8871667340589635,1.3661403301543873zM122.4256216155729,-0.7711952442451038L122.70443965728334,1.8897529248349583L125.6534753473789,1.3753709564026373zM-2.2758692432175556,-125.43941269921413L-1.8957651214578823,-122.69737069057271L0.8819518704416871,-123.44250708768959zM-90.4475575523543,-88.92494132471856L-90.01076727685356,-86.19455529870193L-87.34114941340064,-86.89636648796183zM-126.96651589085816,-0.7711199537661325L-126.5160696286534,1.9103583779276923L-123.88031608919107,1.3546902128309322zM-2.265360900031691,123.89692969162081L-1.914223888871157,126.49269533471977L0.8899022946690968,126.17752272512087zM85.90682523074267,87.38248980871097L86.20144028006236,89.99513188510292L89.111843743336,89.6260986915534zM1.9681234884511436,-1.7425022105576509L-0.9378437367909096,-1.489453274780515L2.2594027425735175,0.7380268483456738zM126.5871393487552,-1.7406238892274075L123.82577854654104,-1.4961538534591163L126.94998371340638,0.7428491056940316zM1.9663646093909664,-126.33407116697232L-0.9259830159510104,-126.30823833915451L2.249300900793795,-123.92483824533461zM-86.15100192325104,-89.844791449934L-89.15135340944862,-89.74334391200567L-85.91775392144136,-87.41558502342762zM-122.65051997488642,-1.7440091468883054L-125.70117498611931,-1.4830568019952561L-122.4318416592294,0.7331373118910693zM1.965468919510244,122.84917376046845L-0.9458232738720798,123.33027674388248L2.270036848595587,125.39983997312551zM90.08575778814775,86.35652845458037L87.27703409329051,86.76891140115214L90.43668236117024,88.89042325564981zM-1.8159733557056366,-2.059116162753749L-2.3399473550374426,0.6191005758020307L0.8662382165093276,0.1936857368484209zM2.3641937844831618,-0.4897036014693925L-0.9258955404980762,-0.261940811222405L1.8513842502486655,1.997974262795094zM122.78366837846963,-2.043270281672271L122.35678159283378,0.6151434916464436L125.71021376367123,0.1817969399225305zM127.06152511428651,-0.48589378586821624L123.91357549728536,-0.28119935273752256L126.45492811187026,2.0134229887090354zM-1.8342117201222932,-126.66352560723678L-2.3331484833820326,-124.02779524185198L0.8776777092705749,-124.695355230223zM2.36628627014107,-125.12780731323261L-0.9017664274162713,-125.1637466124945L1.8251626515089518,-122.60246245337805zM-89.93319666113504,-90.18021451781551L-90.50851564878342,-87.51565366154516L-87.40522798541217,-88.10771947183953zM-85.80840906190382,-88.6261808638157L-89.18402585968016,-88.567010348197L-86.27514038527917,-86.11773673898091zM-126.41283081998027,-2.076013939960765L-127.03595910023242,0.6232649366727145L-123.98123880322945,0.20641915318475307zM-122.33332000402044,-0.4929303488781358L-125.7630208066628,-0.2447311767863943L-122.75432292429142,1.9839913757678267zM-1.7980558836359624,122.54956177369945L-2.344822628894973,125.26372760628877L0.8531960182971842,125.08072699911695zM2.357969642746114,124.14829483517273L-0.9456248760537851,124.6451103760909L1.8773377275414218,126.59327086804812zM86.3012513272136,86.06331548318218L85.83041180590259,88.75446169243742L89.13591217374696,88.49315077537402zM90.53419696054783,87.64331898347693L87.33279856221542,88.04934934494892L89.97994477256738,90.11091932277435zM0.5244970670297011,-1.7474139648326341L-2.452370474149713,-1.5077916333183694L0.40143727190494294,0.7612769611585113zM-0.39146760352219384,-0.8110516281786524L-0.47504118962909553,1.9035983643109746L2.3929449283663575,1.4013819008601698zM125.25881892106814,-1.7479814099219895L122.1705074392032,-1.4906199799099278L125.26411537038737,0.744672752839425zM124.48018690021236,-0.8314814516301083L124.26122333489305,1.9124361862684451L127.00490376598344,1.412973902354155zM0.5158304221304927,-126.5490047858292L-2.4720614164272336,-126.06076068915945L0.4297948590816721,-124.10404102787773zM-0.37069187863046343,-125.66254924719945L-0.4856078956283937,-122.89318201177744L2.3827359094739258,-123.17021796990447zM-87.68177723169835,-89.99635779935934L-90.5885609460342,-89.59139846678467L-87.86959313558695,-87.51966754895295zM-88.67254791877279,-89.08085735690673L-88.68449437973433,-86.34670781663978L-85.73001674438227,-86.69200136756548zM-124.2098952956221,-1.7455472130535317L-127.0729043703448,-1.527005940719616L-124.46351433512194,0.7786245167806554zM-125.25995128556558,-0.7909965651485612L-125.21089941497598,1.8939452020372811L-122.22259103011716,1.390980000103772zM0.5284666737761596,123.05420366228863L-2.4282821044670726,123.05041316569643L0.37337929547584403,125.6213324008963zM-0.41253159084267366,124.04448835129132L-0.46237848894953615,126.6977593566837L2.401346215007278,125.97155879489135zM88.72854558142097,86.49842729232635L85.68438818869917,86.58203126323662L88.67412527276925,89.03910798554902zM87.89064624244988,87.46010174147904L87.73547210978678,90.15368599996353L90.51381296108285,89.4936360736544zM-0.4061691515107491,-2.0391920316001078L-0.4810337626029605,0.6364057155548798L2.650449273132392,0.15518752915603254zM0.5208425415550951,-0.49956539958400276L-2.7011242767187635,-0.24137715134337207L0.4170353761449856,1.9885413378165697zM124.32918371895381,-2.0416952432947415L124.37684539661889,0.6490956156282357L127.32445715408046,0.1450008407773102zM125.36928283670647,-0.49820968302156565L121.97577982702967,-0.23501793912025626L125.15893088787966,1.9808264090310166zM-0.396700792623523,-126.81182953930889L-0.49025330345532403,-124.22876553422938L2.6502004550975293,-124.47424362398552zM0.5143365281216532,-125.36819528959165L-2.7090665956104076,-124.86185632978126L0.43148370847007206,-122.78958950437244zM-88.60017128671768,-90.26399104503423L-88.77515400273114,-87.66375883870498L-85.50841356302155,-87.96683411463907zM-87.76412963653729,-88.79722693231425L-90.86715409882963,-88.36389719861802L-87.77894783514081,-86.23826229366763zM-125.14162950127768,-2.0350371287883156L-125.33804317335183,0.6240917911016148L-122.0243208769863,0.16334655079750543zM-124.32743285531545,-0.4999998200008272L-127.3777381688682,-0.24803376938902202L-124.32531524546951,1.995632376279044zM-0.4153835017676701,122.73397252829541L-0.4694265329006326,125.49916761818888L2.6480563936869848,124.78650097726107zM0.5234670638875265,124.36908801011768L-2.6892961594830718,124.38003757312103L0.40258273657686294,126.76571311428508zM87.7891015645865,86.18682473325927L87.81507339633916,88.93824252997616L90.80605660958207,88.27431916136446zM88.80494363282597,87.79535783749559L85.46628141254067,87.8856198902939L88.61251380710374,90.2136062705888z" style="fill:rgb(255,0,0);fill-opacity:1"/></svg>