<svg xmlns="http://www.w3.org/2000/svg" viewBox="-495 -475 990 950" width="990" height="950" style="background-color: rgb(255, 255, 255);"><path d="M 3.9255817197639885e-16 -1.2337901261037956 L 4.530452081322092e-16 -1.5101506585434734e-16 L -1.7459487264908948,-1.5119149200133297e-16z" style="fill: rgb(255,0,0); fill-opacity: 1"/><path d="M 4.530452081322092e-16 -1.5101506585434734e-16 L 1.7459487264908948 -1.5119149200133297e-16 L 3.9255817197639885e-16,1.2337901261037956z" style="fill: rgb(255,0,0); fill-opacity: 1"/><path d="M 123.37901477412663 -1.2337901261037956 L 123.31315959265565 -1.5101506585434734e-16 L 121.71127374821215,-1.5119149200133297e-16z" style="fill: rgb(255,0,0); fill-opacity: 1"/><path d="M 123.31315959265565 -1.5101506585434734e-16 L 125.20317120119392 -1.5119149200133297e-16 L 123.37901477412663,1.2337901261037956z" style="fill: rgb(255,0,0); fill-opacity: 1"/><path d="M 3.9255817197639885e-16 -124.61280549421924 L 4.530452081322092e-16 -123.31316018632741 L -1.7459487264908948,-123.45722306906836z" style="fill: rgb(255,0,0); fill-opacity: 1"/><path d="M 4.530452081322092e-16 -123.31316018632741 L 1.7459487264908948 -123.45722306906836 L 3.9255817197639885e-16,-122.14522524201165z" style="fill: rgb(255,0,0); fill-opacity: 1"/><path d="M -110.3535222295207 -56.41061401518422 L -110.29461957702593 -55.14737252932642 L -112.16942203513051,-55.21179946843138z" style="fill: rgb(255,0,0); fill-opacity: 1"/><path d="M -110.29461957702593 -55.14737252932642 L -108.67752458214872 -55.21179946843138 L -110.3535222295207,-53.94303376297663z" style="fill: rgb(255,0,0); fill-opacity: 1"/><path d="M 3.9255817197639885e-16 122.14522524201165 L 4.530452081322092e-16 123.31316018632741 L -1.7459487264908948,123.45722306906836z" style="fill: rgb(255,0,0); fill-opacity: 1"/><path d="M 4.530452081322092e-16 123.31316018632741 L 1.7459487264908948 123.45722306906836 L 3.9255817197639885e-16,124.61280549421924z" style="fill: rgb(255,0,0); fill-opacity: 1"/><path d="M 4.530452081322092e-16 -1.5101506585434734e-16 L 3.9255817197639885e-16 1.2337901261037956 L -1.512607576412793,1.2350388853878158z" style="fill: rgb(255,0,0); fill-opacity: 1"/><path d="M 123.31315959265565 -1.5101506585434734e-16 L 123.37901477412663 1.2337901261037956 L 121.99128312830588,1.2350388853878158z" style="fill: rgb(255,0,0); fill-opacity: 1"/><path d="M 4.530452081322092e-16 -123.31316018632741 L 3.9255817197639885e-16 -122.14522524201165 L -1.512607576412793,-122.26885241392085z" style="fill: rgb(255,0,0); fill-opacity: 1"/><path d="M -110.29461957702593 -55.14737252932642 L -110.3535222295207 -53.94303376297663 L -111.9778222100895,-53.99763126930655z" style="fill: rgb(255,0,0); fill-opacity: 1"/><path d="M 4.530452081322092e-16 123.31316018632741 L 3.9255817197639885e-16 124.61280549421924 L -1.512607576412793,124.7389301846965z" style="fill: rgb(255,0,0); fill-opacity: 1"/><path d="M 3.9255817197639885e-16 -1.2337901261037956 L 1.512607576412793 -1.2350388853878158 L 4.530452081322092e-16,-1.5101506585434734e-16z" style="fill: rgb(255,0,0); fill-opacity: 1"/><path d="M 123.37901477412663 -1.2337901261037956 L 125.01649828113146 -1.2350388853878158 L 123.31315959265565,-1.5101506585434734e-16z" style="fill: rgb(255,0,0); fill-opacity: 1"/><path d="M 3.9255817197639885e-16 -124.61280549421924 L 1.512607576412793 -124.7389301846965 L 4.530452081322092e-16,-123.31316018632741z" style="fill: rgb(255,0,0); fill-opacity: 1"/><path d="M -110.3535222295207 -56.41061401518422 L -108.9526070572639 -56.46770904008218 L -110.29461957702593,-55.14737252932642z" style="fill: rgb(255,0,0); fill-opacity: 1"/><path d="M 3.9255817197639885e-16 122.14522524201165 L 1.512607576412793 122.26885241392085 L 4.530452081322092e-16,123.31316018632741z" style="fill: rgb(255,0,0); fill-opacity: 1"/><path d="M 1.512607576412793 -1.2350388853878158 L 1.7459487264908948 -1.5119149200133297e-16 L 4.530452081322092e-16,-1.5101506585434734e-16z" style="fill: rgb(255,0,0); fill-opacity: 1"/><path d="M 125.01649828113146 -1.2350388853878158 L 125.20317120119392 -1.5119149200133297e-16 L 123.31315959265565,-1.5101506585434734e-16z" style="fill: rgb(255,0,0); fill-opacity: 1"/><path d="M 1.512607576412793 -124.7389301846965 L 1.7459487264908948 -123.45722306906836 L 4.530452081322092e-16,-123.31316018632741z" style="fill: rgb(255,0,0); fill-opacity: 1"/><path d="M -108.9526070572639 -56.46770904008218 L -108.67752458214872 -55.21179946843138 L -110.29461957702593,-55.14737252932642z" style="fill: rgb(255,0,0); fill-opacity: 1"/><path d="M 1.512607576412793 122.26885241392085 L 1.7459487264908948 123.45722306906836 L 4.530452081322092e-16,123.31316018632741z" style="fill: rgb(255,0,0); fill-opacity: 1"/><path d="M -1.7459487264908948 -1.5119149200133297e-16 L 4.530452081322092e-16 -1.5101506585434734e-16 L -1.512607576412793,1.2350388853878158z" style="fill: rgb(255,0,0); fill-opacity: 1"/><path d="M 121.71127374821215 -1.5119149200133297e-16 L 123.31315959265565 -1.5101506585434734e-16 L 121.99128312830588,1.2350388853878158z" style="fill: rgb(255,0,0); fill-opacity: 1"/><path d="M -1.7459487264908948 -123.45722306906836 L 4.530452081322092e-16 -123.31316018632741 L -1.512607576412793,-122.26885241392085z" style="fill: rgb(255,0,0); fill-opacity: 1"/><path d="M -112.16942203513051 -55.21179946843138 L -110.29461957702593 -55.14737252932642 L -111.9778222100895,-53.99763126930655z" style="fill: rgb(255,0,0); fill-opacity: 1"/><path d="M -1.7459487264908948 123.45722306906836 L 4.530452081322092e-16 123.31316018632741 L -1.512607576412793,124.7389301846965z" style="fill: rgb(255,0,0); fill-opacity: 1"/><path d="M -1.512607576412793 -1.2350388853878158 L 3.9255817197639885e-16 -1.2337901261037956 L -1.7459487264908948,-1.5119149200133297e-16z" style="fill: rgb(255,0,0); fill-opacity: 1"/><path d="M 1.7459487264908948 -1.5119149200133297e-16 L 1.512607576412793 1.2350388853878158 L 3.9255817197639885e-16,1.2337901261037956z" style="fill: rgb(255,0,0); fill-opacity: 1"/><path d="M 121.99128312830588 -1.2350388853878158 L 123.37901477412663 -1.2337901261037956 L 121.71127374821215,-1.5119149200133297e-16z" style="fill: rgb(255,0,0); fill-opacity: 1"/><path d="M 125.20317120119392 -1.5119149200133297e-16 L 125.01649828113146 1.2350388853878158 L 123.37901477412663,1.2337901261037956z" style="fill: rgb(255,0,0); fill-opacity: 1"/><path d="M -1.512607576412793 -124.7389301846965 L 3.9255817197639885e-16 -124.61280549421924 L -1.7459487264908948,-123.45722306906836z" style="fill: rgb(255,0,0); fill-opacity: 1"/><path d="M 1.7459487264908948 -123.45722306906836 L 1.512607576412793 -122.26885241392085 L 3.9255817197639885e-16,-122.14522524201165z" style="fill: rgb(255,0,0); fill-opacity: 1"/><path d="M -111.9778222100895 -56.46770904008218 L -110.3535222295207 -56.41061401518422 L -112.16942203513051,-55.21179946843138z" style="fill: rgb(255,0,0); fill-opacity: 1"/><path d="M -108.67752458214872 -55.21179946843138 L -108.9526070572639 -53.99763126930655 L -110.3535222295207,-53.94303376297663z" style="fill: rgb(255,0,0); fill-opacity: 1"/><path d="M -1.512607576412793 122.26885241392085 L 3.9255817197639885e-16 122.14522524201165 L -1.7459487264908948,123.45722306906836z" style="fill: rgb(255,0,0); fill-opacity: 1"/><path d="M 1.7459487264908948 123.45722306906836 L 1.512607576412793 124.7389301846965 L 3.9255817197639885e-16,124.61280549421924z" style="fill: rgb(255,0,0); fill-opacity: 1"/><path d="M 2.269747449822983e-16 -2.140109761209139 L 3.9255817197639885e-16 -1.2337901261037956 L -1.512607576412793,-1.2350388853878158z" style="fill: rgb(255,0,0); fill-opacity: 1"/><path d="M 123.55929363824825 -2.140109761209139 L 123.37901477412663 -1.2337901261037956 L 121.99128312830588,-1.2350388853878158z" style="fill: rgb(255,0,0); fill-opacity: 1"/><path d="M 2.269747449822983e-16 -125.69940399431414 L 3.9255817197639885e-16 -124.61280549421924 L -1.512607576412793,-124.7389301846965z" style="fill: rgb(255,0,0); fill-opacity: 1"/><path d="M -110.51476851338656 -57.39755688394703 L -110.3535222295207 -56.41061401518422 L -111.9778222100895,-56.46770904008218z" style="fill: rgb(255,0,0); fill-opacity: 1"/><path d="M 2.269747449822983e-16 121.41918447189585 L 3.9255817197639885e-16 122.14522524201165 L -1.512607576412793,122.26885241392085z" style="fill: rgb(255,0,0); fill-opacity: 1"/><path d="M 3.9255817197639885e-16 1.2337901261037956 L 1.512607576412793 1.2350388853878158 L 2.269747449822983e-16,2.140109761209139z" style="fill: rgb(255,0,0); fill-opacity: 1"/><path d="M 123.37901477412663 1.2337901261037956 L 125.01649828113146 1.2350388853878158 L 123.55929363824825,2.140109761209139z" style="fill: rgb(255,0,0); fill-opacity: 1"/><path d="M 3.9255817197639885e-16 -122.14522524201165 L 1.512607576412793 -122.26885241392085 L 2.269747449822983e-16,-121.41918447189585z" style="fill: rgb(255,0,0); fill-opacity: 1"/><path d="M -110.3535222295207 -53.94303376297663 L -108.9526070572639 -53.99763126930655 L -110.51476851338656,-53.117337361528755z" style="fill: rgb(255,0,0); fill-opacity: 1"/><path d="M 3.9255817197639885e-16 124.61280549421924 L 1.512607576412793 124.7389301846965 L 2.269747449822983e-16,125.69940399431414z" style="fill: rgb(255,0,0); fill-opacity: 1"/><path d="M 0.8742071919059575 -2.1413616380650806 L 1.512607576412793 -1.2350388853878158 L 3.9255817197639885e-16,-1.2337901261037956z" style="fill: rgb(255,0,0); fill-opacity: 1"/><path d="M -1.512607576412793 1.2350388853878158 L 3.9255817197639885e-16 1.2337901261037956 L -0.8742071919059575,2.1413616380650806z" style="fill: rgb(255,0,0); fill-opacity: 1"/><path d="M 124.505777973526 -2.1413616380650806 L 125.01649828113146 -1.2350388853878158 L 123.37901477412663,-1.2337901261037956z" style="fill: rgb(255,0,0); fill-opacity: 1"/><path d="M 121.99128312830588 1.2350388853878158 L 123.37901477412663 1.2337901261037956 L 122.75736358971407,2.1413616380650806z" style="fill: rgb(255,0,0); fill-opacity: 1"/><path d="M 0.8742071919059575 -125.77293301488982 L 1.512607576412793 -124.7389301846965 L 3.9255817197639885e-16,-124.61280549421924z" style="fill: rgb(255,0,0); fill-opacity: 1"/><path d="M -1.512607576412793 -122.26885241392085 L 3.9255817197639885e-16 -122.14522524201165 L -0.8742071919059575,-121.49020973875965z" style="fill: rgb(255,0,0); fill-opacity: 1"/><path d="M -109.70520795010188 -57.431132111887685 L -108.9526070572639 -56.46770904008218 L -110.3535222295207,-56.41061401518422z" style="fill: rgb(255,0,0); fill-opacity: 1"/><path d="M -111.9778222100895 -53.99763126930655 L -110.3535222295207 -53.94303376297663 L -111.4536223339138,-53.14840883575752z" style="fill: rgb(255,0,0); fill-opacity: 1"/><path d="M 0.8742071919059575 121.49020973875965 L 1.512607576412793 122.26885241392085 L 3.9255817197639885e-16,122.14522524201165z" style="fill: rgb(255,0,0); fill-opacity: 1"/><path d="M -1.512607576412793 124.7389301846965 L 3.9255817197639885e-16 124.61280549421924 L -0.8742071919059575,125.77293301488982z" style="fill: rgb(255,0,0); fill-opacity: 1"/><path d="M 2.269747449822983e-16 -2.140109761209139 L 0.8742071919059575 -2.1413616380650806 L 3.9255817197639885e-16,-1.2337901261037956z" style="fill: rgb(255,0,0); fill-opacity: 1"/><path d="M 3.9255817197639885e-16 1.2337901261037956 L 2.269747449822983e-16 2.140109761209139 L -0.8742071919059575,2.1413616380650806z" style="fill: rgb(255,0,0); fill-opacity: 1"/><path d="M 123.55929363824825 -2.140109761209139 L 124.505777973526 -2.1413616380650806 L 123.37901477412663,-1.2337901261037956z" style="fill: rgb(255,0,0); fill-opacity: 1"/><path d="M 123.37901477412663 1.2337901261037956 L 123.55929363824825 2.140109761209139 L 122.75736358971407,2.1413616380650806z" style="fill: rgb(255,0,0); fill-opacity: 1"/><path d="M 2.269747449822983e-16 -125.69940399431414 L 0.8742071919059575 -125.77293301488982 L 3.9255817197639885e-16,-124.61280549421924z" style="fill: rgb(255,0,0); fill-opacity: 1"/><path d="M 3.9255817197639885e-16 -122.14522524201165 L 2.269747449822983e-16 -121.41918447189585 L -0.8742071919059575,-121.49020973875965z" style="fill: rgb(255,0,0); fill-opacity: 1"/><path d="M -110.51476851338656 -57.39755688394703 L -109.70520795010188 -57.431132111887685 L -110.3535222295207,-56.41061401518422z" style="fill: rgb(255,0,0); fill-opacity: 1"/><path d="M -110.3535222295207 -53.94303376297663 L -110.51476851338656 -53.117337361528755 L -111.4536223339138,-53.14840883575752z" style="fill: rgb(255,0,0); fill-opacity: 1"/><path d="M 2.269747449822983e-16 121.41918447189585 L 0.8742071919059575 121.49020973875965 L 3.9255817197639885e-16,122.14522524201165z" style="fill: rgb(255,0,0); fill-opacity: 1"/><path d="M 3.9255817197639885e-16 124.61280549421924 L 2.269747449822983e-16 125.69940399431414 L -0.8742071919059575,125.77293301488982z" style="fill: rgb(255,0,0); fill-opacity: 1"/><path d="M 1.512607576412793 1.2350388853878158 L 0.8742071919059575 2.1413616380650806 L 2.269747449822983e-16,2.140109761209139z" style="fill: rgb(255,0,0); fill-opacity: 1"/><path d="M 125.01649828113146 1.2350388853878158 L 124.505777973526 2.1413616380650806 L 123.55929363824825,2.140109761209139z" style="fill: rgb(255,0,0); fill-opacity: 1"/><path d="M 1.512607576412793 -122.26885241392085 L 0.8742071919059575 -121.49020973875965 L 2.269747449822983e-16,-121.41918447189585z" style="fill: rgb(255,0,0); fill-opacity: 1"/><path d="M -108.9526070572639 -53.99763126930655 L -109.70520795010188 -53.14840883575752 L -110.51476851338656,-53.117337361528755z" style="fill: rgb(255,0,0); fill-opacity: 1"/><path d="M 1.512607576412793 124.7389301846965 L 0.8742071919059575 125.77293301488982 L 2.269747449822983e-16,125.69940399431414z" style="fill: rgb(255,0,0); fill-opacity: 1"/><path d="M -0.8742071919059575 -2.1413616380650806 L 2.269747449822983e-16 -2.140109761209139 L -1.512607576412793,-1.2350388853878158z" style="fill: rgb(255,0,0); fill-opacity: 1"/><path d="M 122.75736358971407 -2.1413616380650806 L 123.55929363824825 -2.140109761209139 L 121.99128312830588,-1.2350388853878158z" style="fill: rgb(255,0,0); fill-opacity: 1"/><path d="M -0.8742071919059575 -125.77293301488982 L 2.269747449822983e-16 -125.69940399431414 L -1.512607576412793,-124.7389301846965z" style="fill: rgb(255,0,0); fill-opacity: 1"/><path d="M -111.4536223339138 -57.431132111887685 L -110.51476851338656 -57.39755688394703 L -111.9778222100895,-56.46770904008218z" style="fill: rgb(255,0,0); fill-opacity: 1"/><path d="M -0.8742071919059575 121.49020973875965 L 2.269747449822983e-16 121.41918447189585 L -1.512607576412793,122.26885241392085z" style="fill: rgb(255,0,0); fill-opacity: 1"/><path d="M 1.512607576412793 -1.2350388853878158 L 2.1443899703120595 -1.2380641004875872 L 1.7459487264908948,-1.5119149200133297e-16z" style="fill: rgb(255,0,0); fill-opacity: 1"/><path d="M -1.512607576412793 -1.2350388853878158 L -1.7459487264908948 -1.5119149200133297e-16 L -2.4761281890542453,-1.5161912610426295e-16z" style="fill: rgb(255,0,0); fill-opacity: 1"/><path d="M 1.7459487264908948 -1.5119149200133297e-16 L 2.4761281890542453 -1.5161912610426295e-16 L 1.512607576412793,1.2350388853878158z" style="fill: rgb(255,0,0); fill-opacity: 1"/><path d="M -1.7459487264908948 -1.5119149200133297e-16 L -1.512607576412793 1.2350388853878158 L -2.1443899703120595,1.2380641004875872z" style="fill: rgb(255,0,0); fill-opacity: 1"/><path d="M 125.01649828113146 -1.2350388853878158 L 125.95080219031328 -1.2380641004875872 L 125.20317120119392,-1.5119149200133297e-16z" style="fill: rgb(255,0,0); fill-opacity: 1"/><path d="M 121.99128312830588 -1.2350388853878158 L 121.71127374821215 -1.5119149200133297e-16 L 121.33028403094697,-1.5161912610426295e-16z" style="fill: rgb(255,0,0); fill-opacity: 1"/><path d="M 125.20317120119392 -1.5119149200133297e-16 L 126.28254040905547 -1.5161912610426295e-16 L 125.01649828113146,1.2350388853878158z" style="fill: rgb(255,0,0); fill-opacity: 1"/><path d="M 121.71127374821215 -1.5119149200133297e-16 L 121.99128312830588 1.2350388853878158 L 121.66202224968916,1.2380641004875872z" style="fill: rgb(255,0,0); fill-opacity: 1"/><path d="M 1.512607576412793 -124.7389301846965 L 2.1443899703120595 -125.04447691653526 L 1.7459487264908948,-123.45722306906836z" style="fill: rgb(255,0,0); fill-opacity: 1"/><path d="M -1.512607576412793 -124.7389301846965 L -1.7459487264908948 -123.45722306906836 L -2.4761281890542453,-123.80641281604767z" style="fill: rgb(255,0,0); fill-opacity: 1"/><path d="M 1.7459487264908948 -123.45722306906836 L 2.4761281890542453 -123.80641281604767 L 1.512607576412793,-122.26885241392085z" style="fill: rgb(255,0,0); fill-opacity: 1"/><path d="M -1.7459487264908948 -123.45722306906836 L -1.512607576412793 -122.26885241392085 L -2.1443899703120595,-122.56834871556009z" style="fill: rgb(255,0,0); fill-opacity: 1"/><path d="M -108.9526070572639 -56.46770904008218 L -108.59140807516087 -56.60602611500076 L -108.67752458214872,-55.21179946843138z" style="fill: rgb(255,0,0); fill-opacity: 1"/><path d="M -111.9778222100895 -56.46770904008218 L -112.16942203513051 -55.21179946843138 L -113.21192623452718,-55.36796201451317z" style="fill: rgb(255,0,0); fill-opacity: 1"/><path d="M -108.67752458214872 -55.21179946843138 L -108.25966985641868 -55.36796201451317 L -108.9526070572639,-53.99763126930655z" style="fill: rgb(255,0,0); fill-opacity: 1"/><path d="M -112.16942203513051 -55.21179946843138 L -111.9778222100895 -53.99763126930655 L -112.880188015785,-54.129897914025584z" style="fill: rgb(255,0,0); fill-opacity: 1"/><path d="M 1.512607576412793 122.26885241392085 L 2.1443899703120595 122.56834871556009 L 1.7459487264908948,123.45722306906836z" style="fill: rgb(255,0,0); fill-opacity: 1"/><path d="M -1.512607576412793 122.26885241392085 L -1.7459487264908948 123.45722306906836 L -2.4761281890542453,123.80641281604767z" style="fill: rgb(255,0,0); fill-opacity: 1"/><path d="M 1.7459487264908948 123.45722306906836 L 2.4761281890542453 123.80641281604767 L 1.512607576412793,124.7389301846965z" style="fill: rgb(255,0,0); fill-opacity: 1"/><path d="M -1.7459487264908948 123.45722306906836 L -1.512607576412793 124.7389301846965 L -2.1443899703120595,125.04447691653526z" style="fill: rgb(255,0,0); fill-opacity: 1"/><path d="M 0.8742071919059575 -2.1413616380650806 L 1.2380640945271226 -2.144389980635887 L 1.512607576412793,-1.2350388853878158z" style="fill: rgb(255,0,0); fill-opacity: 1"/><path d="M -0.8742071919059575 -2.1413616380650806 L -1.512607576412793 -1.2350388853878158 L -2.1443899703120595,-1.2380641004875872z" style="fill: rgb(255,0,0); fill-opacity: 1"/><path d="M 1.512607576412793 1.2350388853878158 L 2.1443899703120595 1.2380641004875872 L 0.8742071919059575,2.1413616380650806z" style="fill: rgb(255,0,0); fill-opacity: 1"/><path d="M -1.512607576412793 1.2350388853878158 L -0.8742071919059575 2.1413616380650806 L -1.2380640945271226,2.144389980635887z" style="fill: rgb(255,0,0); fill-opacity: 1"/><path d="M 124.505777973526 -2.1413616380650806 L 125.04447631452834 -2.144389980635887 L 125.01649828113146,-1.2350388853878158z" style="fill: rgb(255,0,0); fill-opacity: 1"/><path d="M 122.75736358971407 -2.1413616380650806 L 121.99128312830588 -1.2350388853878158 L 121.66202224968916,-1.2380641004875872z" style="fill: rgb(255,0,0); fill-opacity: 1"/><path d="M 125.01649828113146 1.2350388853878158 L 125.95080219031328 1.2380641004875872 L 124.505777973526,2.1413616380650806z" style="fill: rgb(255,0,0); fill-opacity: 1"/><path d="M 121.99128312830588 1.2350388853878158 L 122.75736358971407 2.1413616380650806 L 122.5683481254741,2.144389980635887z" style="fill: rgb(255,0,0); fill-opacity: 1"/><path d="M 0.8742071919059575 -125.77293301488982 L 1.2380640945271226 -125.95080279668358 L 1.512607576412793,-124.7389301846965z" style="fill: rgb(255,0,0); fill-opacity: 1"/><path d="M -0.8742071919059575 -125.77293301488982 L -1.512607576412793 -124.7389301846965 L -2.1443899703120595,-125.04447691653526z" style="fill: rgb(255,0,0); fill-opacity: 1"/><path d="M 1.512607576412793 -122.26885241392085 L 2.1443899703120595 -122.56834871556009 L 0.8742071919059575,-121.49020973875965z" style="fill: rgb(255,0,0); fill-opacity: 1"/><path d="M -1.512607576412793 -122.26885241392085 L -0.8742071919059575 -121.49020973875965 L -1.2380640945271226,-121.66202283541178z" style="fill: rgb(255,0,0); fill-opacity: 1"/><path d="M -109.70520795010188 -57.431132111887685 L -109.49773395094581 -57.51235199514906 L -108.9526070572639,-56.46770904008218z" style="fill: rgb(255,0,0); fill-opacity: 1"/><path d="M -111.4536223339138 -57.431132111887685 L -111.9778222100895 -56.46770904008218 L -112.880188015785,-56.60602611500076z" style="fill: rgb(255,0,0); fill-opacity: 1"/><path d="M -108.9526070572639 -53.99763126930655 L -108.59140807516087 -54.129897914025584 L -109.70520795010188,-53.14840883575752z" style="fill: rgb(255,0,0); fill-opacity: 1"/><path d="M -111.9778222100895 -53.99763126930655 L -111.4536223339138 -53.14840883575752 L -111.97386214000005,-53.22357203387728z" style="fill: rgb(255,0,0); fill-opacity: 1"/><path d="M 0.8742071919059575 121.49020973875965 L 1.2380640945271226 121.66202283541178 L 1.512607576412793,122.26885241392085z" style="fill: rgb(255,0,0); fill-opacity: 1"/><path d="M -0.8742071919059575 121.49020973875965 L -1.512607576412793 122.26885241392085 L -2.1443899703120595,122.56834871556009z" style="fill: rgb(255,0,0); fill-opacity: 1"/><path d="M 1.512607576412793 124.7389301846965 L 2.1443899703120595 125.04447691653526 L 0.8742071919059575,125.77293301488982z" style="fill: rgb(255,0,0); fill-opacity: 1"/><path d="M -1.512607576412793 124.7389301846965 L -0.8742071919059575 125.77293301488982 L -1.2380640945271226,125.95080279668358z" style="fill: rgb(255,0,0); fill-opacity: 1"/><path d="M 0 -2.4761282009751744 L 0.8742071919059575 -2.1413616380650806 L 2.269747449822983e-16,-2.140109761209139z" style="fill: rgb(255,0,0); fill-opacity: 1"/><path d="M 0 -2.4761282009751744 L 2.269747449822983e-16 -2.140109761209139 L -0.8742071919059575,-2.1413616380650806z" style="fill: rgb(255,0,0); fill-opacity: 1"/><path d="M 2.269747449822983e-16 2.140109761209139 L 0.8742071919059575 2.1413616380650806 L 5.570396492140996e-32,2.4761282009751744z" style="fill: rgb(255,0,0); fill-opacity: 1"/><path d="M -0.8742071919059575 2.1413616380650806 L 2.269747449822983e-16 2.140109761209139 L -2.1442182287007418e-16,2.4761282009751744z" style="fill: rgb(255,0,0); fill-opacity: 1"/><path d="M 123.80641222000122 -2.4761282009751744 L 124.505777973526 -2.1413616380650806 L 123.55929363824825,-2.140109761209139z" style="fill: rgb(255,0,0); fill-opacity: 1"/><path d="M 123.80641222000122 -2.4761282009751744 L 123.55929363824825 -2.140109761209139 L 122.75736358971407,-2.1413616380650806z" style="fill: rgb(255,0,0); fill-opacity: 1"/><path d="M 123.55929363824825 2.140109761209139 L 124.505777973526 2.1413616380650806 L 123.80641222000122,2.4761282009751744z" style="fill: rgb(255,0,0); fill-opacity: 1"/><path d="M 122.75736358971407 2.1413616380650806 L 123.55929363824825 2.140109761209139 L 123.80641222000122,2.4761282009751744z" style="fill: rgb(255,0,0); fill-opacity: 1"/><path d="M 0 -126.28254101702284 L 0.8742071919059575 -125.77293301488982 L 2.269747449822983e-16,-125.69940399431414z" style="fill: rgb(255,0,0); fill-opacity: 1"/><path d="M 0 -126.28254101702284 L 2.269747449822983e-16 -125.69940399431414 L -0.8742071919059575,-125.77293301488982z" style="fill: rgb(255,0,0); fill-opacity: 1"/><path d="M 2.269747449822983e-16 -121.41918447189585 L 0.8742071919059575 -121.49020973875965 L 5.570396492140996e-32,-121.33028461507251z" style="fill: rgb(255,0,0); fill-opacity: 1"/><path d="M -0.8742071919059575 -121.49020973875965 L 2.269747449822983e-16 -121.41918447189585 L -2.1442182287007418e-16,-121.33028461507251z" style="fill: rgb(255,0,0); fill-opacity: 1"/><path d="M -110.73579804547293 -57.84409021548834 L -109.70520795010188 -57.431132111887685 L -110.51476851338656,-57.39755688394703z" style="fill: rgb(255,0,0); fill-opacity: 1"/><path d="M -110.73579804547293 -57.84409021548834 L -110.51476851338656 -57.39755688394703 L -111.4536223339138,-57.431132111887685z" style="fill: rgb(255,0,0); fill-opacity: 1"/><path d="M -110.51476851338656 -53.117337361528755 L -109.70520795010188 -53.14840883575752 L -110.73579804547293,-52.891833813538z" style="fill: rgb(255,0,0); fill-opacity: 1"/><path d="M -111.4536223339138 -53.14840883575752 L -110.51476851338656 -53.117337361528755 L -110.73579804547293,-52.891833813538z" style="fill: rgb(255,0,0); fill-opacity: 1"/><path d="M 0 121.33028461507251 L 0.8742071919059575 121.49020973875965 L 2.269747449822983e-16,121.41918447189585z" style="fill: rgb(255,0,0); fill-opacity: 1"/><path d="M 0 121.33028461507251 L 2.269747449822983e-16 121.41918447189585 L -0.8742071919059575,121.49020973875965z" style="fill: rgb(255,0,0); fill-opacity: 1"/><path d="M 2.269747449822983e-16 125.69940399431414 L 0.8742071919059575 125.77293301488982 L 5.570396492140996e-32,126.28254101702284z" style="fill: rgb(255,0,0); fill-opacity: 1"/><path d="M -0.8742071919059575 125.77293301488982 L 2.269747449822983e-16 125.69940399431414 L -2.1442182287007418e-16,126.28254101702284z" style="fill: rgb(255,0,0); fill-opacity: 1"/><path d="M 2.1443899703120595 -1.2380641004875872 L 2.4761281890542453 -1.5161912610426295e-16 L 1.7459487264908948,-1.5119149200133297e-16z" style="fill: rgb(255,0,0); fill-opacity: 1"/><path d="M -2.4761281890542453 -1.5161912610426295e-16 L -1.7459487264908948 -1.5119149200133297e-16 L -2.1443899703120595,1.2380641004875872z" style="fill: rgb(255,0,0); fill-opacity: 1"/><path d="M 125.95080219031328 -1.2380641004875872 L 126.28254040905547 -1.5161912610426295e-16 L 125.20317120119392,-1.5119149200133297e-16z" style="fill: rgb(255,0,0); fill-opacity: 1"/><path d="M 121.33028403094697 -1.5161912610426295e-16 L 121.71127374821215 -1.5119149200133297e-16 L 121.66202224968916,1.2380641004875872z" style="fill: rgb(255,0,0); fill-opacity: 1"/><path d="M 2.1443899703120595 -125.04447691653526 L 2.4761281890542453 -123.80641281604767 L 1.7459487264908948,-123.45722306906836z" style="fill: rgb(255,0,0); fill-opacity: 1"/><path d="M -2.4761281890542453 -123.80641281604767 L -1.7459487264908948 -123.45722306906836 L -2.1443899703120595,-122.56834871556009z" style="fill: rgb(255,0,0); fill-opacity: 1"/><path d="M -108.59140807516087 -56.60602611500076 L -108.25966985641868 -55.36796201451317 L -108.67752458214872,-55.21179946843138z" style="fill: rgb(255,0,0); fill-opacity: 1"/><path d="M -113.21192623452718 -55.36796201451317 L -112.16942203513051 -55.21179946843138 L -112.880188015785,-54.129897914025584z" style="fill: rgb(255,0,0); fill-opacity: 1"/><path d="M 2.1443899703120595 122.56834871556009 L 2.4761281890542453 123.80641281604767 L 1.7459487264908948,123.45722306906836z" style="fill: rgb(255,0,0); fill-opacity: 1"/><path d="M -2.4761281890542453 123.80641281604767 L -1.7459487264908948 123.45722306906836 L -2.1443899703120595,125.04447691653526z" style="fill: rgb(255,0,0); fill-opacity: 1"/><path d="M 1.2380640945271226 -2.144389980635887 L 2.1443899703120595 -1.2380641004875872 L 1.512607576412793,-1.2350388853878158z" style="fill: rgb(255,0,0); fill-opacity: 1"/><path d="M -2.1443899703120595 -1.2380641004875872 L -1.512607576412793 -1.2350388853878158 L -2.4761281890542453,-1.5161912610426295e-16z" style="fill: rgb(255,0,0); fill-opacity: 1"/><path d="M 2.4761281890542453 -1.5161912610426295e-16 L 2.1443899703120595 1.2380641004875872 L 1.512607576412793,1.2350388853878158z" style="fill: rgb(255,0,0); fill-opacity: 1"/><path d="M -2.1443899703120595 1.2380641004875872 L -1.512607576412793 1.2350388853878158 L -1.2380640945271226,2.144389980635887z" style="fill: rgb(255,0,0); fill-opacity: 1"/><path d="M 125.04447631452834 -2.144389980635887 L 125.95080219031328 -1.2380641004875872 L 125.01649828113146,-1.2350388853878158z" style="fill: rgb(255,0,0); fill-opacity: 1"/><path d="M 121.66202224968916 -1.2380641004875872 L 121.99128312830588 -1.2350388853878158 L 121.33028403094697,-1.5161912610426295e-16z" style="fill: rgb(255,0,0); fill-opacity: 1"/><path d="M 126.28254040905547 -1.5161912610426295e-16 L 125.95080219031328 1.2380641004875872 L 125.01649828113146,1.2350388853878158z" style="fill: rgb(255,0,0); fill-opacity: 1"/><path d="M 121.66202224968916 1.2380641004875872 L 121.99128312830588 1.2350388853878158 L 122.5683481254741,2.144389980635887z" style="fill: rgb(255,0,0); fill-opacity: 1"/><path d="M 1.2380640945271226 -125.95080279668358 L 2.1443899703120595 -125.04447691653526 L 1.512607576412793,-124.7389301846965z" style="fill: rgb(255,0,0); fill-opacity: 1"/><path d="M -2.1443899703120595 -125.04447691653526 L -1.512607576412793 -124.7389301846965 L -2.4761281890542453,-123.80641281604767z" style="fill: rgb(255,0,0); fill-opacity: 1"/><path d="M 2.4761281890542453 -123.80641281604767 L 2.1443899703120595 -122.56834871556009 L 1.512607576412793,-122.26885241392085z" style="fill: rgb(255,0,0); fill-opacity: 1"/><path d="M -2.1443899703120595 -122.56834871556009 L -1.512607576412793 -122.26885241392085 L -1.2380640945271226,-121.66202283541178z" style="fill: rgb(255,0,0); fill-opacity: 1"/><path d="M -109.49773395094581 -57.51235199514906 L -108.59140807516087 -56.60602611500076 L -108.9526070572639,-56.46770904008218z" style="fill: rgb(255,0,0); fill-opacity: 1"/><path d="M -112.880188015785 -56.60602611500076 L -111.9778222100895 -56.46770904008218 L -113.21192623452718,-55.36796201451317z" style="fill: rgb(255,0,0); fill-opacity: 1"/><path d="M -108.25966985641868 -55.36796201451317 L -108.59140807516087 -54.129897914025584 L -108.9526070572639,-53.99763126930655z" style="fill: rgb(255,0,0); fill-opacity: 1"/><path d="M -112.880188015785 -54.129897914025584 L -111.9778222100895 -53.99763126930655 L -111.97386214000005,-53.22357203387728z" style="fill: rgb(255,0,0); fill-opacity: 1"/><path d="M 1.2380640945271226 121.66202283541178 L 2.1443899703120595 122.56834871556009 L 1.512607576412793,122.26885241392085z" style="fill: rgb(255,0,0); fill-opacity: 1"/><path d="M -2.1443899703120595 122.56834871556009 L -1.512607576412793 122.26885241392085 L -2.4761281890542453,123.80641281604767z" style="fill: rgb(255,0,0); fill-opacity: 1"/><path d="M 2.4761281890542453 123.80641281604767 L 2.1443899703120595 125.04447691653526 L 1.512607576412793,124.7389301846965z" style="fill: rgb(255,0,0); fill-opacity: 1"/><path d="M -2.1443899703120595 125.04447691653526 L -1.512607576412793 124.7389301846965 L -1.2380640945271226,125.95080279668358z" style="fill: rgb(255,0,0); fill-opacity: 1"/><path d="M 0 -2.4761282009751744 L 1.2380640945271226 -2.144389980635887 L 0.8742071919059575,-2.1413616380650806z" style="fill: rgb(255,0,0); fill-opacity: 1"/><path d="M 0 -2.4761282009751744 L -0.8742071919059575 -2.1413616380650806 L -1.2380640945271226,-2.144389980635887z" style="fill: rgb(255,0,0); fill-opacity: 1"/><path d="M -1.2380640945271226 -2.144389980635887 L -0.8742071919059575 -2.1413616380650806 L -2.1443899703120595,-1.2380641004875872z" style="fill: rgb(255,0,0); fill-opacity: 1"/><path d="M 2.1443899703120595 1.2380641004875872 L 1.2380640945271226 2.144389980635887 L 0.8742071919059575,2.1413616380650806z" style="fill: rgb(255,0,0); fill-opacity: 1"/><path d="M 0.8742071919059575 2.1413616380650806 L 1.2380640945271226 2.144389980635887 L 2.1442182287007418e-16,2.4761282009751744z" style="fill: rgb(255,0,0); fill-opacity: 1"/><path d="M -1.2380640945271226 2.144389980635887 L -0.8742071919059575 2.1413616380650806 L -3.0323825074863313e-16,2.4761282009751744z" style="fill: rgb(255,0,0); fill-opacity: 1"/><path d="M 123.80641222000122 -2.4761282009751744 L 125.04447631452834 -2.144389980635887 L 124.505777973526,-2.1413616380650806z" style="fill: rgb(255,0,0); fill-opacity: 1"/><path d="M 123.80641222000122 -2.4761282009751744 L 122.75736358971407 -2.1413616380650806 L 122.5683481254741,-2.144389980635887z" style="fill: rgb(255,0,0); fill-opacity: 1"/><path d="M 122.5683481254741 -2.144389980635887 L 122.75736358971407 -2.1413616380650806 L 121.66202224968916,-1.2380641004875872z" style="fill: rgb(255,0,0); fill-opacity: 1"/><path d="M 125.95080219031328 1.2380641004875872 L 125.04447631452834 2.144389980635887 L 124.505777973526,2.1413616380650806z" style="fill: rgb(255,0,0); fill-opacity: 1"/><path d="M 124.505777973526 2.1413616380650806 L 125.04447631452834 2.144389980635887 L 123.80641222000122,2.4761282009751744z" style="fill: rgb(255,0,0); fill-opacity: 1"/><path d="M 122.5683481254741 2.144389980635887 L 122.75736358971407 2.1413616380650806 L 123.80641222000122,2.4761282009751744z" style="fill: rgb(255,0,0); fill-opacity: 1"/><path d="M 0 -126.28254101702284 L 1.2380640945271226 -125.95080279668358 L 0.8742071919059575,-125.77293301488982z" style="fill: rgb(255,0,0); fill-opacity: 1"/><path d="M 0 -126.28254101702284 L -0.8742071919059575 -125.77293301488982 L -1.2380640945271226,-125.95080279668358z" style="fill: rgb(255,0,0); fill-opacity: 1"/><path d="M -1.2380640945271226 -125.95080279668358 L -0.8742071919059575 -125.77293301488982 L -2.1443899703120595,-125.04447691653526z" style="fill: rgb(255,0,0); fill-opacity: 1"/><path d="M 2.1443899703120595 -122.56834871556009 L 1.2380640945271226 -121.66202283541178 L 0.8742071919059575,-121.49020973875965z" style="fill: rgb(255,0,0); fill-opacity: 1"/><path d="M 0.8742071919059575 -121.49020973875965 L 1.2380640945271226 -121.66202283541178 L 2.1442182287007418e-16,-121.33028461507251z" style="fill: rgb(255,0,0); fill-opacity: 1"/><path d="M -1.2380640945271226 -121.66202283541178 L -0.8742071919059575 -121.49020973875965 L -3.0323825074863313e-16,-121.33028461507251z" style="fill: rgb(255,0,0); fill-opacity: 1"/><path d="M -110.73579804547293 -57.84409021548834 L -109.49773395094581 -57.51235199514906 L -109.70520795010188,-57.431132111887685z" style="fill: rgb(255,0,0); fill-opacity: 1"/><path d="M -110.73579804547293 -57.84409021548834 L -111.4536223339138 -57.431132111887685 L -111.97386214000005,-57.51235199514906z" style="fill: rgb(255,0,0); fill-opacity: 1"/><path d="M -111.97386214000005 -57.51235199514906 L -111.4536223339138 -57.431132111887685 L -112.880188015785,-56.60602611500076z" style="fill: rgb(255,0,0); fill-opacity: 1"/><path d="M -108.59140807516087 -54.129897914025584 L -109.49773395094581 -53.22357203387728 L -109.70520795010188,-53.14840883575752z" style="fill: rgb(255,0,0); fill-opacity: 1"/><path d="M -109.70520795010188 -53.14840883575752 L -109.49773395094581 -53.22357203387728 L -110.73579804547293,-52.891833813538z" style="fill: rgb(255,0,0); fill-opacity: 1"/><path d="M -111.97386214000005 -53.22357203387728 L -111.4536223339138 -53.14840883575752 L -110.73579804547293,-52.891833813538z" style="fill: rgb(255,0,0); fill-opacity: 1"/><path d="M 0 121.33028461507251 L 1.2380640945271226 121.66202283541178 L 0.8742071919059575,121.49020973875965z" style="fill: rgb(255,0,0); fill-opacity: 1"/><path d="M 0 121.33028461507251 L -0.8742071919059575 121.49020973875965 L -1.2380640945271226,121.66202283541178z" style="fill: rgb(255,0,0); fill-opacity: 1"/><path d="M -1.2380640945271226 121.66202283541178 L -0.8742071919059575 121.49020973875965 L -2.1443899703120595,122.56834871556009z" style="fill: rgb(255,0,0); fill-opacity: 1"/><path d="M 2.1443899703120595 125.04447691653526 L 1.2380640945271226 125.95080279668358 L 0.8742071919059575,125.77293301488982z" style="fill: rgb(255,0,0); fill-opacity: 1"/><path d="M 0.8742071919059575 125.77293301488982 L 1.2380640945271226 125.95080279668358 L 2.1442182287007418e-16,126.28254101702284z" style="fill: rgb(255,0,0); fill-opacity: 1"/><path d="M -1.2380640945271226 125.95080279668358 L -0.8742071919059575 125.77293301488982 L -3.0323825074863313e-16,126.28254101702284z" style="fill: rgb(255,0,0); fill-opacity: 1"/><line x1="0" y1="0" x2="123.80641222000122" y2="0" style="fill: none; stroke: rgb(0,0,0); stroke-width: 1.5; stroke-opacity: 1; stroke-linecap: round; stroke-linejoin: round"/><line x1="0" y1="0" x2="0" y2="-123.80641281604767" style="fill: none; stroke: rgb(0,0,0); stroke-width: 1.5; stroke-opacity: 1; stroke-linecap: round; stroke-linejoin: round"/><line x1="0" y1="0" x2="-110.73579786269903" y2="-55.36796110111595" style="fill: none; stroke: rgb(0,0,0); stroke-width: 1.5; stroke-opacity: 1; stroke-linecap: round; stroke-linejoin: round"/><line x1="0" y1="0" x2="0" y2="123.80641281604767" style="fill: none; stroke: rgb(0,0,0); stroke-width: 1.5; stroke-opacity: 1; stroke-linecap: round; stroke-linejoin: round"/><path d="M 16.50752249026784 -16.507522569740704 L 140.31393471026905 -16.507522569740704 L 16.50752249026784,-140.3139353857884z" style="fill: rgb(119,236,158); fill-opacity: 1"/><line x1="140.31393483281136" y1="-16.507522463798527" x2="16.507522612810135" y2="-16.507522463798527" style="fill: none; stroke: rgb(0,0,0); stroke-width: 1.5; stroke-opacity: 1; stroke-linecap: round; stroke-linejoin: round"/><line x1="16.507522612810135" y1="-140.3139352798462" x2="140.31393483281136" y2="-16.507522463798527" style="fill: none; stroke: rgb(0,0,0); stroke-width: 1.5; stroke-opacity: 1; stroke-linecap: round; stroke-linejoin: round"/><line x1="16.507522612810135" y1="-16.507522463798527" x2="16.507522612810135" y2="-140.3139352798462" style="fill: none; stroke: rgb(0,0,0); stroke-width: 1.5; stroke-opacity: 1; stroke-linecap: round; stroke-linejoin: round"/><path d="M -14.764773380206275 -147.69632995208494 L -125.50057124290528 -79.25787823715321 L -14.764773380206275,-23.889917136037262z" style="fill: rgb(119,236,158); fill-opacity: 1"/><line x1="-125.50057085900548" y1="-79.25787719327332" x2="-14.764772996306421" y2="-147.69632890820503" style="fill: none; stroke: rgb(0,0,0); stroke-width: 1.5; stroke-opacity: 1; stroke-linecap: round; stroke-linejoin: round"/><line x1="-14.764772996306421" y1="-23.889916092157367" x2="-125.50057085900548" y2="-79.25787719327332" style="fill: none; stroke: rgb(0,0,0); stroke-width: 1.5; stroke-opacity: 1; stroke-linecap: round; stroke-linejoin: round"/><line x1="-14.764772996306421" y1="-147.69632890820503" x2="-14.764772996306421" y2="-23.889916092157367" style="fill: none; stroke: rgb(0,0,0); stroke-width: 1.5; stroke-opacity: 1; stroke-linecap: round; stroke-linejoin: round"/><path d="M -14.764773380206275 9.125127081014487 L -125.50057124290528 -46.24283402010146 L -14.764773380206275,132.93153989706215z" style="fill: rgb(119,236,158); fill-opacity: 1"/><line x1="-125.50057085900548" y1="-46.242833681286584" x2="-14.764772996306421" y2="9.125127419829369" style="fill: none; stroke: rgb(0,0,0); stroke-width: 1.5; stroke-opacity: 1; stroke-linecap: round; stroke-linejoin: round"/><line x1="-14.764772996306421" y1="132.93154023587704" x2="-125.50057085900548" y2="-46.242833681286584" style="fill: none; stroke: rgb(0,0,0); stroke-width: 1.5; stroke-opacity: 1; stroke-linecap: round; stroke-linejoin: round"/><line x1="-14.764772996306421" y1="9.125127419829369" x2="-14.764772996306421" y2="132.93154023587704" style="fill: none; stroke: rgb(0,0,0); stroke-width: 1.5; stroke-opacity: 1; stroke-linecap: round; stroke-linejoin: round"/><path d="M 16.50752249026784 140.3139353857884 L 140.31393471026905 16.507522569740704 L 16.50752249026784,16.507522569740704z" style="fill: rgb(119,236,158); fill-opacity: 1"/><line x1="140.31393483281136" y1="16.507522463798527" x2="16.507522612810135" y2="140.3139352798462" style="fill: none; stroke: rgb(0,0,0); stroke-width: 1.5; stroke-opacity: 1; stroke-linecap: round; stroke-linejoin: round"/><line x1="16.507522612810135" y1="16.507522463798527" x2="140.31393483281136" y2="16.507522463798527" style="fill: none; stroke: rgb(0,0,0); stroke-width: 1.5; stroke-opacity: 1; stroke-linecap: round; stroke-linejoin: round"/><line x1="16.507522612810135" y1="140.3139352798462" x2="16.507522612810135" y2="16.507522463798527" style="fill: none; stroke: rgb(0,0,0); stroke-width: 1.5; stroke-opacity: 1; stroke-linecap: round; stroke-linejoin: round"/><path d="M 0 -2.4761282009751744 L -1.2380640945271226 -2.144389980635887 L -0.8766833249395982,-2.147426900783206z" style="fill: rgb(255,0,0); fill-opacity: 1"/><path d="M 0 -2.4761282009751744 L 0.8766833249395982 -2.147426900783206 L 1.2380640945271226,-2.144389980635887z" style="fill: rgb(255,0,0); fill-opacity: 1"/><path d="M 1.2380640945271226 -2.144389980635887 L 0.8766833249395982 -2.147426900783206 L 2.1443899703120595,-1.2380641004875872z" style="fill: rgb(255,0,0); fill-opacity: 1"/><path d="M -2.1443899703120595 1.2380641004875872 L -1.2380640945271226 2.144389980635887 L -0.8766833249395982,2.147426900783206z" style="fill: rgb(255,0,0); fill-opacity: 1"/><path d="M -0.8766833249395982 2.147426900783206 L -1.2380640945271226 2.144389980635887 L -2.1442182287007418e-16,2.4761282009751744z" style="fill: rgb(255,0,0); fill-opacity: 1"/><path d="M 1.2380640945271226 2.144389980635887 L 0.8766833249395982 2.147426900783206 L 3.0323825074863313e-16,2.4761282009751744z" style="fill: rgb(255,0,0); fill-opacity: 1"/><path d="M 123.80641222000122 -2.4761282009751744 L 122.5683481254741 -2.144389980635887 L 123.10506556004954,-2.147426900783206z" style="fill: rgb(255,0,0); fill-opacity: 1"/><path d="M 123.80641222000122 -2.4761282009751744 L 124.85843220992874 -2.147426900783206 L 125.04447631452834,-2.144389980635887z" style="fill: rgb(255,0,0); fill-opacity: 1"/><path d="M 125.04447631452834 -2.144389980635887 L 124.85843220992874 -2.147426900783206 L 125.95080219031328,-1.2380641004875872z" style="fill: rgb(255,0,0); fill-opacity: 1"/><path d="M 121.66202224968916 1.2380641004875872 L 122.5683481254741 2.144389980635887 L 123.10506556004954,2.147426900783206z" style="fill: rgb(255,0,0); fill-opacity: 1"/><path d="M 123.10506556004954 2.147426900783206 L 122.5683481254741 2.144389980635887 L 123.80641222000122,2.4761282009751744z" style="fill: rgb(255,0,0); fill-opacity: 1"/><path d="M 125.04447631452834 2.144389980635887 L 124.85843220992874 2.147426900783206 L 123.80641222000122,2.4761282009751744z" style="fill: rgb(255,0,0); fill-opacity: 1"/><path d="M 0 -126.28254101702284 L -1.2380640945271226 -125.95080279668358 L -0.8766833249395982,-126.12917638266292z" style="fill: rgb(255,0,0); fill-opacity: 1"/><path d="M 0 -126.28254101702284 L 0.8766833249395982 -126.12917638266292 L 1.2380640945271226,-125.95080279668358z" style="fill: rgb(255,0,0); fill-opacity: 1"/><path d="M 1.2380640945271226 -125.95080279668358 L 0.8766833249395982 -126.12917638266292 L 2.1443899703120595,-125.04447691653526z" style="fill: rgb(255,0,0); fill-opacity: 1"/><path d="M -2.1443899703120595 -122.56834871556009 L -1.2380640945271226 -121.66202283541178 L -0.8766833249395982,-121.83432258109652z" style="fill: rgb(255,0,0); fill-opacity: 1"/><path d="M -0.8766833249395982 -121.83432258109652 L -1.2380640945271226 -121.66202283541178 L -2.1442182287007418e-16,-121.33028461507251z" style="fill: rgb(255,0,0); fill-opacity: 1"/><path d="M 1.2380640945271226 -121.66202283541178 L 0.8766833249395982 -121.83432258109652 L 3.0323825074863313e-16,-121.33028461507251z" style="fill: rgb(255,0,0); fill-opacity: 1"/><path d="M -110.73579804547293 -57.84409021548834 L -111.97386214000005 -57.51235199514906 L -111.76930721792654,-57.59380192826336z" style="fill: rgb(255,0,0); fill-opacity: 1"/><path d="M -110.73579804547293 -57.84409021548834 L -110.01594056804734 -57.59380192826336 L -109.49773395094581,-57.51235199514906z" style="fill: rgb(255,0,0); fill-opacity: 1"/><path d="M -109.49773395094581 -57.51235199514906 L -110.01594056804734 -57.59380192826336 L -108.59140807516087,-56.60602611500076z" style="fill: rgb(255,0,0); fill-opacity: 1"/><path d="M -112.880188015785 -54.129897914025584 L -111.97386214000005 -53.22357203387728 L -111.76930721792654,-53.29894812669695z" style="fill: rgb(255,0,0); fill-opacity: 1"/><path d="M -111.76930721792654 -53.29894812669695 L -111.97386214000005 -53.22357203387728 L -110.73579804547293,-52.891833813538z" style="fill: rgb(255,0,0); fill-opacity: 1"/><path d="M -109.49773395094581 -53.22357203387728 L -110.01594056804734 -53.29894812669695 L -110.73579804547293,-52.891833813538z" style="fill: rgb(255,0,0); fill-opacity: 1"/><path d="M 0 121.33028461507251 L -1.2380640945271226 121.66202283541178 L -0.8766833249395982,121.83432258109652z" style="fill: rgb(255,0,0); fill-opacity: 1"/><path d="M 0 121.33028461507251 L 0.8766833249395982 121.83432258109652 L 1.2380640945271226,121.66202283541178z" style="fill: rgb(255,0,0); fill-opacity: 1"/><path d="M 1.2380640945271226 121.66202283541178 L 0.8766833249395982 121.83432258109652 L 2.1443899703120595,122.56834871556009z" style="fill: rgb(255,0,0); fill-opacity: 1"/><path d="M -2.1443899703120595 125.04447691653526 L -1.2380640945271226 125.95080279668358 L -0.8766833249395982,126.12917638266292z" style="fill: rgb(255,0,0); fill-opacity: 1"/><path d="M -0.8766833249395982 126.12917638266292 L -1.2380640945271226 125.95080279668358 L -2.1442182287007418e-16,126.28254101702284z" style="fill: rgb(255,0,0); fill-opacity: 1"/><path d="M 1.2380640945271226 125.95080279668358 L 0.8766833249395982 126.12917638266292 L 3.0323825074863313e-16,126.28254101702284z" style="fill: rgb(255,0,0); fill-opacity: 1"/><path d="M -1.2380640945271226 -2.144389980635887 L -2.1443899703120595 -1.2380641004875872 L -1.5200360058053377,-1.2411041724458827z" style="fill: rgb(255,0,0); fill-opacity: 1"/><path d="M 2.1443899703120595 -1.2380641004875872 L 1.5200360058053377 -1.2411041724458827 L 2.4761281890542453,-1.5161912610426295e-16z" style="fill: rgb(255,0,0); fill-opacity: 1"/><path d="M -2.4761281890542453 -1.5161912610426295e-16 L -2.1443899703120595 1.2380641004875872 L -1.5200360058053377,1.2411041724458827z" style="fill: rgb(255,0,0); fill-opacity: 1"/><path d="M 2.1443899703120595 1.2380641004875872 L 1.5200360058053377 1.2411041724458827 L 1.2380640945271226,2.144389980635887z" style="fill: rgb(255,0,0); fill-opacity: 1"/><path d="M 122.5683481254741 -2.144389980635887 L 121.66202224968916 -1.2380641004875872 L 122.59038341535695,-1.2411041724458827z" style="fill: rgb(255,0,0); fill-opacity: 1"/><path d="M 125.95080219031328 -1.2380641004875872 L 125.63045542696763 -1.2411041724458827 L 126.28254040905547,-1.5161912610426295e-16z" style="fill: rgb(255,0,0); fill-opacity: 1"/><path d="M 121.33028403094697 -1.5161912610426295e-16 L 121.66202224968916 1.2380641004875872 L 122.59038341535695,1.2411041724458827z" style="fill: rgb(255,0,0); fill-opacity: 1"/><path d="M 125.95080219031328 1.2380641004875872 L 125.63045542696763 1.2411041724458827 L 125.04447631452834,2.144389980635887z" style="fill: rgb(255,0,0); fill-opacity: 1"/><path d="M -1.2380640945271226 -125.95080279668358 L -2.1443899703120595 -125.04447691653526 L -1.5200360058053377,-125.3515241911182z" style="fill: rgb(255,0,0); fill-opacity: 1"/><path d="M 2.1443899703120595 -125.04447691653526 L 1.5200360058053377 -125.3515241911182 L 2.4761281890542453,-123.80641281604767z" style="fill: rgb(255,0,0); fill-opacity: 1"/><path d="M -2.4761281890542453 -123.80641281604767 L -2.1443899703120595 -122.56834871556009 L -1.5200360058053377,-122.86931584622644z" style="fill: rgb(255,0,0); fill-opacity: 1"/><path d="M 2.1443899703120595 -122.56834871556009 L 1.5200360058053377 -122.86931584622644 L 1.2380640945271226,-121.66202283541178z" style="fill: rgb(255,0,0); fill-opacity: 1"/><path d="M -111.97386214000005 -57.51235199514906 L -112.880188015785 -56.60602611500076 L -112.52774630063996,-56.745022466316485z" style="fill: rgb(255,0,0); fill-opacity: 1"/><path d="M -108.59140807516087 -56.60602611500076 L -109.48767428902929 -56.745022466316485 L -108.25966985641868,-55.36796201451317z" style="fill: rgb(255,0,0); fill-opacity: 1"/><path d="M -113.21192623452718 -55.36796201451317 L -112.880188015785 -54.129897914025584 L -112.52774630063996,-54.262814121424725z" style="fill: rgb(255,0,0); fill-opacity: 1"/><path d="M -108.59140807516087 -54.129897914025584 L -109.48767428902929 -54.262814121424725 L -109.49773395094581,-53.22357203387728z" style="fill: rgb(255,0,0); fill-opacity: 1"/><path d="M -1.2380640945271226 121.66202283541178 L -2.1443899703120595 122.56834871556009 L -1.5200360058053377,122.86931584622644z" style="fill: rgb(255,0,0); fill-opacity: 1"/><path d="M 2.1443899703120595 122.56834871556009 L 1.5200360058053377 122.86931584622644 L 2.4761281890542453,123.80641281604767z" style="fill: rgb(255,0,0); fill-opacity: 1"/><path d="M -2.4761281890542453 123.80641281604767 L -2.1443899703120595 125.04447691653526 L -1.5200360058053377,125.3515241911182z" style="fill: rgb(255,0,0); fill-opacity: 1"/><path d="M 2.1443899703120595 125.04447691653526 L 1.5200360058053377 125.3515241911182 L 1.2380640945271226,125.95080279668358z" style="fill: rgb(255,0,0); fill-opacity: 1"/><path d="M -2.1443899703120595 -1.2380641004875872 L -2.4761281890542453 -1.5161912610426295e-16 L -1.755853318053122,-1.5204918613245825e-16z" style="fill: rgb(255,0,0); fill-opacity: 1"/><path d="M 2.4761281890542453 -1.5161912610426295e-16 L 1.755853318053122 -1.5204918613245825e-16 L 2.1443899703120595,1.2380641004875872z" style="fill: rgb(255,0,0); fill-opacity: 1"/><path d="M 121.66202224968916 -1.2380641004875872 L 121.33028403094697 -1.5161912610426295e-16 L 122.40172956555871,-1.5204918613245825e-16z" style="fill: rgb(255,0,0); fill-opacity: 1"/><path d="M 126.28254040905547 -1.5161912610426295e-16 L 125.91343620166495 -1.5204918613245825e-16 L 125.95080219031328,1.2380641004875872z" style="fill: rgb(255,0,0); fill-opacity: 1"/><path d="M -2.1443899703120595 -125.04447691653526 L -2.4761281890542453 -123.80641281604767 L -1.755853318053122,-124.15758348134895z" style="fill: rgb(255,0,0); fill-opacity: 1"/><path d="M 2.4761281890542453 -123.80641281604767 L 1.755853318053122 -124.15758348134895 L 2.1443899703120595,-122.56834871556009z" style="fill: rgb(255,0,0); fill-opacity: 1"/><path d="M -112.880188015785 -56.60602611500076 L -113.21192623452718 -55.36796201451317 L -112.80574788718573,-55.525010455016016z" style="fill: rgb(255,0,0); fill-opacity: 1"/><path d="M -108.25966985641868 -55.36796201451317 L -109.29404125107949 -55.525010455016016 L -108.59140807516087,-54.129897914025584z" style="fill: rgb(255,0,0); fill-opacity: 1"/><path d="M -2.1443899703120595 122.56834871556009 L -2.4761281890542453 123.80641281604767 L -1.755853318053122,124.15758348134895z" style="fill: rgb(255,0,0); fill-opacity: 1"/><path d="M 2.4761281890542453 123.80641281604767 L 1.755853318053122 124.15758348134895 L 2.1443899703120595,125.04447691653526z" style="fill: rgb(255,0,0); fill-opacity: 1"/><path d="M 0 -2.4761282009751744 L -0.8766833249395982 -2.147426900783206 L -7.596148565507269e-17,-2.148687355250334z" style="fill: rgb(255,0,0); fill-opacity: 1"/><path d="M 0 -2.4761282009751744 L -7.596148565507269e-17 -2.148687355250334 L 0.8766833249395982,-2.147426900783206z" style="fill: rgb(255,0,0); fill-opacity: 1"/><path d="M -7.596148565507269e-17 2.148687355250334 L -0.8766833249395982 2.147426900783206 L -1.856798735965138e-32,2.4761282009751744z" style="fill: rgb(255,0,0); fill-opacity: 1"/><path d="M 0.8766833249395982 2.147426900783206 L -7.596148565507269e-17 2.148687355250334 L 2.1442182287007418e-16,2.4761282009751744z" style="fill: rgb(255,0,0); fill-opacity: 1"/><path d="M 123.80641222000122 -2.4761282009751744 L 123.10506556004954 -2.147426900783206 L 124.05452125696948,-2.148687355250334z" style="fill: rgb(255,0,0); fill-opacity: 1"/><path d="M 123.80641222000122 -2.4761282009751744 L 124.05452125696948 -2.148687355250334 L 124.85843220992874,-2.147426900783206z" style="fill: rgb(255,0,0); fill-opacity: 1"/><path d="M 124.05452125696948 2.148687355250334 L 123.10506556004954 2.147426900783206 L 123.80641222000122,2.4761282009751744z" style="fill: rgb(255,0,0); fill-opacity: 1"/><path d="M 124.85843220992874 2.147426900783206 L 124.05452125696948 2.148687355250334 L 123.80641222000122,2.4761282009751744z" style="fill: rgb(255,0,0); fill-opacity: 1"/><path d="M 0 -126.28254101702284 L -0.8766833249395982 -126.12917638266292 L -7.596148565507269e-17,-126.20320920946074z" style="fill: rgb(255,0,0); fill-opacity: 1"/><path d="M 0 -126.28254101702284 L -7.596148565507269e-17 -126.20320920946074 L 0.8766833249395982,-126.12917638266292z" style="fill: rgb(255,0,0); fill-opacity: 1"/><path d="M -7.596148565507269e-17 -121.90583449896009 L -0.8766833249395982 -121.83432258109652 L -1.856798735965138e-32,-121.33028461507251z" style="fill: rgb(255,0,0); fill-opacity: 1"/><path d="M 0.8766833249395982 -121.83432258109652 L -7.596148565507269e-17 -121.90583449896009 L 2.1442182287007418e-16,-121.33028461507251z" style="fill: rgb(255,0,0); fill-opacity: 1"/><path d="M -110.73579804547293 -57.84409021548834 L -111.76930721792654 -57.59380192826336 L -110.95771346744763,-57.62760720698688z" style="fill: rgb(255,0,0); fill-opacity: 1"/><path d="M -110.73579804547293 -57.84409021548834 L -110.95771346744763 -57.62760720698688 L -110.01594056804734,-57.59380192826336z" style="fill: rgb(255,0,0); fill-opacity: 1"/><path d="M -110.95771346744763 -53.33023249648621 L -111.76930721792654 -53.29894812669695 L -110.73579804547293,-52.891833813538z" style="fill: rgb(255,0,0); fill-opacity: 1"/><path d="M -110.01594056804734 -53.29894812669695 L -110.95771346744763 -53.33023249648621 L -110.73579804547293,-52.891833813538z" style="fill: rgb(255,0,0); fill-opacity: 1"/><path d="M 0 121.33028461507251 L -0.8766833249395982 121.83432258109652 L -7.596148565507269e-17,121.90583449896009z" style="fill: rgb(255,0,0); fill-opacity: 1"/><path d="M 0 121.33028461507251 L -7.596148565507269e-17 121.90583449896009 L 0.8766833249395982,121.83432258109652z" style="fill: rgb(255,0,0); fill-opacity: 1"/><path d="M -7.596148565507269e-17 126.20320920946074 L -0.8766833249395982 126.12917638266292 L -1.856798735965138e-32,126.28254101702284z" style="fill: rgb(255,0,0); fill-opacity: 1"/><path d="M 0.8766833249395982 126.12917638266292 L -7.596148565507269e-17 126.20320920946074 L 2.1442182287007418e-16,126.28254101702284z" style="fill: rgb(255,0,0); fill-opacity: 1"/><path d="M -0.8766833249395982 -2.147426900783206 L -1.2380640945271226 -2.144389980635887 L -1.5200360058053377,-1.2411041724458827z" style="fill: rgb(255,0,0); fill-opacity: 1"/><path d="M 0.8766833249395982 -2.147426900783206 L 1.5200360058053377 -1.2411041724458827 L 2.1443899703120595,-1.2380641004875872z" style="fill: rgb(255,0,0); fill-opacity: 1"/><path d="M -1.5200360058053377 1.2411041724458827 L -2.1443899703120595 1.2380641004875872 L -0.8766833249395982,2.147426900783206z" style="fill: rgb(255,0,0); fill-opacity: 1"/><path d="M 1.5200360058053377 1.2411041724458827 L 0.8766833249395982 2.147426900783206 L 1.2380640945271226,2.144389980635887z" style="fill: rgb(255,0,0); fill-opacity: 1"/><path d="M 123.10506556004954 -2.147426900783206 L 122.5683481254741 -2.144389980635887 L 122.59038341535695,-1.2411041724458827z" style="fill: rgb(255,0,0); fill-opacity: 1"/><path d="M 124.85843220992874 -2.147426900783206 L 125.63045542696763 -1.2411041724458827 L 125.95080219031328,-1.2380641004875872z" style="fill: rgb(255,0,0); fill-opacity: 1"/><path d="M 122.59038341535695 1.2411041724458827 L 121.66202224968916 1.2380641004875872 L 123.10506556004954,2.147426900783206z" style="fill: rgb(255,0,0); fill-opacity: 1"/><path d="M 125.63045542696763 1.2411041724458827 L 124.85843220992874 2.147426900783206 L 125.04447631452834,2.144389980635887z" style="fill: rgb(255,0,0); fill-opacity: 1"/><path d="M -0.8766833249395982 -126.12917638266292 L -1.2380640945271226 -125.95080279668358 L -1.5200360058053377,-125.3515241911182z" style="fill: rgb(255,0,0); fill-opacity: 1"/><path d="M 0.8766833249395982 -126.12917638266292 L 1.5200360058053377 -125.3515241911182 L 2.1443899703120595,-125.04447691653526z" style="fill: rgb(255,0,0); fill-opacity: 1"/><path d="M -1.5200360058053377 -122.86931584622644 L -2.1443899703120595 -122.56834871556009 L -0.8766833249395982,-121.83432258109652z" style="fill: rgb(255,0,0); fill-opacity: 1"/><path d="M 1.5200360058053377 -122.86931584622644 L 0.8766833249395982 -121.83432258109652 L 1.2380640945271226,-121.66202283541178z" style="fill: rgb(255,0,0); fill-opacity: 1"/><path d="M -111.76930721792654 -57.59380192826336 L -111.97386214000005 -57.51235199514906 L -112.52774630063996,-56.745022466316485z" style="fill: rgb(255,0,0); fill-opacity: 1"/><path d="M -110.01594056804734 -57.59380192826336 L -109.48767428902929 -56.745022466316485 L -108.59140807516087,-56.60602611500076z" style="fill: rgb(255,0,0); fill-opacity: 1"/><path d="M -112.52774630063996 -54.262814121424725 L -112.880188015785 -54.129897914025584 L -111.76930721792654,-53.29894812669695z" style="fill: rgb(255,0,0); fill-opacity: 1"/><path d="M -109.48767428902929 -54.262814121424725 L -110.01594056804734 -53.29894812669695 L -109.49773395094581,-53.22357203387728z" style="fill: rgb(255,0,0); fill-opacity: 1"/><path d="M -0.8766833249395982 121.83432258109652 L -1.2380640945271226 121.66202283541178 L -1.5200360058053377,122.86931584622644z" style="fill: rgb(255,0,0); fill-opacity: 1"/><path d="M 0.8766833249395982 121.83432258109652 L 1.5200360058053377 122.86931584622644 L 2.1443899703120595,122.56834871556009z" style="fill: rgb(255,0,0); fill-opacity: 1"/><path d="M -1.5200360058053377 125.3515241911182 L -2.1443899703120595 125.04447691653526 L -0.8766833249395982,126.12917638266292z" style="fill: rgb(255,0,0); fill-opacity: 1"/><path d="M 1.5200360058053377 125.3515241911182 L 0.8766833249395982 126.12917638266292 L 1.2380640945271226,125.95080279668358z" style="fill: rgb(255,0,0); fill-opacity: 1"/><path d="M -1.5200360058053377 -1.2411041724458827 L -2.1443899703120595 -1.2380641004875872 L -1.755853318053122,-1.5204918613245825e-16z" style="fill: rgb(255,0,0); fill-opacity: 1"/><path d="M 1.5200360058053377 -1.2411041724458827 L 1.755853318053122 -1.5204918613245825e-16 L 2.4761281890542453,-1.5161912610426295e-16z" style="fill: rgb(255,0,0); fill-opacity: 1"/><path d="M -1.755853318053122 -1.5204918613245825e-16 L -2.4761281890542453 -1.5161912610426295e-16 L -1.5200360058053377,1.2411041724458827z" style="fill: rgb(255,0,0); fill-opacity: 1"/><path d="M 1.755853318053122 -1.5204918613245825e-16 L 1.5200360058053377 1.2411041724458827 L 2.1443899703120595,1.2380641004875872z" style="fill: rgb(255,0,0); fill-opacity: 1"/><path d="M 122.59038341535695 -1.2411041724458827 L 121.66202224968916 -1.2380641004875872 L 122.40172956555871,-1.5204918613245825e-16z" style="fill: rgb(255,0,0); fill-opacity: 1"/><path d="M 125.63045542696763 -1.2411041724458827 L 125.91343620166495 -1.5204918613245825e-16 L 126.28254040905547,-1.5161912610426295e-16z" style="fill: rgb(255,0,0); fill-opacity: 1"/><path d="M 122.40172956555871 -1.5204918613245825e-16 L 121.33028403094697 -1.5161912610426295e-16 L 122.59038341535695,1.2411041724458827z" style="fill: rgb(255,0,0); fill-opacity: 1"/><path d="M 125.91343620166495 -1.5204918613245825e-16 L 125.63045542696763 1.2411041724458827 L 125.95080219031328,1.2380641004875872z" style="fill: rgb(255,0,0); fill-opacity: 1"/><path d="M -1.5200360058053377 -125.3515241911182 L -2.1443899703120595 -125.04447691653526 L -1.755853318053122,-124.15758348134895z" style="fill: rgb(255,0,0); fill-opacity: 1"/><path d="M 1.5200360058053377 -125.3515241911182 L 1.755853318053122 -124.15758348134895 L 2.4761281890542453,-123.80641281604767z" style="fill: rgb(255,0,0); fill-opacity: 1"/><path d="M -1.755853318053122 -124.15758348134895 L -2.4761281890542453 -123.80641281604767 L -1.5200360058053377,-122.86931584622644z" style="fill: rgb(255,0,0); fill-opacity: 1"/><path d="M 1.755853318053122 -124.15758348134895 L 1.5200360058053377 -122.86931584622644 L 2.1443899703120595,-122.56834871556009z" style="fill: rgb(255,0,0); fill-opacity: 1"/><path d="M -112.52774630063996 -56.745022466316485 L -112.880188015785 -56.60602611500076 L -112.80574788718573,-55.525010455016016z" style="fill: rgb(255,0,0); fill-opacity: 1"/><path d="M -109.48767428902929 -56.745022466316485 L -109.29404125107949 -55.525010455016016 L -108.25966985641868,-55.36796201451317z" style="fill: rgb(255,0,0); fill-opacity: 1"/><path d="M -112.80574788718573 -55.525010455016016 L -113.21192623452718 -55.36796201451317 L -112.52774630063996,-54.262814121424725z" style="fill: rgb(255,0,0); fill-opacity: 1"/><path d="M -109.29404125107949 -55.525010455016016 L -109.48767428902929 -54.262814121424725 L -108.59140807516087,-54.129897914025584z" style="fill: rgb(255,0,0); fill-opacity: 1"/><path d="M -1.5200360058053377 122.86931584622644 L -2.1443899703120595 122.56834871556009 L -1.755853318053122,124.15758348134895z" style="fill: rgb(255,0,0); fill-opacity: 1"/><path d="M 1.5200360058053377 122.86931584622644 L 1.755853318053122 124.15758348134895 L 2.4761281890542453,123.80641281604767z" style="fill: rgb(255,0,0); fill-opacity: 1"/><path d="M -1.755853318053122 124.15758348134895 L -2.4761281890542453 123.80641281604767 L -1.5200360058053377,125.3515241911182z" style="fill: rgb(255,0,0); fill-opacity: 1"/><path d="M 1.755853318053122 124.15758348134895 L 1.5200360058053377 125.3515241911182 L 2.1443899703120595,125.04447691653526z" style="fill: rgb(255,0,0); fill-opacity: 1"/><path d="M 0.8766833249395982 -2.147426900783206 L -7.596148565507269e-17 -2.148687355250334 L 1.5200360058053377,-1.2411041724458827z" style="fill: rgb(255,0,0); fill-opacity: 1"/><path d="M -1.5200360058053377 1.2411041724458827 L -0.8766833249395982 2.147426900783206 L -7.596148565507269e-17,2.148687355250334z" style="fill: rgb(255,0,0); fill-opacity: 1"/><path d="M 124.85843220992874 -2.147426900783206 L 124.05452125696948 -2.148687355250334 L 125.63045542696763,-1.2411041724458827z" style="fill: rgb(255,0,0); fill-opacity: 1"/><path d="M 122.59038341535695 1.2411041724458827 L 123.10506556004954 2.147426900783206 L 124.05452125696948,2.148687355250334z" style="fill: rgb(255,0,0); fill-opacity: 1"/><path d="M 0.8766833249395982 -126.12917638266292 L -7.596148565507269e-17 -126.20320920946074 L 1.5200360058053377,-125.3515241911182z" style="fill: rgb(255,0,0); fill-opacity: 1"/><path d="M -1.5200360058053377 -122.86931584622644 L -0.8766833249395982 -121.83432258109652 L -7.596148565507269e-17,-121.90583449896009z" style="fill: rgb(255,0,0); fill-opacity: 1"/><path d="M -110.01594056804734 -57.59380192826336 L -110.95771346744763 -57.62760720698688 L -109.48767428902929,-56.745022466316485z" style="fill: rgb(255,0,0); fill-opacity: 1"/><path d="M -112.52774630063996 -54.262814121424725 L -111.76930721792654 -53.29894812669695 L -110.95771346744763,-53.33023249648621z" style="fill: rgb(255,0,0); fill-opacity: 1"/><path d="M 0.8766833249395982 121.83432258109652 L -7.596148565507269e-17 121.90583449896009 L 1.5200360058053377,122.86931584622644z" style="fill: rgb(255,0,0); fill-opacity: 1"/><path d="M -1.5200360058053377 125.3515241911182 L -0.8766833249395982 126.12917638266292 L -7.596148565507269e-17,126.20320920946074z" style="fill: rgb(255,0,0); fill-opacity: 1"/><path d="M -7.596148565507269e-17 -2.148687355250334 L -0.8766833249395982 -2.147426900783206 L -1.3176244964251883e-16,-1.2423677887665685z" style="fill: rgb(255,0,0); fill-opacity: 1"/><path d="M -1.3176244964251883e-16 1.2423677887665685 L -7.596148565507269e-17 2.148687355250334 L 0.8766833249395982,2.147426900783206z" style="fill: rgb(255,0,0); fill-opacity: 1"/><path d="M 124.05452125696948 -2.148687355250334 L 123.10506556004954 -2.147426900783206 L 124.23678105544691,-1.2423677887665685z" style="fill: rgb(255,0,0); fill-opacity: 1"/><path d="M 124.23678105544691 1.2423677887665685 L 124.05452125696948 2.148687355250334 L 124.85843220992874,2.147426900783206z" style="fill: rgb(255,0,0); fill-opacity: 1"/><path d="M -7.596148565507269e-17 -126.20320920946074 L -0.8766833249395982 -126.12917638266292 L -1.3176244964251883e-16,-125.47914944233189z" style="fill: rgb(255,0,0); fill-opacity: 1"/><path d="M -1.3176244964251883e-16 -122.99441386479874 L -7.596148565507269e-17 -121.90583449896009 L 0.8766833249395982,-121.83432258109652z" style="fill: rgb(255,0,0); fill-opacity: 1"/><path d="M -110.95771346744763 -57.62760720698688 L -111.76930721792654 -57.59380192826336 L -111.12073155248946,-56.80279677575645z" style="fill: rgb(255,0,0); fill-opacity: 1"/><path d="M -111.12073155248946 -54.31806119822331 L -110.95771346744763 -53.33023249648621 L -110.01594056804734,-53.29894812669695z" style="fill: rgb(255,0,0); fill-opacity: 1"/><path d="M -7.596148565507269e-17 121.90583449896009 L -0.8766833249395982 121.83432258109652 L -1.3176244964251883e-16,122.99441386479874z" style="fill: rgb(255,0,0); fill-opacity: 1"/><path d="M -1.3176244964251883e-16 125.47914944233189 L -7.596148565507269e-17 126.20320920946074 L 0.8766833249395982,126.12917638266292z" style="fill: rgb(255,0,0); fill-opacity: 1"/><path d="M -0.8766833249395982 -2.147426900783206 L -1.5200360058053377 -1.2411041724458827 L -1.3176244964251883e-16,-1.2423677887665685z" style="fill: rgb(255,0,0); fill-opacity: 1"/><path d="M 1.5200360058053377 1.2411041724458827 L -1.3176244964251883e-16 1.2423677887665685 L 0.8766833249395982,2.147426900783206z" style="fill: rgb(255,0,0); fill-opacity: 1"/><path d="M 123.10506556004954 -2.147426900783206 L 122.59038341535695 -1.2411041724458827 L 124.23678105544691,-1.2423677887665685z" style="fill: rgb(255,0,0); fill-opacity: 1"/><path d="M 125.63045542696763 1.2411041724458827 L 124.23678105544691 1.2423677887665685 L 124.85843220992874,2.147426900783206z" style="fill: rgb(255,0,0); fill-opacity: 1"/><path d="M -0.8766833249395982 -126.12917638266292 L -1.5200360058053377 -125.3515241911182 L -1.3176244964251883e-16,-125.47914944233189z" style="fill: rgb(255,0,0); fill-opacity: 1"/><path d="M 1.5200360058053377 -122.86931584622644 L -1.3176244964251883e-16 -122.99441386479874 L 0.8766833249395982,-121.83432258109652z" style="fill: rgb(255,0,0); fill-opacity: 1"/><path d="M -111.76930721792654 -57.59380192826336 L -112.52774630063996 -56.745022466316485 L -111.12073155248946,-56.80279677575645z" style="fill: rgb(255,0,0); fill-opacity: 1"/><path d="M -109.48767428902929 -54.262814121424725 L -111.12073155248946 -54.31806119822331 L -110.01594056804734,-53.29894812669695z" style="fill: rgb(255,0,0); fill-opacity: 1"/><path d="M -0.8766833249395982 121.83432258109652 L -1.5200360058053377 122.86931584622644 L -1.3176244964251883e-16,122.99441386479874z" style="fill: rgb(255,0,0); fill-opacity: 1"/><path d="M 1.5200360058053377 125.3515241911182 L -1.3176244964251883e-16 125.47914944233189 L 0.8766833249395982,126.12917638266292z" style="fill: rgb(255,0,0); fill-opacity: 1"/><path d="M -7.596148565507269e-17 -2.148687355250334 L -1.3176244964251883e-16 -1.2423677887665685 L 1.5200360058053377,-1.2411041724458827z" style="fill: rgb(255,0,0); fill-opacity: 1"/><path d="M -1.3176244964251883e-16 1.2423677887665685 L -1.5200360058053377 1.2411041724458827 L -7.596148565507269e-17,2.148687355250334z" style="fill: rgb(255,0,0); fill-opacity: 1"/><path d="M 124.05452125696948 -2.148687355250334 L 124.23678105544691 -1.2423677887665685 L 125.63045542696763,-1.2411041724458827z" style="fill: rgb(255,0,0); fill-opacity: 1"/><path d="M 124.23678105544691 1.2423677887665685 L 122.59038341535695 1.2411041724458827 L 124.05452125696948,2.148687355250334z" style="fill: rgb(255,0,0); fill-opacity: 1"/><path d="M -7.596148565507269e-17 -126.20320920946074 L -1.3176244964251883e-16 -125.47914944233189 L 1.5200360058053377,-125.3515241911182z" style="fill: rgb(255,0,0); fill-opacity: 1"/><path d="M -1.3176244964251883e-16 -122.99441386479874 L -1.5200360058053377 -122.86931584622644 L -7.596148565507269e-17,-121.90583449896009z" style="fill: rgb(255,0,0); fill-opacity: 1"/><path d="M -110.95771346744763 -57.62760720698688 L -111.12073155248946 -56.80279677575645 L -109.48767428902929,-56.745022466316485z" style="fill: rgb(255,0,0); fill-opacity: 1"/><path d="M -111.12073155248946 -54.31806119822331 L -112.52774630063996 -54.262814121424725 L -110.95771346744763,-53.33023249648621z" style="fill: rgb(255,0,0); fill-opacity: 1"/><path d="M -7.596148565507269e-17 121.90583449896009 L -1.3176244964251883e-16 122.99441386479874 L 1.5200360058053377,122.86931584622644z" style="fill: rgb(255,0,0); fill-opacity: 1"/><path d="M -1.3176244964251883e-16 125.47914944233189 L -1.5200360058053377 125.3515241911182 L -7.596148565507269e-17,126.20320920946074z" style="fill: rgb(255,0,0); fill-opacity: 1"/><path d="M 1.5200360058053377 -1.2411041724458827 L -1.3176244964251883e-16 -1.2423677887665685 L 1.755853318053122,-1.5204918613245825e-16z" style="fill: rgb(255,0,0); fill-opacity: 1"/><path d="M -1.755853318053122 -1.5204918613245825e-16 L -1.5200360058053377 1.2411041724458827 L -1.3176244964251883e-16,1.2423677887665685z" style="fill: rgb(255,0,0); fill-opacity: 1"/><path d="M 125.63045542696763 -1.2411041724458827 L 124.23678105544691 -1.2423677887665685 L 125.91343620166495,-1.5204918613245825e-16z" style="fill: rgb(255,0,0); fill-opacity: 1"/><path d="M 122.40172956555871 -1.5204918613245825e-16 L 122.59038341535695 1.2411041724458827 L 124.23678105544691,1.2423677887665685z" style="fill: rgb(255,0,0); fill-opacity: 1"/><path d="M 1.5200360058053377 -125.3515241911182 L -1.3176244964251883e-16 -125.47914944233189 L 1.755853318053122,-124.15758348134895z" style="fill: rgb(255,0,0); fill-opacity: 1"/><path d="M -1.755853318053122 -124.15758348134895 L -1.5200360058053377 -122.86931584622644 L -1.3176244964251883e-16,-122.99441386479874z" style="fill: rgb(255,0,0); fill-opacity: 1"/><path d="M -109.48767428902929 -56.745022466316485 L -111.12073155248946 -56.80279677575645 L -109.29404125107949,-55.525010455016016z" style="fill: rgb(255,0,0); fill-opacity: 1"/><path d="M -112.80574788718573 -55.525010455016016 L -112.52774630063996 -54.262814121424725 L -111.12073155248946,-54.31806119822331z" style="fill: rgb(255,0,0); fill-opacity: 1"/><path d="M 1.5200360058053377 122.86931584622644 L -1.3176244964251883e-16 122.99441386479874 L 1.755853318053122,124.15758348134895z" style="fill: rgb(255,0,0); fill-opacity: 1"/><path d="M -1.755853318053122 124.15758348134895 L -1.5200360058053377 125.3515241911182 L -1.3176244964251883e-16,125.47914944233189z" style="fill: rgb(255,0,0); fill-opacity: 1"/><path d="M -1.5200360058053377 -1.2411041724458827 L -1.755853318053122 -1.5204918613245825e-16 L -1.522280375107493e-16,-1.522280382436272e-16z" style="fill: rgb(255,0,0); fill-opacity: 1"/><path d="M 1.755853318053122 -1.5204918613245825e-16 L -1.522280375107493e-16 -1.522280382436272e-16 L 1.5200360058053377,1.2411041724458827z" style="fill: rgb(255,0,0); fill-opacity: 1"/><path d="M 122.59038341535695 -1.2411041724458827 L 122.40172956555871 -1.5204918613245825e-16 L 124.30362671575061,-1.522280382436272e-16z" style="fill: rgb(255,0,0); fill-opacity: 1"/><path d="M 125.91343620166495 -1.5204918613245825e-16 L 124.30362671575061 -1.522280382436272e-16 L 125.63045542696763,1.2411041724458827z" style="fill: rgb(255,0,0); fill-opacity: 1"/><path d="M -1.5200360058053377 -125.3515241911182 L -1.755853318053122 -124.15758348134895 L -1.522280375107493e-16,-124.30362731419083z" style="fill: rgb(255,0,0); fill-opacity: 1"/><path d="M 1.755853318053122 -124.15758348134895 L -1.522280375107493e-16 -124.30362731419083 L 1.5200360058053377,-122.86931584622644z" style="fill: rgb(255,0,0); fill-opacity: 1"/><path d="M -112.52774630063996 -56.745022466316485 L -112.80574788718573 -55.525010455016016 L -111.18052011599661,-55.59032330275402z" style="fill: rgb(255,0,0); fill-opacity: 1"/><path d="M -109.29404125107949 -55.525010455016016 L -111.18052011599661 -55.59032330275402 L -109.48767428902929,-54.262814121424725z" style="fill: rgb(255,0,0); fill-opacity: 1"/><path d="M -1.5200360058053377 122.86931584622644 L -1.755853318053122 124.15758348134895 L -1.522280375107493e-16,124.30362731419083z" style="fill: rgb(255,0,0); fill-opacity: 1"/><path d="M 1.755853318053122 124.15758348134895 L -1.522280375107493e-16 124.30362731419083 L 1.5200360058053377,125.3515241911182z" style="fill: rgb(255,0,0); fill-opacity: 1"/><path d="M -1.522280375107493e-16 -1.522280382436272e-16 L -1.3176244964251883e-16 1.2423677887665685 L 1.5200360058053377,1.2411041724458827z" style="fill: rgb(255,0,0); fill-opacity: 1"/><path d="M 124.30362671575061 -1.522280382436272e-16 L 124.23678105544691 1.2423677887665685 L 125.63045542696763,1.2411041724458827z" style="fill: rgb(255,0,0); fill-opacity: 1"/><path d="M -1.522280375107493e-16 -124.30362731419083 L -1.3176244964251883e-16 -122.99441386479874 L 1.5200360058053377,-122.86931584622644z" style="fill: rgb(255,0,0); fill-opacity: 1"/><path d="M -111.18052011599661 -55.59032330275402 L -111.12073155248946 -54.31806119822331 L -109.48767428902929,-54.262814121424725z" style="fill: rgb(255,0,0); fill-opacity: 1"/><path d="M -1.522280375107493e-16 124.30362731419083 L -1.3176244964251883e-16 125.47914944233189 L 1.5200360058053377,125.3515241911182z" style="fill: rgb(255,0,0); fill-opacity: 1"/><path d="M -1.3176244964251883e-16 -1.2423677887665685 L -1.5200360058053377 -1.2411041724458827 L -1.522280375107493e-16,-1.522280382436272e-16z" style="fill: rgb(255,0,0); fill-opacity: 1"/><path d="M 124.23678105544691 -1.2423677887665685 L 122.59038341535695 -1.2411041724458827 L 124.30362671575061,-1.522280382436272e-16z" style="fill: rgb(255,0,0); fill-opacity: 1"/><path d="M -1.3176244964251883e-16 -125.47914944233189 L -1.5200360058053377 -125.3515241911182 L -1.522280375107493e-16,-124.30362731419083z" style="fill: rgb(255,0,0); fill-opacity: 1"/><path d="M -111.12073155248946 -56.80279677575645 L -112.52774630063996 -56.745022466316485 L -111.18052011599661,-55.59032330275402z" style="fill: rgb(255,0,0); fill-opacity: 1"/><path d="M -1.3176244964251883e-16 122.99441386479874 L -1.5200360058053377 122.86931584622644 L -1.522280375107493e-16,124.30362731419083z" style="fill: rgb(255,0,0); fill-opacity: 1"/><path d="M -1.3176244964251883e-16 -1.2423677887665685 L -1.522280375107493e-16 -1.522280382436272e-16 L 1.755853318053122,-1.5204918613245825e-16z" style="fill: rgb(255,0,0); fill-opacity: 1"/><path d="M -1.522280375107493e-16 -1.522280382436272e-16 L -1.755853318053122 -1.5204918613245825e-16 L -1.3176244964251883e-16,1.2423677887665685z" style="fill: rgb(255,0,0); fill-opacity: 1"/><path d="M 124.23678105544691 -1.2423677887665685 L 124.30362671575061 -1.522280382436272e-16 L 125.91343620166495,-1.5204918613245825e-16z" style="fill: rgb(255,0,0); fill-opacity: 1"/><path d="M 124.30362671575061 -1.522280382436272e-16 L 122.40172956555871 -1.5204918613245825e-16 L 124.23678105544691,1.2423677887665685z" style="fill: rgb(255,0,0); fill-opacity: 1"/><path d="M -1.3176244964251883e-16 -125.47914944233189 L -1.522280375107493e-16 -124.30362731419083 L 1.755853318053122,-124.15758348134895z" style="fill: rgb(255,0,0); fill-opacity: 1"/><path d="M -1.522280375107493e-16 -124.30362731419083 L -1.755853318053122 -124.15758348134895 L -1.3176244964251883e-16,-122.99441386479874z" style="fill: rgb(255,0,0); fill-opacity: 1"/><path d="M -111.12073155248946 -56.80279677575645 L -111.18052011599661 -55.59032330275402 L -109.29404125107949,-55.525010455016016z" style="fill: rgb(255,0,0); fill-opacity: 1"/><path d="M -111.18052011599661 -55.59032330275402 L -112.80574788718573 -55.525010455016016 L -111.12073155248946,-54.31806119822331z" style="fill: rgb(255,0,0); fill-opacity: 1"/><path d="M -1.3176244964251883e-16 122.99441386479874 L -1.522280375107493e-16 124.30362731419083 L 1.755853318053122,124.15758348134895z" style="fill: rgb(255,0,0); fill-opacity: 1"/><path d="M -1.522280375107493e-16 124.30362731419083 L -1.755853318053122 124.15758348134895 L -1.3176244964251883e-16,125.47914944233189z" style="fill: rgb(255,0,0); fill-opacity: 1"/></svg>