<svg xmlns="http://www.w3.org/2000/svg" viewBox="-495 -499 990 998" width="990" height="998" style="background-color: rgb(255, 255, 255);"><path d="M 4.1239267753471584e-16 -1.2961289956332505 L 4.759358988383179e-16 -1.5864530076067225e-16 L -1.8341650271369099,-1.5883064107087399e-16z" style="fill: rgb(255,0,0); fill-opacity: 1"/><path d="M 4.759358988383179e-16 -1.5864530076067225e-16 L 1.8341650271369099 -1.5883064107087399e-16 L 4.1239267753471584e-16,1.2961289956332505z" style="fill: rgb(255,0,0); fill-opacity: 1"/><path d="M 129.61289787480555 -1.2961289956332505 L 129.54371527575375 -1.5864530076067225e-16 L 127.86089209271037,-1.5883064107087399e-16z" style="fill: rgb(255,0,0); fill-opacity: 1"/><path d="M 129.54371527575375 -1.5864530076067225e-16 L 131.52922214698418 -1.5883064107087399e-16 L 129.61289787480555,1.2961289956332505z" style="fill: rgb(255,0,0); fill-opacity: 1"/><path d="M -129.61289787480555 -1.2961289956332505 L -129.54371527575375 -1.5864530076067225e-16 L -131.52922214698418,-1.5883064107087399e-16z" style="fill: rgb(255,0,0); fill-opacity: 1"/><path d="M -129.54371527575375 -1.5864530076067225e-16 L -127.86089209271037 -1.5883064107087399e-16 L -129.61289787480555,1.2961289956332505z" style="fill: rgb(255,0,0); fill-opacity: 1"/><path d="M 4.759358988383179e-16 -1.5864530076067225e-16 L 4.1239267753471584e-16 1.2961289956332505 L -1.5890340159156642,1.2974408501232002z" style="fill: rgb(255,0,0); fill-opacity: 1"/><path d="M 129.54371527575375 -1.5864530076067225e-16 L 129.61289787480555 1.2961289956332505 L 128.15504930617587,1.2974408501232002z" style="fill: rgb(255,0,0); fill-opacity: 1"/><path d="M -129.54371527575375 -1.5864530076067225e-16 L -129.61289787480555 1.2961289956332505 L -131.3331173380072,1.2974408501232002z" style="fill: rgb(255,0,0); fill-opacity: 1"/><path d="M 4.1239267753471584e-16 -1.2961289956332505 L 1.5890340159156642 -1.2974408501232002 L 4.759358988383179e-16,-1.5864530076067225e-16z" style="fill: rgb(255,0,0); fill-opacity: 1"/><path d="M 129.61289787480555 -1.2961289956332505 L 131.3331173380072 -1.2974408501232002 L 129.54371527575375,-1.5864530076067225e-16z" style="fill: rgb(255,0,0); fill-opacity: 1"/><path d="M -129.61289787480555 -1.2961289956332505 L -128.15504930617587 -1.2974408501232002 L -129.54371527575375,-1.5864530076067225e-16z" style="fill: rgb(255,0,0); fill-opacity: 1"/><path d="M 1.5890340159156642 -1.2974408501232002 L 1.8341650271369099 -1.5883064107087399e-16 L 4.759358988383179e-16,-1.5864530076067225e-16z" style="fill: rgb(255,0,0); fill-opacity: 1"/><path d="M 131.3331173380072 -1.2974408501232002 L 131.52922214698418 -1.5883064107087399e-16 L 129.54371527575375,-1.5864530076067225e-16z" style="fill: rgb(255,0,0); fill-opacity: 1"/><path d="M -128.15504930617587 -1.2974408501232002 L -127.86089209271037 -1.5883064107087399e-16 L -129.54371527575375,-1.5864530076067225e-16z" style="fill: rgb(255,0,0); fill-opacity: 1"/><path d="M -1.8341650271369099 -1.5883064107087399e-16 L 4.759358988383179e-16 -1.5864530076067225e-16 L -1.5890340159156642,1.2974408501232002z" style="fill: rgb(255,0,0); fill-opacity: 1"/><path d="M 127.86089209271037 -1.5883064107087399e-16 L 129.54371527575375 -1.5864530076067225e-16 L 128.15504930617587,1.2974408501232002z" style="fill: rgb(255,0,0); fill-opacity: 1"/><path d="M -131.52922214698418 -1.5883064107087399e-16 L -129.54371527575375 -1.5864530076067225e-16 L -131.3331173380072,1.2974408501232002z" style="fill: rgb(255,0,0); fill-opacity: 1"/><path d="M -1.5890340159156642 -1.2974408501232002 L 4.1239267753471584e-16 -1.2961289956332505 L -1.8341650271369099,-1.5883064107087399e-16z" style="fill: rgb(255,0,0); fill-opacity: 1"/><path d="M 1.8341650271369099 -1.5883064107087399e-16 L 1.5890340159156642 1.2974408501232002 L 4.1239267753471584e-16,1.2961289956332505z" style="fill: rgb(255,0,0); fill-opacity: 1"/><path d="M 128.15504930617587 -1.2974408501232002 L 129.61289787480555 -1.2961289956332505 L 127.86089209271037,-1.5883064107087399e-16z" style="fill: rgb(255,0,0); fill-opacity: 1"/><path d="M 131.52922214698418 -1.5883064107087399e-16 L 131.3331173380072 1.2974408501232002 L 129.61289787480555,1.2961289956332505z" style="fill: rgb(255,0,0); fill-opacity: 1"/><path d="M -131.3331173380072 -1.2974408501232002 L -129.61289787480555 -1.2961289956332505 L -131.52922214698418,-1.5883064107087399e-16z" style="fill: rgb(255,0,0); fill-opacity: 1"/><path d="M -127.86089209271037 -1.5883064107087399e-16 L -128.15504930617587 1.2974408501232002 L -129.61289787480555,1.2961289956332505z" style="fill: rgb(255,0,0); fill-opacity: 1"/><path d="M 2.3844293533554775e-16 -2.248241622828127 L 4.1239267753471584e-16 -1.2961289956332505 L -1.5890340159156642,-1.2974408501232002z" style="fill: rgb(255,0,0); fill-opacity: 1"/><path d="M 129.80228555995737 -2.248241622828127 L 129.61289787480555 -1.2961289956332505 L 128.15504930617587,-1.2974408501232002z" style="fill: rgb(255,0,0); fill-opacity: 1"/><path d="M -129.80228555995737 -2.248241622828127 L -129.61289787480555 -1.2961289956332505 L -131.3331173380072,-1.2974408501232002z" style="fill: rgb(255,0,0); fill-opacity: 1"/><path d="M 4.1239267753471584e-16 1.2961289956332505 L 1.5890340159156642 1.2974408501232002 L 2.3844293533554775e-16,2.248241622828127z" style="fill: rgb(255,0,0); fill-opacity: 1"/><path d="M 129.61289787480555 1.2961289956332505 L 131.3331173380072 1.2974408501232002 L 129.80228555995737,2.248241622828127z" style="fill: rgb(255,0,0); fill-opacity: 1"/><path d="M -129.61289787480555 1.2961289956332505 L -128.15504930617587 1.2974408501232002 L -129.80228555995737,2.248241622828127z" style="fill: rgb(255,0,0); fill-opacity: 1"/><path d="M 0.9183776324795951 -2.2495567524094215 L 1.5890340159156642 -1.2974408501232002 L 4.1239267753471584e-16,-1.2961289956332505z" style="fill: rgb(255,0,0); fill-opacity: 1"/><path d="M -1.5890340159156642 1.2974408501232002 L 4.1239267753471584e-16 1.2961289956332505 L -0.9183776324795951,2.2495567524094215z" style="fill: rgb(255,0,0); fill-opacity: 1"/><path d="M 130.79659223125833 -2.2495567524094215 L 131.3331173380072 -1.2974408501232002 L 129.61289787480555,-1.2961289956332505z" style="fill: rgb(255,0,0); fill-opacity: 1"/><path d="M 128.15504930617587 1.2974408501232002 L 129.61289787480555 1.2961289956332505 L 128.95983696629915,2.2495567524094215z" style="fill: rgb(255,0,0); fill-opacity: 1"/><path d="M -128.95983696629915 -2.2495567524094215 L -128.15504930617587 -1.2974408501232002 L -129.61289787480555,-1.2961289956332505z" style="fill: rgb(255,0,0); fill-opacity: 1"/><path d="M -131.3331173380072 1.2974408501232002 L -129.61289787480555 1.2961289956332505 L -130.79659223125833,2.2495567524094215z" style="fill: rgb(255,0,0); fill-opacity: 1"/><path d="M 2.3844293533554775e-16 -2.248241622828127 L 0.9183776324795951 -2.2495567524094215 L 4.1239267753471584e-16,-1.2961289956332505z" style="fill: rgb(255,0,0); fill-opacity: 1"/><path d="M 4.1239267753471584e-16 1.2961289956332505 L 2.3844293533554775e-16 2.248241622828127 L -0.9183776324795951,2.2495567524094215z" style="fill: rgb(255,0,0); fill-opacity: 1"/><path d="M 129.80228555995737 -2.248241622828127 L 130.79659223125833 -2.2495567524094215 L 129.61289787480555,-1.2961289956332505z" style="fill: rgb(255,0,0); fill-opacity: 1"/><path d="M 129.61289787480555 1.2961289956332505 L 129.80228555995737 2.248241622828127 L 128.95983696629915,2.2495567524094215z" style="fill: rgb(255,0,0); fill-opacity: 1"/><path d="M -129.80228555995737 -2.248241622828127 L -128.95983696629915 -2.2495567524094215 L -129.61289787480555,-1.2961289956332505z" style="fill: rgb(255,0,0); fill-opacity: 1"/><path d="M -129.61289787480555 1.2961289956332505 L -129.80228555995737 2.248241622828127 L -130.79659223125833,2.2495567524094215z" style="fill: rgb(255,0,0); fill-opacity: 1"/><path d="M 1.5890340159156642 1.2974408501232002 L 0.9183776324795951 2.2495567524094215 L 2.3844293533554775e-16,2.248241622828127z" style="fill: rgb(255,0,0); fill-opacity: 1"/><path d="M 131.3331173380072 1.2974408501232002 L 130.79659223125833 2.2495567524094215 L 129.80228555995737,2.248241622828127z" style="fill: rgb(255,0,0); fill-opacity: 1"/><path d="M -128.15504930617587 1.2974408501232002 L -128.95983696629915 2.2495567524094215 L -129.80228555995737,2.248241622828127z" style="fill: rgb(255,0,0); fill-opacity: 1"/><path d="M -0.9183776324795951 -2.2495567524094215 L 2.3844293533554775e-16 -2.248241622828127 L -1.5890340159156642,-1.2974408501232002z" style="fill: rgb(255,0,0); fill-opacity: 1"/><path d="M 128.95983696629915 -2.2495567524094215 L 129.80228555995737 -2.248241622828127 L 128.15504930617587,-1.2974408501232002z" style="fill: rgb(255,0,0); fill-opacity: 1"/><path d="M -130.79659223125833 -2.2495567524094215 L -129.80228555995737 -2.248241622828127 L -131.3331173380072,-1.2974408501232002z" style="fill: rgb(255,0,0); fill-opacity: 1"/><path d="M 1.5890340159156642 -1.2974408501232002 L 2.252738026273332 -1.3006189181964336 L 1.8341650271369099,-1.5883064107087399e-16z" style="fill: rgb(255,0,0); fill-opacity: 1"/><path d="M -1.5890340159156642 -1.2974408501232002 L -1.8341650271369099 -1.5883064107087399e-16 L -2.6012377443632975,-1.5927988194953096e-16z" style="fill: rgb(255,0,0); fill-opacity: 1"/><path d="M 1.8341650271369099 -1.5883064107087399e-16 L 2.6012377443632975 -1.5927988194953096e-16 L 1.5890340159156642,1.2974408501232002z" style="fill: rgb(255,0,0); fill-opacity: 1"/><path d="M -1.8341650271369099 -1.5883064107087399e-16 L -1.5890340159156642 1.2974408501232002 L -2.252738026273332,1.3006189181964336z" style="fill: rgb(255,0,0); fill-opacity: 1"/><path d="M 131.3331173380072 -1.2974408501232002 L 132.314628151548 -1.3006189181964336 L 131.52922214698418,-1.5883064107087399e-16z" style="fill: rgb(255,0,0); fill-opacity: 1"/><path d="M 128.15504930617587 -1.2974408501232002 L 127.86089209271037 -1.5883064107087399e-16 L 127.46065238091137,-1.5927988194953096e-16z" style="fill: rgb(255,0,0); fill-opacity: 1"/><path d="M 131.52922214698418 -1.5883064107087399e-16 L 132.66312786963795 -1.5927988194953096e-16 L 131.3331173380072,1.2974408501232002z" style="fill: rgb(255,0,0); fill-opacity: 1"/><path d="M 127.86089209271037 -1.5883064107087399e-16 L 128.15504930617587 1.2974408501232002 L 127.80915209900132,1.3006189181964336z" style="fill: rgb(255,0,0); fill-opacity: 1"/><path d="M -128.15504930617587 -1.2974408501232002 L -127.80915209900132 -1.3006189181964336 L -127.86089209271037,-1.5883064107087399e-16z" style="fill: rgb(255,0,0); fill-opacity: 1"/><path d="M -131.3331173380072 -1.2974408501232002 L -131.52922214698418 -1.5883064107087399e-16 L -132.66312786963795,-1.5927988194953096e-16z" style="fill: rgb(255,0,0); fill-opacity: 1"/><path d="M -127.86089209271037 -1.5883064107087399e-16 L -127.46065238091137 -1.5927988194953096e-16 L -128.15504930617587,1.2974408501232002z" style="fill: rgb(255,0,0); fill-opacity: 1"/><path d="M -131.52922214698418 -1.5883064107087399e-16 L -131.3331173380072 1.2974408501232002 L -132.314628151548,1.3006189181964336z" style="fill: rgb(255,0,0); fill-opacity: 1"/><path d="M 0.9183776324795951 -2.2495567524094215 L 1.3006188721816487 -2.252738105973279 L 1.5890340159156642,-1.2974408501232002z" style="fill: rgb(255,0,0); fill-opacity: 1"/><path d="M -0.9183776324795951 -2.2495567524094215 L -1.5890340159156642 -1.2974408501232002 L -2.252738026273332,-1.3006189181964336z" style="fill: rgb(255,0,0); fill-opacity: 1"/><path d="M 1.5890340159156642 1.2974408501232002 L 2.252738026273332 1.3006189181964336 L 0.9183776324795951,2.2495567524094215z" style="fill: rgb(255,0,0); fill-opacity: 1"/><path d="M -1.5890340159156642 1.2974408501232002 L -0.9183776324795951 2.2495567524094215 L -1.3006188721816487,2.252738105973279z" style="fill: rgb(255,0,0); fill-opacity: 1"/><path d="M 130.79659223125833 -2.2495567524094215 L 131.36250899745633 -2.252738105973279 L 131.3331173380072,-1.2974408501232002z" style="fill: rgb(255,0,0); fill-opacity: 1"/><path d="M 128.95983696629915 -2.2495567524094215 L 128.15504930617587 -1.2974408501232002 L 127.80915209900132,-1.3006189181964336z" style="fill: rgb(255,0,0); fill-opacity: 1"/><path d="M 131.3331173380072 1.2974408501232002 L 132.314628151548 1.3006189181964336 L 130.79659223125833,2.2495567524094215z" style="fill: rgb(255,0,0); fill-opacity: 1"/><path d="M 128.15504930617587 1.2974408501232002 L 128.95983696629915 2.2495567524094215 L 128.761271253093,2.252738105973279z" style="fill: rgb(255,0,0); fill-opacity: 1"/><path d="M -128.95983696629915 -2.2495567524094215 L -128.761271253093 -2.252738105973279 L -128.15504930617587,-1.2974408501232002z" style="fill: rgb(255,0,0); fill-opacity: 1"/><path d="M -130.79659223125833 -2.2495567524094215 L -131.3331173380072 -1.2974408501232002 L -132.314628151548,-1.3006189181964336z" style="fill: rgb(255,0,0); fill-opacity: 1"/><path d="M -128.15504930617587 1.2974408501232002 L -127.80915209900132 1.3006189181964336 L -128.95983696629915,2.2495567524094215z" style="fill: rgb(255,0,0); fill-opacity: 1"/><path d="M -131.3331173380072 1.2974408501232002 L -130.79659223125833 2.2495567524094215 L -131.36250899745633,2.252738105973279z" style="fill: rgb(255,0,0); fill-opacity: 1"/><path d="M 0 -2.601237836392867 L 0.9183776324795951 -2.2495567524094215 L 2.3844293533554775e-16,-2.248241622828127z" style="fill: rgb(255,0,0); fill-opacity: 1"/><path d="M 0 -2.601237836392867 L 2.3844293533554775e-16 -2.248241622828127 L -0.9183776324795951,-2.2495567524094215z" style="fill: rgb(255,0,0); fill-opacity: 1"/><path d="M 2.3844293533554775e-16 2.248241622828127 L 0.9183776324795951 2.2495567524094215 L 5.851847925514907e-32,2.601237836392867z" style="fill: rgb(255,0,0); fill-opacity: 1"/><path d="M -0.9183776324795951 2.2495567524094215 L 2.3844293533554775e-16 2.248241622828127 L -2.252557607196641e-16,2.601237836392867z" style="fill: rgb(255,0,0); fill-opacity: 1"/><path d="M 130.06189012527466 -2.601237836392867 L 130.79659223125833 -2.2495567524094215 L 129.80228555995737,-2.248241622828127z" style="fill: rgb(255,0,0); fill-opacity: 1"/><path d="M 130.06189012527466 -2.601237836392867 L 129.80228555995737 -2.248241622828127 L 128.95983696629915,-2.2495567524094215z" style="fill: rgb(255,0,0); fill-opacity: 1"/><path d="M 129.80228555995737 2.248241622828127 L 130.79659223125833 2.2495567524094215 L 130.06189012527466,2.601237836392867z" style="fill: rgb(255,0,0); fill-opacity: 1"/><path d="M 128.95983696629915 2.2495567524094215 L 129.80228555995737 2.248241622828127 L 130.06189012527466,2.601237836392867z" style="fill: rgb(255,0,0); fill-opacity: 1"/><path d="M -130.06189012527466 -2.601237836392867 L -128.95983696629915 -2.2495567524094215 L -129.80228555995737,-2.248241622828127z" style="fill: rgb(255,0,0); fill-opacity: 1"/><path d="M -130.06189012527466 -2.601237836392867 L -129.80228555995737 -2.248241622828127 L -130.79659223125833,-2.2495567524094215z" style="fill: rgb(255,0,0); fill-opacity: 1"/><path d="M -129.80228555995737 2.248241622828127 L -128.95983696629915 2.2495567524094215 L -130.06189012527466,2.601237836392867z" style="fill: rgb(255,0,0); fill-opacity: 1"/><path d="M -130.79659223125833 2.2495567524094215 L -129.80228555995737 2.248241622828127 L -130.06189012527466,2.601237836392867z" style="fill: rgb(255,0,0); fill-opacity: 1"/><path d="M 2.252738026273332 -1.3006189181964336 L 2.6012377443632975 -1.5927988194953096e-16 L 1.8341650271369099,-1.5883064107087399e-16z" style="fill: rgb(255,0,0); fill-opacity: 1"/><path d="M -2.6012377443632975 -1.5927988194953096e-16 L -1.8341650271369099 -1.5883064107087399e-16 L -2.252738026273332,1.3006189181964336z" style="fill: rgb(255,0,0); fill-opacity: 1"/><path d="M 132.314628151548 -1.3006189181964336 L 132.66312786963795 -1.5927988194953096e-16 L 131.52922214698418,-1.5883064107087399e-16z" style="fill: rgb(255,0,0); fill-opacity: 1"/><path d="M 127.46065238091137 -1.5927988194953096e-16 L 127.86089209271037 -1.5883064107087399e-16 L 127.80915209900132,1.3006189181964336z" style="fill: rgb(255,0,0); fill-opacity: 1"/><path d="M -127.80915209900132 -1.3006189181964336 L -127.46065238091137 -1.5927988194953096e-16 L -127.86089209271037,-1.5883064107087399e-16z" style="fill: rgb(255,0,0); fill-opacity: 1"/><path d="M -132.66312786963795 -1.5927988194953096e-16 L -131.52922214698418 -1.5883064107087399e-16 L -132.314628151548,1.3006189181964336z" style="fill: rgb(255,0,0); fill-opacity: 1"/><path d="M 1.3006188721816487 -2.252738105973279 L 2.252738026273332 -1.3006189181964336 L 1.5890340159156642,-1.2974408501232002z" style="fill: rgb(255,0,0); fill-opacity: 1"/><path d="M -2.252738026273332 -1.3006189181964336 L -1.5890340159156642 -1.2974408501232002 L -2.6012377443632975,-1.5927988194953096e-16z" style="fill: rgb(255,0,0); fill-opacity: 1"/><path d="M 2.6012377443632975 -1.5927988194953096e-16 L 2.252738026273332 1.3006189181964336 L 1.5890340159156642,1.2974408501232002z" style="fill: rgb(255,0,0); fill-opacity: 1"/><path d="M -2.252738026273332 1.3006189181964336 L -1.5890340159156642 1.2974408501232002 L -1.3006188721816487,2.252738105973279z" style="fill: rgb(255,0,0); fill-opacity: 1"/><path d="M 131.36250899745633 -2.252738105973279 L 132.314628151548 -1.3006189181964336 L 131.3331173380072,-1.2974408501232002z" style="fill: rgb(255,0,0); fill-opacity: 1"/><path d="M 127.80915209900132 -1.3006189181964336 L 128.15504930617587 -1.2974408501232002 L 127.46065238091137,-1.5927988194953096e-16z" style="fill: rgb(255,0,0); fill-opacity: 1"/><path d="M 132.66312786963795 -1.5927988194953096e-16 L 132.314628151548 1.3006189181964336 L 131.3331173380072,1.2974408501232002z" style="fill: rgb(255,0,0); fill-opacity: 1"/><path d="M 127.80915209900132 1.3006189181964336 L 128.15504930617587 1.2974408501232002 L 128.761271253093,2.252738105973279z" style="fill: rgb(255,0,0); fill-opacity: 1"/><path d="M -128.761271253093 -2.252738105973279 L -127.80915209900132 -1.3006189181964336 L -128.15504930617587,-1.2974408501232002z" style="fill: rgb(255,0,0); fill-opacity: 1"/><path d="M -132.314628151548 -1.3006189181964336 L -131.3331173380072 -1.2974408501232002 L -132.66312786963795,-1.5927988194953096e-16z" style="fill: rgb(255,0,0); fill-opacity: 1"/><path d="M -127.46065238091137 -1.5927988194953096e-16 L -127.80915209900132 1.3006189181964336 L -128.15504930617587,1.2974408501232002z" style="fill: rgb(255,0,0); fill-opacity: 1"/><path d="M -132.314628151548 1.3006189181964336 L -131.3331173380072 1.2974408501232002 L -131.36250899745633,2.252738105973279z" style="fill: rgb(255,0,0); fill-opacity: 1"/><path d="M 0 -2.601237836392867 L 1.3006188721816487 -2.252738105973279 L 0.9183776324795951,-2.2495567524094215z" style="fill: rgb(255,0,0); fill-opacity: 1"/><path d="M 0 -2.601237836392867 L -0.9183776324795951 -2.2495567524094215 L -1.3006188721816487,-2.252738105973279z" style="fill: rgb(255,0,0); fill-opacity: 1"/><path d="M -1.3006188721816487 -2.252738105973279 L -0.9183776324795951 -2.2495567524094215 L -2.252738026273332,-1.3006189181964336z" style="fill: rgb(255,0,0); fill-opacity: 1"/><path d="M 2.252738026273332 1.3006189181964336 L 1.3006188721816487 2.252738105973279 L 0.9183776324795951,2.2495567524094215z" style="fill: rgb(255,0,0); fill-opacity: 1"/><path d="M 0.9183776324795951 2.2495567524094215 L 1.3006188721816487 2.252738105973279 L 2.252557607196641e-16,2.601237836392867z" style="fill: rgb(255,0,0); fill-opacity: 1"/><path d="M -1.3006188721816487 2.252738105973279 L -0.9183776324795951 2.2495567524094215 L -3.1855975262869e-16,2.601237836392867z" style="fill: rgb(255,0,0); fill-opacity: 1"/><path d="M 130.06189012527466 -2.601237836392867 L 131.36250899745633 -2.252738105973279 L 130.79659223125833,-2.2495567524094215z" style="fill: rgb(255,0,0); fill-opacity: 1"/><path d="M 130.06189012527466 -2.601237836392867 L 128.95983696629915 -2.2495567524094215 L 128.761271253093,-2.252738105973279z" style="fill: rgb(255,0,0); fill-opacity: 1"/><path d="M 128.761271253093 -2.252738105973279 L 128.95983696629915 -2.2495567524094215 L 127.80915209900132,-1.3006189181964336z" style="fill: rgb(255,0,0); fill-opacity: 1"/><path d="M 132.314628151548 1.3006189181964336 L 131.36250899745633 2.252738105973279 L 130.79659223125833,2.2495567524094215z" style="fill: rgb(255,0,0); fill-opacity: 1"/><path d="M 130.79659223125833 2.2495567524094215 L 131.36250899745633 2.252738105973279 L 130.06189012527466,2.601237836392867z" style="fill: rgb(255,0,0); fill-opacity: 1"/><path d="M 128.761271253093 2.252738105973279 L 128.95983696629915 2.2495567524094215 L 130.06189012527466,2.601237836392867z" style="fill: rgb(255,0,0); fill-opacity: 1"/><path d="M -130.06189012527466 -2.601237836392867 L -128.761271253093 -2.252738105973279 L -128.95983696629915,-2.2495567524094215z" style="fill: rgb(255,0,0); fill-opacity: 1"/><path d="M -130.06189012527466 -2.601237836392867 L -130.79659223125833 -2.2495567524094215 L -131.36250899745633,-2.252738105973279z" style="fill: rgb(255,0,0); fill-opacity: 1"/><path d="M -131.36250899745633 -2.252738105973279 L -130.79659223125833 -2.2495567524094215 L -132.314628151548,-1.3006189181964336z" style="fill: rgb(255,0,0); fill-opacity: 1"/><path d="M -127.80915209900132 1.3006189181964336 L -128.761271253093 2.252738105973279 L -128.95983696629915,2.2495567524094215z" style="fill: rgb(255,0,0); fill-opacity: 1"/><path d="M -128.95983696629915 2.2495567524094215 L -128.761271253093 2.252738105973279 L -130.06189012527466,2.601237836392867z" style="fill: rgb(255,0,0); fill-opacity: 1"/><path d="M -131.36250899745633 2.252738105973279 L -130.79659223125833 2.2495567524094215 L -130.06189012527466,2.601237836392867z" style="fill: rgb(255,0,0); fill-opacity: 1"/><line x1="0" y1="0" x2="130.06189012527466" y2="0" style="fill: none; stroke: rgb(0,0,0); stroke-width: 1.5; stroke-opacity: 1; stroke-linecap: round; stroke-linejoin: round"/><line x1="0" y1="0" x2="-130.06189012527466" y2="0" style="fill: none; stroke: rgb(0,0,0); stroke-width: 1.5; stroke-opacity: 1; stroke-linecap: round; stroke-linejoin: round"/><line x1="130.06189012527466" y1="0" x2="0" y2="0" style="fill: none; stroke: rgb(0,0,0); stroke-width: 1.5; stroke-opacity: 1; stroke-linecap: round; stroke-linejoin: round"/><line x1="-130.06189012527466" y1="0" x2="0" y2="0" style="fill: none; stroke: rgb(0,0,0); stroke-width: 1.5; stroke-opacity: 1; stroke-linecap: round; stroke-linejoin: round"/><path d="M 0 -2.601237836392867 L -1.3006188721816487 -2.252738105973279 L -0.920978875313324,-2.255928470506989z" style="fill: rgb(255,0,0); fill-opacity: 1"/><path d="M 0 -2.601237836392867 L 0.920978875313324 -2.255928470506989 L 1.3006188721816487,-2.252738105973279z" style="fill: rgb(255,0,0); fill-opacity: 1"/><path d="M 1.3006188721816487 -2.252738105973279 L 0.920978875313324 -2.255928470506989 L 2.252738026273332,-1.3006189181964336z" style="fill: rgb(255,0,0); fill-opacity: 1"/><path d="M -2.252738026273332 1.3006189181964336 L -1.3006188721816487 2.252738105973279 L -0.920978875313324,2.255928470506989z" style="fill: rgb(255,0,0); fill-opacity: 1"/><path d="M -0.920978875313324 2.255928470506989 L -1.3006188721816487 2.252738105973279 L -2.252557607196641e-16,2.601237836392867z" style="fill: rgb(255,0,0); fill-opacity: 1"/><path d="M 1.3006188721816487 2.252738105973279 L 0.920978875313324 2.255928470506989 L 3.1855975262869e-16,2.601237836392867z" style="fill: rgb(255,0,0); fill-opacity: 1"/><path d="M 130.06189012527466 -2.601237836392867 L 128.761271253093 -2.252738105973279 L 129.325107025024,-2.255928470506989z" style="fill: rgb(255,0,0); fill-opacity: 1"/><path d="M 130.06189012527466 -2.601237836392867 L 131.16706477565066 -2.255928470506989 L 131.36250899745633,-2.252738105973279z" style="fill: rgb(255,0,0); fill-opacity: 1"/><path d="M 131.36250899745633 -2.252738105973279 L 131.16706477565066 -2.255928470506989 L 132.314628151548,-1.3006189181964336z" style="fill: rgb(255,0,0); fill-opacity: 1"/><path d="M 127.80915209900132 1.3006189181964336 L 128.761271253093 2.252738105973279 L 129.325107025024,2.255928470506989z" style="fill: rgb(255,0,0); fill-opacity: 1"/><path d="M 129.325107025024 2.255928470506989 L 128.761271253093 2.252738105973279 L 130.06189012527466,2.601237836392867z" style="fill: rgb(255,0,0); fill-opacity: 1"/><path d="M 131.36250899745633 2.252738105973279 L 131.16706477565066 2.255928470506989 L 130.06189012527466,2.601237836392867z" style="fill: rgb(255,0,0); fill-opacity: 1"/><path d="M -130.06189012527466 -2.601237836392867 L -131.36250899745633 -2.252738105973279 L -131.16706477565066,-2.255928470506989z" style="fill: rgb(255,0,0); fill-opacity: 1"/><path d="M -130.06189012527466 -2.601237836392867 L -129.325107025024 -2.255928470506989 L -128.761271253093,-2.252738105973279z" style="fill: rgb(255,0,0); fill-opacity: 1"/><path d="M -128.761271253093 -2.252738105973279 L -129.325107025024 -2.255928470506989 L -127.80915209900132,-1.3006189181964336z" style="fill: rgb(255,0,0); fill-opacity: 1"/><path d="M -132.314628151548 1.3006189181964336 L -131.36250899745633 2.252738105973279 L -131.16706477565066,2.255928470506989z" style="fill: rgb(255,0,0); fill-opacity: 1"/><path d="M -131.16706477565066 2.255928470506989 L -131.36250899745633 2.252738105973279 L -130.06189012527466,2.601237836392867z" style="fill: rgb(255,0,0); fill-opacity: 1"/><path d="M -128.761271253093 2.252738105973279 L -129.325107025024 2.255928470506989 L -130.06189012527466,2.601237836392867z" style="fill: rgb(255,0,0); fill-opacity: 1"/><path d="M -1.3006188721816487 -2.252738105973279 L -2.252738026273332 -1.3006189181964336 L -1.5968377762389958,-1.3038125937905167z" style="fill: rgb(255,0,0); fill-opacity: 1"/><path d="M 2.252738026273332 -1.3006189181964336 L 1.5968377762389958 -1.3038125937905167 L 2.6012377443632975,-1.5927988194953096e-16z" style="fill: rgb(255,0,0); fill-opacity: 1"/><path d="M -2.6012377443632975 -1.5927988194953096e-16 L -2.252738026273332 1.3006189181964336 L -1.5968377762389958,1.3038125937905167z" style="fill: rgb(255,0,0); fill-opacity: 1"/><path d="M 2.252738026273332 1.3006189181964336 L 1.5968377762389958 1.3038125937905167 L 1.3006188721816487,2.252738105973279z" style="fill: rgb(255,0,0); fill-opacity: 1"/><path d="M 128.761271253093 -2.252738105973279 L 127.80915209900132 -1.3006189181964336 L 128.78441990428345,-1.3038125937905167z" style="fill: rgb(255,0,0); fill-opacity: 1"/><path d="M 132.314628151548 -1.3006189181964336 L 131.97809545676145 -1.3038125937905167 L 132.66312786963795,-1.5927988194953096e-16z" style="fill: rgb(255,0,0); fill-opacity: 1"/><path d="M 127.46065238091137 -1.5927988194953096e-16 L 127.80915209900132 1.3006189181964336 L 128.78441990428345,1.3038125937905167z" style="fill: rgb(255,0,0); fill-opacity: 1"/><path d="M 132.314628151548 1.3006189181964336 L 131.97809545676145 1.3038125937905167 L 131.36250899745633,2.252738105973279z" style="fill: rgb(255,0,0); fill-opacity: 1"/><path d="M -131.36250899745633 -2.252738105973279 L -132.314628151548 -1.3006189181964336 L -131.97809545676145,-1.3038125937905167z" style="fill: rgb(255,0,0); fill-opacity: 1"/><path d="M -127.80915209900132 -1.3006189181964336 L -128.78441990428345 -1.3038125937905167 L -127.46065238091137,-1.5927988194953096e-16z" style="fill: rgb(255,0,0); fill-opacity: 1"/><path d="M -132.66312786963795 -1.5927988194953096e-16 L -132.314628151548 1.3006189181964336 L -131.97809545676145,1.3038125937905167z" style="fill: rgb(255,0,0); fill-opacity: 1"/><path d="M -127.80915209900132 1.3006189181964336 L -128.78441990428345 1.3038125937905167 L -128.761271253093,2.252738105973279z" style="fill: rgb(255,0,0); fill-opacity: 1"/><path d="M -2.252738026273332 -1.3006189181964336 L -2.6012377443632975 -1.5927988194953096e-16 L -1.8445700609021483,-1.597316713265193e-16z" style="fill: rgb(255,0,0); fill-opacity: 1"/><path d="M 2.6012377443632975 -1.5927988194953096e-16 L 1.8445700609021483 -1.597316713265193e-16 L 2.252738026273332,1.3006189181964336z" style="fill: rgb(255,0,0); fill-opacity: 1"/><path d="M 127.80915209900132 -1.3006189181964336 L 127.46065238091137 -1.5927988194953096e-16 L 128.58623407655293,-1.597316713265193e-16z" style="fill: rgb(255,0,0); fill-opacity: 1"/><path d="M 132.66312786963795 -1.5927988194953096e-16 L 132.2753741983572 -1.597316713265193e-16 L 132.314628151548,1.3006189181964336z" style="fill: rgb(255,0,0); fill-opacity: 1"/><path d="M -132.314628151548 -1.3006189181964336 L -132.66312786963795 -1.5927988194953096e-16 L -132.2753741983572,-1.597316713265193e-16z" style="fill: rgb(255,0,0); fill-opacity: 1"/><path d="M -127.46065238091137 -1.5927988194953096e-16 L -128.58623407655293 -1.597316713265193e-16 L -127.80915209900132,1.3006189181964336z" style="fill: rgb(255,0,0); fill-opacity: 1"/><path d="M 0 -2.601237836392867 L -0.920978875313324 -2.255928470506989 L -7.97995372280613e-17,-2.2572526110945614z" style="fill: rgb(255,0,0); fill-opacity: 1"/><path d="M 0 -2.601237836392867 L -7.97995372280613e-17 -2.2572526110945614 L 0.920978875313324,-2.255928470506989z" style="fill: rgb(255,0,0); fill-opacity: 1"/><path d="M -7.97995372280613e-17 2.2572526110945614 L -0.920978875313324 2.255928470506989 L -1.9506158756358174e-32,2.601237836392867z" style="fill: rgb(255,0,0); fill-opacity: 1"/><path d="M 0.920978875313324 2.255928470506989 L -7.97995372280613e-17 2.2572526110945614 L 2.252557607196641e-16,2.601237836392867z" style="fill: rgb(255,0,0); fill-opacity: 1"/><path d="M 130.06189012527466 -2.601237836392867 L 129.325107025024 -2.255928470506989 L 130.32253518982844,-2.2572526110945614z" style="fill: rgb(255,0,0); fill-opacity: 1"/><path d="M 130.06189012527466 -2.601237836392867 L 130.32253518982844 -2.2572526110945614 L 131.16706477565066,-2.255928470506989z" style="fill: rgb(255,0,0); fill-opacity: 1"/><path d="M 130.32253518982844 2.2572526110945614 L 129.325107025024 2.255928470506989 L 130.06189012527466,2.601237836392867z" style="fill: rgb(255,0,0); fill-opacity: 1"/><path d="M 131.16706477565066 2.255928470506989 L 130.32253518982844 2.2572526110945614 L 130.06189012527466,2.601237836392867z" style="fill: rgb(255,0,0); fill-opacity: 1"/><path d="M -130.06189012527466 -2.601237836392867 L -131.16706477565066 -2.255928470506989 L -130.32253518982844,-2.2572526110945614z" style="fill: rgb(255,0,0); fill-opacity: 1"/><path d="M -130.06189012527466 -2.601237836392867 L -130.32253518982844 -2.2572526110945614 L -129.325107025024,-2.255928470506989z" style="fill: rgb(255,0,0); fill-opacity: 1"/><path d="M -130.32253518982844 2.2572526110945614 L -131.16706477565066 2.255928470506989 L -130.06189012527466,2.601237836392867z" style="fill: rgb(255,0,0); fill-opacity: 1"/><path d="M -129.325107025024 2.255928470506989 L -130.32253518982844 2.2572526110945614 L -130.06189012527466,2.601237836392867z" style="fill: rgb(255,0,0); fill-opacity: 1"/><path d="M -0.920978875313324 -2.255928470506989 L -1.3006188721816487 -2.252738105973279 L -1.5968377762389958,-1.3038125937905167z" style="fill: rgb(255,0,0); fill-opacity: 1"/><path d="M 0.920978875313324 -2.255928470506989 L 1.5968377762389958 -1.3038125937905167 L 2.252738026273332,-1.3006189181964336z" style="fill: rgb(255,0,0); fill-opacity: 1"/><path d="M -1.5968377762389958 1.3038125937905167 L -2.252738026273332 1.3006189181964336 L -0.920978875313324,2.255928470506989z" style="fill: rgb(255,0,0); fill-opacity: 1"/><path d="M 1.5968377762389958 1.3038125937905167 L 0.920978875313324 2.255928470506989 L 1.3006188721816487,2.252738105973279z" style="fill: rgb(255,0,0); fill-opacity: 1"/><path d="M 129.325107025024 -2.255928470506989 L 128.761271253093 -2.252738105973279 L 128.78441990428345,-1.3038125937905167z" style="fill: rgb(255,0,0); fill-opacity: 1"/><path d="M 131.16706477565066 -2.255928470506989 L 131.97809545676145 -1.3038125937905167 L 132.314628151548,-1.3006189181964336z" style="fill: rgb(255,0,0); fill-opacity: 1"/><path d="M 128.78441990428345 1.3038125937905167 L 127.80915209900132 1.3006189181964336 L 129.325107025024,2.255928470506989z" style="fill: rgb(255,0,0); fill-opacity: 1"/><path d="M 131.97809545676145 1.3038125937905167 L 131.16706477565066 2.255928470506989 L 131.36250899745633,2.252738105973279z" style="fill: rgb(255,0,0); fill-opacity: 1"/><path d="M -131.16706477565066 -2.255928470506989 L -131.36250899745633 -2.252738105973279 L -131.97809545676145,-1.3038125937905167z" style="fill: rgb(255,0,0); fill-opacity: 1"/><path d="M -129.325107025024 -2.255928470506989 L -128.78441990428345 -1.3038125937905167 L -127.80915209900132,-1.3006189181964336z" style="fill: rgb(255,0,0); fill-opacity: 1"/><path d="M -131.97809545676145 1.3038125937905167 L -132.314628151548 1.3006189181964336 L -131.16706477565066,2.255928470506989z" style="fill: rgb(255,0,0); fill-opacity: 1"/><path d="M -128.78441990428345 1.3038125937905167 L -129.325107025024 2.255928470506989 L -128.761271253093,2.252738105973279z" style="fill: rgb(255,0,0); fill-opacity: 1"/><path d="M -1.5968377762389958 -1.3038125937905167 L -2.252738026273332 -1.3006189181964336 L -1.8445700609021483,-1.597316713265193e-16z" style="fill: rgb(255,0,0); fill-opacity: 1"/><path d="M 1.5968377762389958 -1.3038125937905167 L 1.8445700609021483 -1.597316713265193e-16 L 2.6012377443632975,-1.5927988194953096e-16z" style="fill: rgb(255,0,0); fill-opacity: 1"/><path d="M -1.8445700609021483 -1.597316713265193e-16 L -2.6012377443632975 -1.5927988194953096e-16 L -1.5968377762389958,1.3038125937905167z" style="fill: rgb(255,0,0); fill-opacity: 1"/><path d="M 1.8445700609021483 -1.597316713265193e-16 L 1.5968377762389958 1.3038125937905167 L 2.252738026273332,1.3006189181964336z" style="fill: rgb(255,0,0); fill-opacity: 1"/><path d="M 128.78441990428345 -1.3038125937905167 L 127.80915209900132 -1.3006189181964336 L 128.58623407655293,-1.597316713265193e-16z" style="fill: rgb(255,0,0); fill-opacity: 1"/><path d="M 131.97809545676145 -1.3038125937905167 L 132.2753741983572 -1.597316713265193e-16 L 132.66312786963795,-1.5927988194953096e-16z" style="fill: rgb(255,0,0); fill-opacity: 1"/><path d="M 128.58623407655293 -1.597316713265193e-16 L 127.46065238091137 -1.5927988194953096e-16 L 128.78441990428345,1.3038125937905167z" style="fill: rgb(255,0,0); fill-opacity: 1"/><path d="M 132.2753741983572 -1.597316713265193e-16 L 131.97809545676145 1.3038125937905167 L 132.314628151548,1.3006189181964336z" style="fill: rgb(255,0,0); fill-opacity: 1"/><path d="M -131.97809545676145 -1.3038125937905167 L -132.314628151548 -1.3006189181964336 L -132.2753741983572,-1.597316713265193e-16z" style="fill: rgb(255,0,0); fill-opacity: 1"/><path d="M -128.78441990428345 -1.3038125937905167 L -128.58623407655293 -1.597316713265193e-16 L -127.46065238091137,-1.5927988194953096e-16z" style="fill: rgb(255,0,0); fill-opacity: 1"/><path d="M -132.2753741983572 -1.597316713265193e-16 L -132.66312786963795 -1.5927988194953096e-16 L -131.97809545676145,1.3038125937905167z" style="fill: rgb(255,0,0); fill-opacity: 1"/><path d="M -128.58623407655293 -1.597316713265193e-16 L -128.78441990428345 1.3038125937905167 L -127.80915209900132,1.3006189181964336z" style="fill: rgb(255,0,0); fill-opacity: 1"/><path d="M 0.920978875313324 -2.255928470506989 L -7.97995372280613e-17 -2.2572526110945614 L 1.5968377762389958,-1.3038125937905167z" style="fill: rgb(255,0,0); fill-opacity: 1"/><path d="M -1.5968377762389958 1.3038125937905167 L -0.920978875313324 2.255928470506989 L -7.97995372280613e-17,2.2572526110945614z" style="fill: rgb(255,0,0); fill-opacity: 1"/><path d="M 131.16706477565066 -2.255928470506989 L 130.32253518982844 -2.2572526110945614 L 131.97809545676145,-1.3038125937905167z" style="fill: rgb(255,0,0); fill-opacity: 1"/><path d="M 128.78441990428345 1.3038125937905167 L 129.325107025024 2.255928470506989 L 130.32253518982844,2.2572526110945614z" style="fill: rgb(255,0,0); fill-opacity: 1"/><path d="M -129.325107025024 -2.255928470506989 L -130.32253518982844 -2.2572526110945614 L -128.78441990428345,-1.3038125937905167z" style="fill: rgb(255,0,0); fill-opacity: 1"/><path d="M -131.97809545676145 1.3038125937905167 L -131.16706477565066 2.255928470506989 L -130.32253518982844,2.2572526110945614z" style="fill: rgb(255,0,0); fill-opacity: 1"/><path d="M -7.97995372280613e-17 -2.2572526110945614 L -0.920978875313324 -2.255928470506989 L -1.3841991655157384e-16,-1.3051400559884583z" style="fill: rgb(255,0,0); fill-opacity: 1"/><path d="M -1.3841991655157384e-16 1.3051400559884583 L -7.97995372280613e-17 2.2572526110945614 L 0.920978875313324,2.255928470506989z" style="fill: rgb(255,0,0); fill-opacity: 1"/><path d="M 130.32253518982844 -2.2572526110945614 L 129.325107025024 -2.255928470506989 L 130.51400389858728,-1.3051400559884583z" style="fill: rgb(255,0,0); fill-opacity: 1"/><path d="M 130.51400389858728 1.3051400559884583 L 130.32253518982844 2.2572526110945614 L 131.16706477565066,2.255928470506989z" style="fill: rgb(255,0,0); fill-opacity: 1"/><path d="M -130.32253518982844 -2.2572526110945614 L -131.16706477565066 -2.255928470506989 L -130.51400389858728,-1.3051400559884583z" style="fill: rgb(255,0,0); fill-opacity: 1"/><path d="M -130.51400389858728 1.3051400559884583 L -130.32253518982844 2.2572526110945614 L -129.325107025024,2.255928470506989z" style="fill: rgb(255,0,0); fill-opacity: 1"/><path d="M -0.920978875313324 -2.255928470506989 L -1.5968377762389958 -1.3038125937905167 L -1.3841991655157384e-16,-1.3051400559884583z" style="fill: rgb(255,0,0); fill-opacity: 1"/><path d="M 1.5968377762389958 1.3038125937905167 L -1.3841991655157384e-16 1.3051400559884583 L 0.920978875313324,2.255928470506989z" style="fill: rgb(255,0,0); fill-opacity: 1"/><path d="M 129.325107025024 -2.255928470506989 L 128.78441990428345 -1.3038125937905167 L 130.51400389858728,-1.3051400559884583z" style="fill: rgb(255,0,0); fill-opacity: 1"/><path d="M 131.97809545676145 1.3038125937905167 L 130.51400389858728 1.3051400559884583 L 131.16706477565066,2.255928470506989z" style="fill: rgb(255,0,0); fill-opacity: 1"/><path d="M -131.16706477565066 -2.255928470506989 L -131.97809545676145 -1.3038125937905167 L -130.51400389858728,-1.3051400559884583z" style="fill: rgb(255,0,0); fill-opacity: 1"/><path d="M -128.78441990428345 1.3038125937905167 L -130.51400389858728 1.3051400559884583 L -129.325107025024,2.255928470506989z" style="fill: rgb(255,0,0); fill-opacity: 1"/><path d="M -7.97995372280613e-17 -2.2572526110945614 L -1.3841991655157384e-16 -1.3051400559884583 L 1.5968377762389958,-1.3038125937905167z" style="fill: rgb(255,0,0); fill-opacity: 1"/><path d="M -1.3841991655157384e-16 1.3051400559884583 L -1.5968377762389958 1.3038125937905167 L -7.97995372280613e-17,2.2572526110945614z" style="fill: rgb(255,0,0); fill-opacity: 1"/><path d="M 130.32253518982844 -2.2572526110945614 L 130.51400389858728 -1.3051400559884583 L 131.97809545676145,-1.3038125937905167z" style="fill: rgb(255,0,0); fill-opacity: 1"/><path d="M 130.51400389858728 1.3051400559884583 L 128.78441990428345 1.3038125937905167 L 130.32253518982844,2.2572526110945614z" style="fill: rgb(255,0,0); fill-opacity: 1"/><path d="M -130.32253518982844 -2.2572526110945614 L -130.51400389858728 -1.3051400559884583 L -128.78441990428345,-1.3038125937905167z" style="fill: rgb(255,0,0); fill-opacity: 1"/><path d="M -130.51400389858728 1.3051400559884583 L -131.97809545676145 1.3038125937905167 L -130.32253518982844,2.2572526110945614z" style="fill: rgb(255,0,0); fill-opacity: 1"/><path d="M 1.5968377762389958 -1.3038125937905167 L -1.3841991655157384e-16 -1.3051400559884583 L 1.8445700609021483,-1.597316713265193e-16z" style="fill: rgb(255,0,0); fill-opacity: 1"/><path d="M -1.8445700609021483 -1.597316713265193e-16 L -1.5968377762389958 1.3038125937905167 L -1.3841991655157384e-16,1.3051400559884583z" style="fill: rgb(255,0,0); fill-opacity: 1"/><path d="M 131.97809545676145 -1.3038125937905167 L 130.51400389858728 -1.3051400559884583 L 132.2753741983572,-1.597316713265193e-16z" style="fill: rgb(255,0,0); fill-opacity: 1"/><path d="M 128.58623407655293 -1.597316713265193e-16 L 128.78441990428345 1.3038125937905167 L 130.51400389858728,1.3051400559884583z" style="fill: rgb(255,0,0); fill-opacity: 1"/><path d="M -128.78441990428345 -1.3038125937905167 L -130.51400389858728 -1.3051400559884583 L -128.58623407655293,-1.597316713265193e-16z" style="fill: rgb(255,0,0); fill-opacity: 1"/><path d="M -132.2753741983572 -1.597316713265193e-16 L -131.97809545676145 1.3038125937905167 L -130.51400389858728,1.3051400559884583z" style="fill: rgb(255,0,0); fill-opacity: 1"/><path d="M -1.5968377762389958 -1.3038125937905167 L -1.8445700609021483 -1.597316713265193e-16 L -1.5991955451811956e-16,-1.5991956017593679e-16z" style="fill: rgb(255,0,0); fill-opacity: 1"/><path d="M 1.8445700609021483 -1.597316713265193e-16 L -1.5991955451811956e-16 -1.5991956017593679e-16 L 1.5968377762389958,1.3038125937905167z" style="fill: rgb(255,0,0); fill-opacity: 1"/><path d="M 128.78441990428345 -1.3038125937905167 L 128.58623407655293 -1.597316713265193e-16 L 130.58422702168627,-1.5991956017593679e-16z" style="fill: rgb(255,0,0); fill-opacity: 1"/><path d="M 132.2753741983572 -1.597316713265193e-16 L 130.58422702168627 -1.5991956017593679e-16 L 131.97809545676145,1.3038125937905167z" style="fill: rgb(255,0,0); fill-opacity: 1"/><path d="M -131.97809545676145 -1.3038125937905167 L -132.2753741983572 -1.597316713265193e-16 L -130.58422702168627,-1.5991956017593679e-16z" style="fill: rgb(255,0,0); fill-opacity: 1"/><path d="M -128.58623407655293 -1.597316713265193e-16 L -130.58422702168627 -1.5991956017593679e-16 L -128.78441990428345,1.3038125937905167z" style="fill: rgb(255,0,0); fill-opacity: 1"/><path d="M -1.5991955451811956e-16 -1.5991956017593679e-16 L -1.3841991655157384e-16 1.3051400559884583 L 1.5968377762389958,1.3038125937905167z" style="fill: rgb(255,0,0); fill-opacity: 1"/><path d="M 130.58422702168627 -1.5991956017593679e-16 L 130.51400389858728 1.3051400559884583 L 131.97809545676145,1.3038125937905167z" style="fill: rgb(255,0,0); fill-opacity: 1"/><path d="M -130.58422702168627 -1.5991956017593679e-16 L -130.51400389858728 1.3051400559884583 L -128.78441990428345,1.3038125937905167z" style="fill: rgb(255,0,0); fill-opacity: 1"/><path d="M -1.3841991655157384e-16 -1.3051400559884583 L -1.5968377762389958 -1.3038125937905167 L -1.5991955451811956e-16,-1.5991956017593679e-16z" style="fill: rgb(255,0,0); fill-opacity: 1"/><path d="M 130.51400389858728 -1.3051400559884583 L 128.78441990428345 -1.3038125937905167 L 130.58422702168627,-1.5991956017593679e-16z" style="fill: rgb(255,0,0); fill-opacity: 1"/><path d="M -130.51400389858728 -1.3051400559884583 L -131.97809545676145 -1.3038125937905167 L -130.58422702168627,-1.5991956017593679e-16z" style="fill: rgb(255,0,0); fill-opacity: 1"/><path d="M -1.3841991655157384e-16 -1.3051400559884583 L -1.5991955451811956e-16 -1.5991956017593679e-16 L 1.8445700609021483,-1.597316713265193e-16z" style="fill: rgb(255,0,0); fill-opacity: 1"/><path d="M -1.5991955451811956e-16 -1.5991956017593679e-16 L -1.8445700609021483 -1.597316713265193e-16 L -1.3841991655157384e-16,1.3051400559884583z" style="fill: rgb(255,0,0); fill-opacity: 1"/><path d="M 130.51400389858728 -1.3051400559884583 L 130.58422702168627 -1.5991956017593679e-16 L 132.2753741983572,-1.597316713265193e-16z" style="fill: rgb(255,0,0); fill-opacity: 1"/><path d="M 130.58422702168627 -1.5991956017593679e-16 L 128.58623407655293 -1.597316713265193e-16 L 130.51400389858728,1.3051400559884583z" style="fill: rgb(255,0,0); fill-opacity: 1"/><path d="M -130.51400389858728 -1.3051400559884583 L -130.58422702168627 -1.5991956017593679e-16 L -128.58623407655293,-1.597316713265193e-16z" style="fill: rgb(255,0,0); fill-opacity: 1"/><path d="M -130.58422702168627 -1.5991956017593679e-16 L -132.2753741983572 -1.597316713265193e-16 L -130.51400389858728,1.3051400559884583z" style="fill: rgb(255,0,0); fill-opacity: 1"/></svg>