<svg xmlns="http://www.w3.org/2000/svg" viewBox="-495 -499 990 998" width="990" height="998" style="background-color: rgb(255, 255, 255);"><path d="M 4.1239267753471584e-16 -1.2961289956332505 L 4.759358988383179e-16 -1.5864530076067225e-16 L -1.8341650271369099,-1.5883064107087399e-16z" style="fill: rgb(255,0,0); fill-opacity: 1"/><path d="M 4.759358988383179e-16 -1.5864530076067225e-16 L 1.8341650271369099 -1.5883064107087399e-16 L 4.1239267753471584e-16,1.2961289956332505z" style="fill: rgb(255,0,0); fill-opacity: 1"/><path d="M 129.61289787480555 -1.2961289956332505 L 129.54371527575375 -1.5864530076067225e-16 L 127.86089209271037,-1.5883064107087399e-16z" style="fill: rgb(255,0,0); fill-opacity: 1"/><path d="M 129.54371527575375 -1.5864530076067225e-16 L 131.52922214698418 -1.5883064107087399e-16 L 129.61289787480555,1.2961289956332505z" style="fill: rgb(255,0,0); fill-opacity: 1"/><path d="M 4.1239267753471584e-16 -130.9090314560324 L 4.759358988383179e-16 -129.54371985889975 L -1.8341650271369099,-129.6950617083476z" style="fill: rgb(255,0,0); fill-opacity: 1"/><path d="M 4.759358988383179e-16 -129.54371985889975 L 1.8341650271369099 -129.6950617083476 L 4.1239267753471584e-16,-128.31677346476593z" style="fill: rgb(255,0,0); fill-opacity: 1"/><path d="M -91.65018835011175 90.35406259698388 L -91.60126884952491 91.60127209029956 L -93.54244875514885,91.70828697257268z" style="fill: rgb(255,0,0); fill-opacity: 1"/><path d="M -91.60126884952491 91.60127209029956 L -89.87411870087503 91.70828697257268 L -91.65018835011175,92.94632058825037z" style="fill: rgb(255,0,0); fill-opacity: 1"/><path d="M 4.759358988383179e-16 -1.5864530076067225e-16 L 4.1239267753471584e-16 1.2961289956332505 L -1.5890340159156642,1.2974408501232002z" style="fill: rgb(255,0,0); fill-opacity: 1"/><path d="M 129.54371527575375 -1.5864530076067225e-16 L 129.61289787480555 1.2961289956332505 L 128.15504930617587,1.2974408501232002z" style="fill: rgb(255,0,0); fill-opacity: 1"/><path d="M 4.759358988383179e-16 -129.54371985889975 L 4.1239267753471584e-16 -128.31677346476593 L -1.5890340159156642,-128.44664706220317z" style="fill: rgb(255,0,0); fill-opacity: 1"/><path d="M -91.60126884952491 91.60127209029956 L -91.65018835011175 92.94632058825037 L -93.33198451508581,93.04039459508056z" style="fill: rgb(255,0,0); fill-opacity: 1"/><path d="M 4.1239267753471584e-16 -1.2961289956332505 L 1.5890340159156642 -1.2974408501232002 L 4.759358988383179e-16,-1.5864530076067225e-16z" style="fill: rgb(255,0,0); fill-opacity: 1"/><path d="M 129.61289787480555 -1.2961289956332505 L 131.3331173380072 -1.2974408501232002 L 129.54371527575375,-1.5864530076067225e-16z" style="fill: rgb(255,0,0); fill-opacity: 1"/><path d="M 4.1239267753471584e-16 -130.9090314560324 L 1.5890340159156642 -131.0415287624496 L 4.759358988383179e-16,-129.54371985889975z" style="fill: rgb(255,0,0); fill-opacity: 1"/><path d="M -91.65018835011175 90.35406259698388 L -90.15391648325448 90.44551289483417 L -91.60126884952491,91.60127209029956z" style="fill: rgb(255,0,0); fill-opacity: 1"/><path d="M 1.5890340159156642 -1.2974408501232002 L 1.8341650271369099 -1.5883064107087399e-16 L 4.759358988383179e-16,-1.5864530076067225e-16z" style="fill: rgb(255,0,0); fill-opacity: 1"/><path d="M 131.3331173380072 -1.2974408501232002 L 131.52922214698418 -1.5883064107087399e-16 L 129.54371527575375,-1.5864530076067225e-16z" style="fill: rgb(255,0,0); fill-opacity: 1"/><path d="M 1.5890340159156642 -131.0415287624496 L 1.8341650271369099 -129.6950617083476 L 4.759358988383179e-16,-129.54371985889975z" style="fill: rgb(255,0,0); fill-opacity: 1"/><path d="M -90.15391648325448 90.44551289483417 L -89.87411870087503 91.70828697257268 L -91.60126884952491,91.60127209029956z" style="fill: rgb(255,0,0); fill-opacity: 1"/><path d="M -1.8341650271369099 -1.5883064107087399e-16 L 4.759358988383179e-16 -1.5864530076067225e-16 L -1.5890340159156642,1.2974408501232002z" style="fill: rgb(255,0,0); fill-opacity: 1"/><path d="M 127.86089209271037 -1.5883064107087399e-16 L 129.54371527575375 -1.5864530076067225e-16 L 128.15504930617587,1.2974408501232002z" style="fill: rgb(255,0,0); fill-opacity: 1"/><path d="M -1.8341650271369099 -129.6950617083476 L 4.759358988383179e-16 -129.54371985889975 L -1.5890340159156642,-128.44664706220317z" style="fill: rgb(255,0,0); fill-opacity: 1"/><path d="M -93.54244875514885 91.70828697257268 L -91.60126884952491 91.60127209029956 L -93.33198451508581,93.04039459508056z" style="fill: rgb(255,0,0); fill-opacity: 1"/><path d="M -1.5890340159156642 -1.2974408501232002 L 4.1239267753471584e-16 -1.2961289956332505 L -1.8341650271369099,-1.5883064107087399e-16z" style="fill: rgb(255,0,0); fill-opacity: 1"/><path d="M 1.8341650271369099 -1.5883064107087399e-16 L 1.5890340159156642 1.2974408501232002 L 4.1239267753471584e-16,1.2961289956332505z" style="fill: rgb(255,0,0); fill-opacity: 1"/><path d="M 128.15504930617587 -1.2974408501232002 L 129.61289787480555 -1.2961289956332505 L 127.86089209271037,-1.5883064107087399e-16z" style="fill: rgb(255,0,0); fill-opacity: 1"/><path d="M 131.52922214698418 -1.5883064107087399e-16 L 131.3331173380072 1.2974408501232002 L 129.61289787480555,1.2961289956332505z" style="fill: rgb(255,0,0); fill-opacity: 1"/><path d="M -1.5890340159156642 -131.0415287624496 L 4.1239267753471584e-16 -130.9090314560324 L -1.8341650271369099,-129.6950617083476z" style="fill: rgb(255,0,0); fill-opacity: 1"/><path d="M 1.8341650271369099 -129.6950617083476 L 1.5890340159156642 -128.44664706220317 L 4.1239267753471584e-16,-128.31677346476593z" style="fill: rgb(255,0,0); fill-opacity: 1"/><path d="M -93.33198451508581 90.44551289483417 L -91.65018835011175 90.35406259698388 L -93.54244875514885,91.70828697257268z" style="fill: rgb(255,0,0); fill-opacity: 1"/><path d="M -89.87411870087503 91.70828697257268 L -90.15391648325448 93.04039459508056 L -91.65018835011175,92.94632058825037z" style="fill: rgb(255,0,0); fill-opacity: 1"/><path d="M 2.3844293533554775e-16 -2.248241622828127 L 4.1239267753471584e-16 -1.2961289956332505 L -1.5890340159156642,-1.2974408501232002z" style="fill: rgb(255,0,0); fill-opacity: 1"/><path d="M 129.80228555995737 -2.248241622828127 L 129.61289787480555 -1.2961289956332505 L 128.15504930617587,-1.2974408501232002z" style="fill: rgb(255,0,0); fill-opacity: 1"/><path d="M 2.3844293533554775e-16 -132.0505317750795 L 4.1239267753471584e-16 -130.9090314560324 L -1.5890340159156642,-131.0415287624496z" style="fill: rgb(255,0,0); fill-opacity: 1"/><path d="M -91.78410570941746 89.5358673338326 L -91.65018835011175 90.35406259698388 L -93.33198451508581,90.44551289483417z" style="fill: rgb(255,0,0); fill-opacity: 1"/><path d="M 4.1239267753471584e-16 1.2961289956332505 L 1.5890340159156642 1.2974408501232002 L 2.3844293533554775e-16,2.248241622828127z" style="fill: rgb(255,0,0); fill-opacity: 1"/><path d="M 129.61289787480555 1.2961289956332505 L 131.3331173380072 1.2974408501232002 L 129.80228555995737,2.248241622828127z" style="fill: rgb(255,0,0); fill-opacity: 1"/><path d="M 4.1239267753471584e-16 -128.31677346476593 L 1.5890340159156642 -128.44664706220317 L 2.3844293533554775e-16,-127.55404852942321z" style="fill: rgb(255,0,0); fill-opacity: 1"/><path d="M -91.65018835011175 92.94632058825037 L -90.15391648325448 93.04039459508056 L -91.78410570941746,94.03235057948883z" style="fill: rgb(255,0,0); fill-opacity: 1"/><path d="M 0.9183776324795951 -2.2495567524094215 L 1.5890340159156642 -1.2974408501232002 L 4.1239267753471584e-16,-1.2961289956332505z" style="fill: rgb(255,0,0); fill-opacity: 1"/><path d="M -1.5890340159156642 1.2974408501232002 L 4.1239267753471584e-16 1.2961289956332505 L -0.9183776324795951,2.2495567524094215z" style="fill: rgb(255,0,0); fill-opacity: 1"/><path d="M 130.79659223125833 -2.2495567524094215 L 131.3331173380072 -1.2974408501232002 L 129.61289787480555,-1.2961289956332505z" style="fill: rgb(255,0,0); fill-opacity: 1"/><path d="M 128.15504930617587 1.2974408501232002 L 129.61289787480555 1.2961289956332505 L 128.95983696629915,2.2495567524094215z" style="fill: rgb(255,0,0); fill-opacity: 1"/><path d="M 0.9183776324795951 -132.12777594616847 L 1.5890340159156642 -131.0415287624496 L 4.1239267753471584e-16,-130.9090314560324z" style="fill: rgb(255,0,0); fill-opacity: 1"/><path d="M -1.5890340159156642 -128.44664706220317 L 4.1239267753471584e-16 -128.31677346476593 L -0.9183776324795951,-127.6286624413496z" style="fill: rgb(255,0,0); fill-opacity: 1"/><path d="M -90.91941803236146 89.5882421615744 L -90.15391648325448 90.44551289483417 L -91.65018835011175,90.35406259698388z" style="fill: rgb(255,0,0); fill-opacity: 1"/><path d="M -93.33198451508581 93.04039459508056 L -91.65018835011175 92.94632058825037 L -92.75617329732066,94.08735566639325z" style="fill: rgb(255,0,0); fill-opacity: 1"/><path d="M 2.3844293533554775e-16 -2.248241622828127 L 0.9183776324795951 -2.2495567524094215 L 4.1239267753471584e-16,-1.2961289956332505z" style="fill: rgb(255,0,0); fill-opacity: 1"/><path d="M 4.1239267753471584e-16 1.2961289956332505 L 2.3844293533554775e-16 2.248241622828127 L -0.9183776324795951,2.2495567524094215z" style="fill: rgb(255,0,0); fill-opacity: 1"/><path d="M 129.80228555995737 -2.248241622828127 L 130.79659223125833 -2.2495567524094215 L 129.61289787480555,-1.2961289956332505z" style="fill: rgb(255,0,0); fill-opacity: 1"/><path d="M 129.61289787480555 1.2961289956332505 L 129.80228555995737 2.248241622828127 L 128.95983696629915,2.2495567524094215z" style="fill: rgb(255,0,0); fill-opacity: 1"/><path d="M 2.3844293533554775e-16 -132.0505317750795 L 0.9183776324795951 -132.12777594616847 L 4.1239267753471584e-16,-130.9090314560324z" style="fill: rgb(255,0,0); fill-opacity: 1"/><path d="M 4.1239267753471584e-16 -128.31677346476593 L 2.3844293533554775e-16 -127.55404852942321 L -0.9183776324795951,-127.6286624413496z" style="fill: rgb(255,0,0); fill-opacity: 1"/><path d="M -91.78410570941746 89.5358673338326 L -90.91941803236146 89.5882421615744 L -91.65018835011175,90.35406259698388z" style="fill: rgb(255,0,0); fill-opacity: 1"/><path d="M -91.65018835011175 92.94632058825037 L -91.78410570941746 94.03235057948883 L -92.75617329732066,94.08735566639325z" style="fill: rgb(255,0,0); fill-opacity: 1"/><path d="M 1.5890340159156642 1.2974408501232002 L 0.9183776324795951 2.2495567524094215 L 2.3844293533554775e-16,2.248241622828127z" style="fill: rgb(255,0,0); fill-opacity: 1"/><path d="M 131.3331173380072 1.2974408501232002 L 130.79659223125833 2.2495567524094215 L 129.80228555995737,2.248241622828127z" style="fill: rgb(255,0,0); fill-opacity: 1"/><path d="M 1.5890340159156642 -128.44664706220317 L 0.9183776324795951 -127.6286624413496 L 2.3844293533554775e-16,-127.55404852942321z" style="fill: rgb(255,0,0); fill-opacity: 1"/><path d="M -90.15391648325448 93.04039459508056 L -90.91941803236146 94.08735566639325 L -91.78410570941746,94.03235057948883z" style="fill: rgb(255,0,0); fill-opacity: 1"/><path d="M -0.9183776324795951 -2.2495567524094215 L 2.3844293533554775e-16 -2.248241622828127 L -1.5890340159156642,-1.2974408501232002z" style="fill: rgb(255,0,0); fill-opacity: 1"/><path d="M 128.95983696629915 -2.2495567524094215 L 129.80228555995737 -2.248241622828127 L 128.15504930617587,-1.2974408501232002z" style="fill: rgb(255,0,0); fill-opacity: 1"/><path d="M -0.9183776324795951 -132.12777594616847 L 2.3844293533554775e-16 -132.0505317750795 L -1.5890340159156642,-131.0415287624496z" style="fill: rgb(255,0,0); fill-opacity: 1"/><path d="M -92.75617329732066 89.5882421615744 L -91.78410570941746 89.5358673338326 L -93.33198451508581,90.44551289483417z" style="fill: rgb(255,0,0); fill-opacity: 1"/><path d="M 1.5890340159156642 -1.2974408501232002 L 2.252738026273332 -1.3006189181964336 L 1.8341650271369099,-1.5883064107087399e-16z" style="fill: rgb(255,0,0); fill-opacity: 1"/><path d="M -1.5890340159156642 -1.2974408501232002 L -1.8341650271369099 -1.5883064107087399e-16 L -2.6012377443632975,-1.5927988194953096e-16z" style="fill: rgb(255,0,0); fill-opacity: 1"/><path d="M 1.8341650271369099 -1.5883064107087399e-16 L 2.6012377443632975 -1.5927988194953096e-16 L 1.5890340159156642,1.2974408501232002z" style="fill: rgb(255,0,0); fill-opacity: 1"/><path d="M -1.8341650271369099 -1.5883064107087399e-16 L -1.5890340159156642 1.2974408501232002 L -2.252738026273332,1.3006189181964336z" style="fill: rgb(255,0,0); fill-opacity: 1"/><path d="M 131.3331173380072 -1.2974408501232002 L 132.314628151548 -1.3006189181964336 L 131.52922214698418,-1.5883064107087399e-16z" style="fill: rgb(255,0,0); fill-opacity: 1"/><path d="M 128.15504930617587 -1.2974408501232002 L 127.86089209271037 -1.5883064107087399e-16 L 127.46065238091137,-1.5927988194953096e-16z" style="fill: rgb(255,0,0); fill-opacity: 1"/><path d="M 131.52922214698418 -1.5883064107087399e-16 L 132.66312786963795 -1.5927988194953096e-16 L 131.3331173380072,1.2974408501232002z" style="fill: rgb(255,0,0); fill-opacity: 1"/><path d="M 127.86089209271037 -1.5883064107087399e-16 L 128.15504930617587 1.2974408501232002 L 127.80915209900132,1.3006189181964336z" style="fill: rgb(255,0,0); fill-opacity: 1"/><path d="M 1.5890340159156642 -131.0415287624496 L 2.252738026273332 -131.36251364494967 L 1.8341650271369099,-129.6950617083476z" style="fill: rgb(255,0,0); fill-opacity: 1"/><path d="M -1.5890340159156642 -131.0415287624496 L -1.8341650271369099 -129.6950617083476 L -2.6012377443632975,-130.06189472675322z" style="fill: rgb(255,0,0); fill-opacity: 1"/><path d="M 1.8341650271369099 -129.6950617083476 L 2.6012377443632975 -130.06189472675322 L 1.5890340159156642,-128.44664706220317z" style="fill: rgb(255,0,0); fill-opacity: 1"/><path d="M -1.8341650271369099 -129.6950617083476 L -1.5890340159156642 -128.44664706220317 L -2.252738026273332,-128.7612758085568z" style="fill: rgb(255,0,0); fill-opacity: 1"/><path d="M -90.15391648325448 90.44551289483417 L -89.7149358904599 90.66705825227453 L -89.87411870087503,91.70828697257268z" style="fill: rgb(255,0,0); fill-opacity: 1"/><path d="M -93.33198451508581 90.44551289483417 L -93.54244875514885 91.70828697257268 L -94.56891166109652,91.96767717047096z" style="fill: rgb(255,0,0); fill-opacity: 1"/><path d="M -89.87411870087503 91.70828697257268 L -89.36643617236993 91.96767717047096 L -90.15391648325448,93.04039459508056z" style="fill: rgb(255,0,0); fill-opacity: 1"/><path d="M -93.54244875514885 91.70828697257268 L -93.33198451508581 93.04039459508056 L -94.22041194300655,93.2682960886674z" style="fill: rgb(255,0,0); fill-opacity: 1"/><path d="M 0.9183776324795951 -2.2495567524094215 L 1.3006188721816487 -2.252738105973279 L 1.5890340159156642,-1.2974408501232002z" style="fill: rgb(255,0,0); fill-opacity: 1"/><path d="M -0.9183776324795951 -2.2495567524094215 L -1.5890340159156642 -1.2974408501232002 L -2.252738026273332,-1.3006189181964336z" style="fill: rgb(255,0,0); fill-opacity: 1"/><path d="M 1.5890340159156642 1.2974408501232002 L 2.252738026273332 1.3006189181964336 L 0.9183776324795951,2.2495567524094215z" style="fill: rgb(255,0,0); fill-opacity: 1"/><path d="M -1.5890340159156642 1.2974408501232002 L -0.9183776324795951 2.2495567524094215 L -1.3006188721816487,2.252738105973279z" style="fill: rgb(255,0,0); fill-opacity: 1"/><path d="M 130.79659223125833 -2.2495567524094215 L 131.36250899745633 -2.252738105973279 L 131.3331173380072,-1.2974408501232002z" style="fill: rgb(255,0,0); fill-opacity: 1"/><path d="M 128.95983696629915 -2.2495567524094215 L 128.15504930617587 -1.2974408501232002 L 127.80915209900132,-1.3006189181964336z" style="fill: rgb(255,0,0); fill-opacity: 1"/><path d="M 131.3331173380072 1.2974408501232002 L 132.314628151548 1.3006189181964336 L 130.79659223125833,2.2495567524094215z" style="fill: rgb(255,0,0); fill-opacity: 1"/><path d="M 128.15504930617587 1.2974408501232002 L 128.95983696629915 2.2495567524094215 L 128.761271253093,2.252738105973279z" style="fill: rgb(255,0,0); fill-opacity: 1"/><path d="M 0.9183776324795951 -132.12777594616847 L 1.3006188721816487 -132.31463283272652 L 1.5890340159156642,-131.0415287624496z" style="fill: rgb(255,0,0); fill-opacity: 1"/><path d="M -0.9183776324795951 -132.12777594616847 L -1.5890340159156642 -131.0415287624496 L -2.252738026273332,-131.36251364494967z" style="fill: rgb(255,0,0); fill-opacity: 1"/><path d="M 1.5890340159156642 -128.44664706220317 L 2.252738026273332 -128.7612758085568 L 0.9183776324795951,-127.6286624413496z" style="fill: rgb(255,0,0); fill-opacity: 1"/><path d="M -1.5890340159156642 -128.44664706220317 L -0.9183776324795951 -127.6286624413496 L -1.3006188721816487,-127.80915662077996z" style="fill: rgb(255,0,0); fill-opacity: 1"/><path d="M -90.91941803236146 89.5882421615744 L -90.66705504455157 89.7149390644977 L -90.15391648325448,90.44551289483417z" style="fill: rgb(255,0,0); fill-opacity: 1"/><path d="M -92.75617329732066 89.5882421615744 L -93.33198451508581 90.44551289483417 L -94.22041194300655,90.66705825227453z" style="fill: rgb(255,0,0); fill-opacity: 1"/><path d="M -90.15391648325448 93.04039459508056 L -89.7149358904599 93.2682960886674 L -90.91941803236146,94.08735566639325z" style="fill: rgb(255,0,0); fill-opacity: 1"/><path d="M -93.33198451508581 93.04039459508056 L -92.75617329732066 94.08735566639325 L -93.26829278891488,94.22041527644426z" style="fill: rgb(255,0,0); fill-opacity: 1"/><path d="M 0 -2.601237836392867 L 0.9183776324795951 -2.2495567524094215 L 2.3844293533554775e-16,-2.248241622828127z" style="fill: rgb(255,0,0); fill-opacity: 1"/><path d="M 0 -2.601237836392867 L 2.3844293533554775e-16 -2.248241622828127 L -0.9183776324795951,-2.2495567524094215z" style="fill: rgb(255,0,0); fill-opacity: 1"/><path d="M 2.3844293533554775e-16 2.248241622828127 L 0.9183776324795951 2.2495567524094215 L 5.851847925514907e-32,2.601237836392867z" style="fill: rgb(255,0,0); fill-opacity: 1"/><path d="M -0.9183776324795951 2.2495567524094215 L 2.3844293533554775e-16 2.248241622828127 L -2.252557607196641e-16,2.601237836392867z" style="fill: rgb(255,0,0); fill-opacity: 1"/><path d="M 130.06189012527466 -2.601237836392867 L 130.79659223125833 -2.2495567524094215 L 129.80228555995737,-2.248241622828127z" style="fill: rgb(255,0,0); fill-opacity: 1"/><path d="M 130.06189012527466 -2.601237836392867 L 129.80228555995737 -2.248241622828127 L 128.95983696629915,-2.2495567524094215z" style="fill: rgb(255,0,0); fill-opacity: 1"/><path d="M 129.80228555995737 2.248241622828127 L 130.79659223125833 2.2495567524094215 L 130.06189012527466,2.601237836392867z" style="fill: rgb(255,0,0); fill-opacity: 1"/><path d="M 128.95983696629915 2.2495567524094215 L 129.80228555995737 2.248241622828127 L 130.06189012527466,2.601237836392867z" style="fill: rgb(255,0,0); fill-opacity: 1"/><path d="M 0 -132.6631325631461 L 0.9183776324795951 -132.12777594616847 L 2.3844293533554775e-16,-132.0505317750795z" style="fill: rgb(255,0,0); fill-opacity: 1"/><path d="M 0 -132.6631325631461 L 2.3844293533554775e-16 -132.0505317750795 L -0.9183776324795951,-132.12777594616847z" style="fill: rgb(255,0,0); fill-opacity: 1"/><path d="M 2.3844293533554775e-16 -127.55404852942321 L 0.9183776324795951 -127.6286624413496 L 5.851847925514907e-32,-127.46065689036038z" style="fill: rgb(255,0,0); fill-opacity: 1"/><path d="M -0.9183776324795951 -127.6286624413496 L 2.3844293533554775e-16 -127.55404852942321 L -2.252557607196641e-16,-127.46065689036038z" style="fill: rgb(255,0,0); fill-opacity: 1"/><path d="M -91.96767391673323 89.36643933407811 L -90.91941803236146 89.5882421615744 L -91.78410570941746,89.5358673338326z" style="fill: rgb(255,0,0); fill-opacity: 1"/><path d="M -91.96767391673323 89.36643933407811 L -91.78410570941746 89.5358673338326 L -92.75617329732066,89.5882421615744z" style="fill: rgb(255,0,0); fill-opacity: 1"/><path d="M -91.78410570941746 94.03235057948883 L -90.91941803236146 94.08735566639325 L -91.96767391673323,94.56891500686385z" style="fill: rgb(255,0,0); fill-opacity: 1"/><path d="M -92.75617329732066 94.08735566639325 L -91.78410570941746 94.03235057948883 L -91.96767391673323,94.56891500686385z" style="fill: rgb(255,0,0); fill-opacity: 1"/><path d="M 2.252738026273332 -1.3006189181964336 L 2.6012377443632975 -1.5927988194953096e-16 L 1.8341650271369099,-1.5883064107087399e-16z" style="fill: rgb(255,0,0); fill-opacity: 1"/><path d="M -2.6012377443632975 -1.5927988194953096e-16 L -1.8341650271369099 -1.5883064107087399e-16 L -2.252738026273332,1.3006189181964336z" style="fill: rgb(255,0,0); fill-opacity: 1"/><path d="M 132.314628151548 -1.3006189181964336 L 132.66312786963795 -1.5927988194953096e-16 L 131.52922214698418,-1.5883064107087399e-16z" style="fill: rgb(255,0,0); fill-opacity: 1"/><path d="M 127.46065238091137 -1.5927988194953096e-16 L 127.86089209271037 -1.5883064107087399e-16 L 127.80915209900132,1.3006189181964336z" style="fill: rgb(255,0,0); fill-opacity: 1"/><path d="M 2.252738026273332 -131.36251364494967 L 2.6012377443632975 -130.06189472675322 L 1.8341650271369099,-129.6950617083476z" style="fill: rgb(255,0,0); fill-opacity: 1"/><path d="M -2.6012377443632975 -130.06189472675322 L -1.8341650271369099 -129.6950617083476 L -2.252738026273332,-128.7612758085568z" style="fill: rgb(255,0,0); fill-opacity: 1"/><path d="M -89.7149358904599 90.66705825227453 L -89.36643617236993 91.96767717047096 L -89.87411870087503,91.70828697257268z" style="fill: rgb(255,0,0); fill-opacity: 1"/><path d="M -94.56891166109652 91.96767717047096 L -93.54244875514885 91.70828697257268 L -94.22041194300655,93.2682960886674z" style="fill: rgb(255,0,0); fill-opacity: 1"/><path d="M 1.3006188721816487 -2.252738105973279 L 2.252738026273332 -1.3006189181964336 L 1.5890340159156642,-1.2974408501232002z" style="fill: rgb(255,0,0); fill-opacity: 1"/><path d="M -2.252738026273332 -1.3006189181964336 L -1.5890340159156642 -1.2974408501232002 L -2.6012377443632975,-1.5927988194953096e-16z" style="fill: rgb(255,0,0); fill-opacity: 1"/><path d="M 2.6012377443632975 -1.5927988194953096e-16 L 2.252738026273332 1.3006189181964336 L 1.5890340159156642,1.2974408501232002z" style="fill: rgb(255,0,0); fill-opacity: 1"/><path d="M -2.252738026273332 1.3006189181964336 L -1.5890340159156642 1.2974408501232002 L -1.3006188721816487,2.252738105973279z" style="fill: rgb(255,0,0); fill-opacity: 1"/><path d="M 131.36250899745633 -2.252738105973279 L 132.314628151548 -1.3006189181964336 L 131.3331173380072,-1.2974408501232002z" style="fill: rgb(255,0,0); fill-opacity: 1"/><path d="M 127.80915209900132 -1.3006189181964336 L 128.15504930617587 -1.2974408501232002 L 127.46065238091137,-1.5927988194953096e-16z" style="fill: rgb(255,0,0); fill-opacity: 1"/><path d="M 132.66312786963795 -1.5927988194953096e-16 L 132.314628151548 1.3006189181964336 L 131.3331173380072,1.2974408501232002z" style="fill: rgb(255,0,0); fill-opacity: 1"/><path d="M 127.80915209900132 1.3006189181964336 L 128.15504930617587 1.2974408501232002 L 128.761271253093,2.252738105973279z" style="fill: rgb(255,0,0); fill-opacity: 1"/><path d="M 1.3006188721816487 -132.31463283272652 L 2.252738026273332 -131.36251364494967 L 1.5890340159156642,-131.0415287624496z" style="fill: rgb(255,0,0); fill-opacity: 1"/><path d="M -2.252738026273332 -131.36251364494967 L -1.5890340159156642 -131.0415287624496 L -2.6012377443632975,-130.06189472675322z" style="fill: rgb(255,0,0); fill-opacity: 1"/><path d="M 2.6012377443632975 -130.06189472675322 L 2.252738026273332 -128.7612758085568 L 1.5890340159156642,-128.44664706220317z" style="fill: rgb(255,0,0); fill-opacity: 1"/><path d="M -2.252738026273332 -128.7612758085568 L -1.5890340159156642 -128.44664706220317 L -1.3006188721816487,-127.80915662077996z" style="fill: rgb(255,0,0); fill-opacity: 1"/><path d="M -90.66705504455157 89.7149390644977 L -89.7149358904599 90.66705825227453 L -90.15391648325448,90.44551289483417z" style="fill: rgb(255,0,0); fill-opacity: 1"/><path d="M -94.22041194300655 90.66705825227453 L -93.33198451508581 90.44551289483417 L -94.56891166109652,91.96767717047096z" style="fill: rgb(255,0,0); fill-opacity: 1"/><path d="M -89.36643617236993 91.96767717047096 L -89.7149358904599 93.2682960886674 L -90.15391648325448,93.04039459508056z" style="fill: rgb(255,0,0); fill-opacity: 1"/><path d="M -94.22041194300655 93.2682960886674 L -93.33198451508581 93.04039459508056 L -93.26829278891488,94.22041527644426z" style="fill: rgb(255,0,0); fill-opacity: 1"/><path d="M 0 -2.601237836392867 L 1.3006188721816487 -2.252738105973279 L 0.9183776324795951,-2.2495567524094215z" style="fill: rgb(255,0,0); fill-opacity: 1"/><path d="M 0 -2.601237836392867 L -0.9183776324795951 -2.2495567524094215 L -1.3006188721816487,-2.252738105973279z" style="fill: rgb(255,0,0); fill-opacity: 1"/><path d="M -1.3006188721816487 -2.252738105973279 L -0.9183776324795951 -2.2495567524094215 L -2.252738026273332,-1.3006189181964336z" style="fill: rgb(255,0,0); fill-opacity: 1"/><path d="M 2.252738026273332 1.3006189181964336 L 1.3006188721816487 2.252738105973279 L 0.9183776324795951,2.2495567524094215z" style="fill: rgb(255,0,0); fill-opacity: 1"/><path d="M 0.9183776324795951 2.2495567524094215 L 1.3006188721816487 2.252738105973279 L 2.252557607196641e-16,2.601237836392867z" style="fill: rgb(255,0,0); fill-opacity: 1"/><path d="M -1.3006188721816487 2.252738105973279 L -0.9183776324795951 2.2495567524094215 L -3.1855975262869e-16,2.601237836392867z" style="fill: rgb(255,0,0); fill-opacity: 1"/><path d="M 130.06189012527466 -2.601237836392867 L 131.36250899745633 -2.252738105973279 L 130.79659223125833,-2.2495567524094215z" style="fill: rgb(255,0,0); fill-opacity: 1"/><path d="M 130.06189012527466 -2.601237836392867 L 128.95983696629915 -2.2495567524094215 L 128.761271253093,-2.252738105973279z" style="fill: rgb(255,0,0); fill-opacity: 1"/><path d="M 128.761271253093 -2.252738105973279 L 128.95983696629915 -2.2495567524094215 L 127.80915209900132,-1.3006189181964336z" style="fill: rgb(255,0,0); fill-opacity: 1"/><path d="M 132.314628151548 1.3006189181964336 L 131.36250899745633 2.252738105973279 L 130.79659223125833,2.2495567524094215z" style="fill: rgb(255,0,0); fill-opacity: 1"/><path d="M 130.79659223125833 2.2495567524094215 L 131.36250899745633 2.252738105973279 L 130.06189012527466,2.601237836392867z" style="fill: rgb(255,0,0); fill-opacity: 1"/><path d="M 128.761271253093 2.252738105973279 L 128.95983696629915 2.2495567524094215 L 130.06189012527466,2.601237836392867z" style="fill: rgb(255,0,0); fill-opacity: 1"/><path d="M 0 -132.6631325631461 L 1.3006188721816487 -132.31463283272652 L 0.9183776324795951,-132.12777594616847z" style="fill: rgb(255,0,0); fill-opacity: 1"/><path d="M 0 -132.6631325631461 L -0.9183776324795951 -132.12777594616847 L -1.3006188721816487,-132.31463283272652z" style="fill: rgb(255,0,0); fill-opacity: 1"/><path d="M -1.3006188721816487 -132.31463283272652 L -0.9183776324795951 -132.12777594616847 L -2.252738026273332,-131.36251364494967z" style="fill: rgb(255,0,0); fill-opacity: 1"/><path d="M 2.252738026273332 -128.7612758085568 L 1.3006188721816487 -127.80915662077996 L 0.9183776324795951,-127.6286624413496z" style="fill: rgb(255,0,0); fill-opacity: 1"/><path d="M 0.9183776324795951 -127.6286624413496 L 1.3006188721816487 -127.80915662077996 L 2.252557607196641e-16,-127.46065689036038z" style="fill: rgb(255,0,0); fill-opacity: 1"/><path d="M -1.3006188721816487 -127.80915662077996 L -0.9183776324795951 -127.6286624413496 L -3.1855975262869e-16,-127.46065689036038z" style="fill: rgb(255,0,0); fill-opacity: 1"/><path d="M -91.96767391673323 89.36643933407811 L -90.66705504455157 89.7149390644977 L -90.91941803236146,89.5882421615744z" style="fill: rgb(255,0,0); fill-opacity: 1"/><path d="M -91.96767391673323 89.36643933407811 L -92.75617329732066 89.5882421615744 L -93.26829278891488,89.7149390644977z" style="fill: rgb(255,0,0); fill-opacity: 1"/><path d="M -93.26829278891488 89.7149390644977 L -92.75617329732066 89.5882421615744 L -94.22041194300655,90.66705825227453z" style="fill: rgb(255,0,0); fill-opacity: 1"/><path d="M -89.7149358904599 93.2682960886674 L -90.66705504455157 94.22041527644426 L -90.91941803236146,94.08735566639325z" style="fill: rgb(255,0,0); fill-opacity: 1"/><path d="M -90.91941803236146 94.08735566639325 L -90.66705504455157 94.22041527644426 L -91.96767391673323,94.56891500686385z" style="fill: rgb(255,0,0); fill-opacity: 1"/><path d="M -93.26829278891488 94.22041527644426 L -92.75617329732066 94.08735566639325 L -91.96767391673323,94.56891500686385z" style="fill: rgb(255,0,0); fill-opacity: 1"/><line x1="0" y1="0" x2="130.06189012527466" y2="0" style="fill: none; stroke: rgb(0,0,0); stroke-width: 1.5; stroke-opacity: 1; stroke-linecap: round; stroke-linejoin: round"/><line x1="0" y1="0" x2="0" y2="-130.06189472675322" style="fill: none; stroke: rgb(0,0,0); stroke-width: 1.5; stroke-opacity: 1; stroke-linecap: round; stroke-linejoin: round"/><line x1="0" y1="0" x2="-91.96767294081259" y2="91.96767619455032" style="fill: none; stroke: rgb(0,0,0); stroke-width: 1.5; stroke-opacity: 1; stroke-linecap: round; stroke-linejoin: round"/><path d="M 19.942823514315776 -19.94282421987584 L 150.00471363959042 -19.94282421987584 L 19.942823514315776,-150.00471894662908z" style="fill: rgb(119,236,158); fill-opacity: 1"/><line x1="150.00471335649493" y1="-19.942823877930643" x2="19.942823231220245" y2="-19.942823877930643" style="fill: none; stroke: rgb(0,0,0); stroke-width: 1.5; stroke-opacity: 1; stroke-linecap: round; stroke-linejoin: round"/><line x1="19.942823231220245" y1="-150.0047186046839" x2="150.00471335649493" y2="-19.942823877930643" style="fill: none; stroke: rgb(0,0,0); stroke-width: 1.5; stroke-opacity: 1; stroke-linecap: round; stroke-linejoin: round"/><line x1="19.942823231220245" y1="-19.942823877930643" x2="19.942823231220245" y2="-150.0047186046839" style="fill: none; stroke: rgb(0,0,0); stroke-width: 1.5; stroke-opacity: 1; stroke-linecap: round; stroke-linejoin: round"/><path d="M -14.101710271896009 -135.9030081758266 L -106.0693832127086 86.12656274547695 L -14.101710271896009,-5.841113449073367z" style="fill: rgb(119,236,158); fill-opacity: 1"/><line x1="-106.0693825450759" y1="86.1265625988858" x2="-14.101709604263306" y2="-135.90300832241775" style="fill: none; stroke: rgb(0,0,0); stroke-width: 1.5; stroke-opacity: 1; stroke-linecap: round; stroke-linejoin: round"/><line x1="-14.101709604263306" y1="-5.841113595664502" x2="-106.0693825450759" y2="86.1265625988858" style="fill: none; stroke: rgb(0,0,0); stroke-width: 1.5; stroke-opacity: 1; stroke-linecap: round; stroke-linejoin: round"/><line x1="-14.101709604263306" y1="-135.90300832241775" x2="-14.101709604263306" y2="-5.841113595664502" style="fill: none; stroke: rgb(0,0,0); stroke-width: 1.5; stroke-opacity: 1; stroke-linecap: round; stroke-linejoin: round"/><path d="M 5.84111324241977 14.101710770802471 L -86.12655969839282 106.06938696535279 L 135.90300336769445,14.101710770802471z" style="fill: rgb(119,236,158); fill-opacity: 1"/><line x1="-86.12655968265939" y1="106.06938722038441" x2="5.841113258153201" y2="14.101711025834085" style="fill: none; stroke: rgb(0,0,0); stroke-width: 1.5; stroke-opacity: 1; stroke-linecap: round; stroke-linejoin: round"/><line x1="135.90300338342786" y1="14.101711025834085" x2="-86.12655968265939" y2="106.06938722038441" style="fill: none; stroke: rgb(0,0,0); stroke-width: 1.5; stroke-opacity: 1; stroke-linecap: round; stroke-linejoin: round"/><line x1="5.841113258153201" y1="14.101711025834085" x2="135.90300338342786" y2="14.101711025834085" style="fill: none; stroke: rgb(0,0,0); stroke-width: 1.5; stroke-opacity: 1; stroke-linecap: round; stroke-linejoin: round"/><path d="M 0 -2.601237836392867 L -1.3006188721816487 -2.252738105973279 L -0.920978875313324,-2.255928470506989z" style="fill: rgb(255,0,0); fill-opacity: 1"/><path d="M 0 -2.601237836392867 L 0.920978875313324 -2.255928470506989 L 1.3006188721816487,-2.252738105973279z" style="fill: rgb(255,0,0); fill-opacity: 1"/><path d="M 1.3006188721816487 -2.252738105973279 L 0.920978875313324 -2.255928470506989 L 2.252738026273332,-1.3006189181964336z" style="fill: rgb(255,0,0); fill-opacity: 1"/><path d="M -2.252738026273332 1.3006189181964336 L -1.3006188721816487 2.252738105973279 L -0.920978875313324,2.255928470506989z" style="fill: rgb(255,0,0); fill-opacity: 1"/><path d="M -0.920978875313324 2.255928470506989 L -1.3006188721816487 2.252738105973279 L -2.252557607196641e-16,2.601237836392867z" style="fill: rgb(255,0,0); fill-opacity: 1"/><path d="M 1.3006188721816487 2.252738105973279 L 0.920978875313324 2.255928470506989 L 3.1855975262869e-16,2.601237836392867z" style="fill: rgb(255,0,0); fill-opacity: 1"/><path d="M 130.06189012527466 -2.601237836392867 L 128.761271253093 -2.252738105973279 L 129.325107025024,-2.255928470506989z" style="fill: rgb(255,0,0); fill-opacity: 1"/><path d="M 130.06189012527466 -2.601237836392867 L 131.16706477565066 -2.255928470506989 L 131.36250899745633,-2.252738105973279z" style="fill: rgb(255,0,0); fill-opacity: 1"/><path d="M 131.36250899745633 -2.252738105973279 L 131.16706477565066 -2.255928470506989 L 132.314628151548,-1.3006189181964336z" style="fill: rgb(255,0,0); fill-opacity: 1"/><path d="M 127.80915209900132 1.3006189181964336 L 128.761271253093 2.252738105973279 L 129.325107025024,2.255928470506989z" style="fill: rgb(255,0,0); fill-opacity: 1"/><path d="M 129.325107025024 2.255928470506989 L 128.761271253093 2.252738105973279 L 130.06189012527466,2.601237836392867z" style="fill: rgb(255,0,0); fill-opacity: 1"/><path d="M 131.36250899745633 2.252738105973279 L 131.16706477565066 2.255928470506989 L 130.06189012527466,2.601237836392867z" style="fill: rgb(255,0,0); fill-opacity: 1"/><path d="M 0 -132.6631325631461 L -1.3006188721816487 -132.31463283272652 L -0.920978875313324,-132.50201897883957z" style="fill: rgb(255,0,0); fill-opacity: 1"/><path d="M 0 -132.6631325631461 L 0.920978875313324 -132.50201897883957 L 1.3006188721816487,-132.31463283272652z" style="fill: rgb(255,0,0); fill-opacity: 1"/><path d="M 1.3006188721816487 -132.31463283272652 L 0.920978875313324 -132.50201897883957 L 2.252738026273332,-131.36251364494967z" style="fill: rgb(255,0,0); fill-opacity: 1"/><path d="M -2.252738026273332 -128.7612758085568 L -1.3006188721816487 -127.80915662077996 L -0.920978875313324,-127.9901620378256z" style="fill: rgb(255,0,0); fill-opacity: 1"/><path d="M -0.920978875313324 -127.9901620378256 L -1.3006188721816487 -127.80915662077996 L -2.252557607196641e-16,-127.46065689036038z" style="fill: rgb(255,0,0); fill-opacity: 1"/><path d="M 1.3006188721816487 -127.80915662077996 L 0.920978875313324 -127.9901620378256 L 3.1855975262869e-16,-127.46065689036038z" style="fill: rgb(255,0,0); fill-opacity: 1"/><path d="M -91.96767391673323 89.36643933407811 L -93.26829278891488 89.7149390644977 L -93.0188989153459,89.84199482787133z" style="fill: rgb(255,0,0); fill-opacity: 1"/><path d="M -91.96767391673323 89.36643933407811 L -91.17694116471925 89.84199482787133 L -90.66705504455157,89.7149390644977z" style="fill: rgb(255,0,0); fill-opacity: 1"/><path d="M -90.66705504455157 89.7149390644977 L -91.17694116471925 89.84199482787133 L -89.7149358904599,90.66705825227453z" style="fill: rgb(255,0,0); fill-opacity: 1"/><path d="M -94.22041194300655 93.2682960886674 L -93.26829278891488 94.22041527644426 L -93.0188989153459,94.3538517688853z" style="fill: rgb(255,0,0); fill-opacity: 1"/><path d="M -93.0188989153459 94.3538517688853 L -93.26829278891488 94.22041527644426 L -91.96767391673323,94.56891500686385z" style="fill: rgb(255,0,0); fill-opacity: 1"/><path d="M -90.66705504455157 94.22041527644426 L -91.17694116471925 94.3538517688853 L -91.96767391673323,94.56891500686385z" style="fill: rgb(255,0,0); fill-opacity: 1"/><path d="M -1.3006188721816487 -2.252738105973279 L -2.252738026273332 -1.3006189181964336 L -1.5968377762389958,-1.3038125937905167z" style="fill: rgb(255,0,0); fill-opacity: 1"/><path d="M 2.252738026273332 -1.3006189181964336 L 1.5968377762389958 -1.3038125937905167 L 2.6012377443632975,-1.5927988194953096e-16z" style="fill: rgb(255,0,0); fill-opacity: 1"/><path d="M -2.6012377443632975 -1.5927988194953096e-16 L -2.252738026273332 1.3006189181964336 L -1.5968377762389958,1.3038125937905167z" style="fill: rgb(255,0,0); fill-opacity: 1"/><path d="M 2.252738026273332 1.3006189181964336 L 1.5968377762389958 1.3038125937905167 L 1.3006188721816487,2.252738105973279z" style="fill: rgb(255,0,0); fill-opacity: 1"/><path d="M 128.761271253093 -2.252738105973279 L 127.80915209900132 -1.3006189181964336 L 128.78441990428345,-1.3038125937905167z" style="fill: rgb(255,0,0); fill-opacity: 1"/><path d="M 132.314628151548 -1.3006189181964336 L 131.97809545676145 -1.3038125937905167 L 132.66312786963795,-1.5927988194953096e-16z" style="fill: rgb(255,0,0); fill-opacity: 1"/><path d="M 127.46065238091137 -1.5927988194953096e-16 L 127.80915209900132 1.3006189181964336 L 128.78441990428345,1.3038125937905167z" style="fill: rgb(255,0,0); fill-opacity: 1"/><path d="M 132.314628151548 1.3006189181964336 L 131.97809545676145 1.3038125937905167 L 131.36250899745633,2.252738105973279z" style="fill: rgb(255,0,0); fill-opacity: 1"/><path d="M -1.3006188721816487 -132.31463283272652 L -2.252738026273332 -131.36251364494967 L -1.5968377762389958,-131.68507488709048z" style="fill: rgb(255,0,0); fill-opacity: 1"/><path d="M 2.252738026273332 -131.36251364494967 L 1.5968377762389958 -131.68507488709048 L 2.6012377443632975,-130.06189472675322z" style="fill: rgb(255,0,0); fill-opacity: 1"/><path d="M -2.6012377443632975 -130.06189472675322 L -2.252738026273332 -128.7612758085568 L -1.5968377762389958,-129.07744969950946z" style="fill: rgb(255,0,0); fill-opacity: 1"/><path d="M 2.252738026273332 -128.7612758085568 L 1.5968377762389958 -129.07744969950946 L 1.3006188721816487,-127.80915662077996z" style="fill: rgb(255,0,0); fill-opacity: 1"/><path d="M -93.26829278891488 89.7149390644977 L -94.22041194300655 90.66705825227453 L -93.79033872925719,90.889691620955z" style="fill: rgb(255,0,0); fill-opacity: 1"/><path d="M -89.7149358904599 90.66705825227453 L -90.5966631767792 90.889691620955 L -89.36643617236993,91.96767717047096z" style="fill: rgb(255,0,0); fill-opacity: 1"/><path d="M -94.56891166109652 91.96767717047096 L -94.22041194300655 93.2682960886674 L -93.79033872925719,93.49731680853603z" style="fill: rgb(255,0,0); fill-opacity: 1"/><path d="M -89.7149358904599 93.2682960886674 L -90.5966631767792 93.49731680853603 L -90.66705504455157,94.22041527644426z" style="fill: rgb(255,0,0); fill-opacity: 1"/><path d="M -2.252738026273332 -1.3006189181964336 L -2.6012377443632975 -1.5927988194953096e-16 L -1.8445700609021483,-1.597316713265193e-16z" style="fill: rgb(255,0,0); fill-opacity: 1"/><path d="M 2.6012377443632975 -1.5927988194953096e-16 L 1.8445700609021483 -1.597316713265193e-16 L 2.252738026273332,1.3006189181964336z" style="fill: rgb(255,0,0); fill-opacity: 1"/><path d="M 127.80915209900132 -1.3006189181964336 L 127.46065238091137 -1.5927988194953096e-16 L 128.58623407655293,-1.597316713265193e-16z" style="fill: rgb(255,0,0); fill-opacity: 1"/><path d="M 132.66312786963795 -1.5927988194953096e-16 L 132.2753741983572 -1.597316713265193e-16 L 132.314628151548,1.3006189181964336z" style="fill: rgb(255,0,0); fill-opacity: 1"/><path d="M -2.252738026273332 -131.36251364494967 L -2.6012377443632975 -130.06189472675322 L -1.8445700609021483,-130.43080875198552z" style="fill: rgb(255,0,0); fill-opacity: 1"/><path d="M 2.6012377443632975 -130.06189472675322 L 1.8445700609021483 -130.43080875198552 L 2.252738026273332,-128.7612758085568z" style="fill: rgb(255,0,0); fill-opacity: 1"/><path d="M -94.22041194300655 90.66705825227453 L -94.56891166109652 91.96767717047096 L -94.07310566081438,92.22853886287903z" style="fill: rgb(255,0,0); fill-opacity: 1"/><path d="M -89.36643617236993 91.96767717047096 L -90.38396553901008 92.22853886287903 L -89.7149358904599,93.2682960886674z" style="fill: rgb(255,0,0); fill-opacity: 1"/><path d="M 0 -2.601237836392867 L -0.920978875313324 -2.255928470506989 L -7.97995372280613e-17,-2.2572526110945614z" style="fill: rgb(255,0,0); fill-opacity: 1"/><path d="M 0 -2.601237836392867 L -7.97995372280613e-17 -2.2572526110945614 L 0.920978875313324,-2.255928470506989z" style="fill: rgb(255,0,0); fill-opacity: 1"/><path d="M -7.97995372280613e-17 2.2572526110945614 L -0.920978875313324 2.255928470506989 L -1.9506158756358174e-32,2.601237836392867z" style="fill: rgb(255,0,0); fill-opacity: 1"/><path d="M 0.920978875313324 2.255928470506989 L -7.97995372280613e-17 2.2572526110945614 L 2.252557607196641e-16,2.601237836392867z" style="fill: rgb(255,0,0); fill-opacity: 1"/><path d="M 130.06189012527466 -2.601237836392867 L 129.325107025024 -2.255928470506989 L 130.32253518982844,-2.2572526110945614z" style="fill: rgb(255,0,0); fill-opacity: 1"/><path d="M 130.06189012527466 -2.601237836392867 L 130.32253518982844 -2.2572526110945614 L 131.16706477565066,-2.255928470506989z" style="fill: rgb(255,0,0); fill-opacity: 1"/><path d="M 130.32253518982844 2.2572526110945614 L 129.325107025024 2.255928470506989 L 130.06189012527466,2.601237836392867z" style="fill: rgb(255,0,0); fill-opacity: 1"/><path d="M 131.16706477565066 2.255928470506989 L 130.32253518982844 2.2572526110945614 L 130.06189012527466,2.601237836392867z" style="fill: rgb(255,0,0); fill-opacity: 1"/><path d="M 0 -132.6631325631461 L -0.920978875313324 -132.50201897883957 L -7.97995372280613e-17,-132.57979241162298z" style="fill: rgb(255,0,0); fill-opacity: 1"/><path d="M 0 -132.6631325631461 L -7.97995372280613e-17 -132.57979241162298 L 0.920978875313324,-132.50201897883957z" style="fill: rgb(255,0,0); fill-opacity: 1"/><path d="M -7.97995372280613e-17 -128.06528718943386 L -0.920978875313324 -127.9901620378256 L -1.9506158756358174e-32,-127.46065689036038z" style="fill: rgb(255,0,0); fill-opacity: 1"/><path d="M 0.920978875313324 -127.9901620378256 L -7.97995372280613e-17 -128.06528718943386 L 2.252557607196641e-16,-127.46065689036038z" style="fill: rgb(255,0,0); fill-opacity: 1"/><path d="M -91.96767391673323 89.36643933407811 L -93.0188989153459 89.84199482787133 L -92.15197786835041,89.89472851751411z" style="fill: rgb(255,0,0); fill-opacity: 1"/><path d="M -91.96767391673323 89.36643933407811 L -92.15197786835041 89.89472851751411 L -91.17694116471925,89.84199482787133z" style="fill: rgb(255,0,0); fill-opacity: 1"/><path d="M -92.15197786835041 94.40923373970324 L -93.0188989153459 94.3538517688853 L -91.96767391673323,94.56891500686385z" style="fill: rgb(255,0,0); fill-opacity: 1"/><path d="M -91.17694116471925 94.3538517688853 L -92.15197786835041 94.40923373970324 L -91.96767391673323,94.56891500686385z" style="fill: rgb(255,0,0); fill-opacity: 1"/><path d="M -0.920978875313324 -2.255928470506989 L -1.3006188721816487 -2.252738105973279 L -1.5968377762389958,-1.3038125937905167z" style="fill: rgb(255,0,0); fill-opacity: 1"/><path d="M 0.920978875313324 -2.255928470506989 L 1.5968377762389958 -1.3038125937905167 L 2.252738026273332,-1.3006189181964336z" style="fill: rgb(255,0,0); fill-opacity: 1"/><path d="M -1.5968377762389958 1.3038125937905167 L -2.252738026273332 1.3006189181964336 L -0.920978875313324,2.255928470506989z" style="fill: rgb(255,0,0); fill-opacity: 1"/><path d="M 1.5968377762389958 1.3038125937905167 L 0.920978875313324 2.255928470506989 L 1.3006188721816487,2.252738105973279z" style="fill: rgb(255,0,0); fill-opacity: 1"/><path d="M 129.325107025024 -2.255928470506989 L 128.761271253093 -2.252738105973279 L 128.78441990428345,-1.3038125937905167z" style="fill: rgb(255,0,0); fill-opacity: 1"/><path d="M 131.16706477565066 -2.255928470506989 L 131.97809545676145 -1.3038125937905167 L 132.314628151548,-1.3006189181964336z" style="fill: rgb(255,0,0); fill-opacity: 1"/><path d="M 128.78441990428345 1.3038125937905167 L 127.80915209900132 1.3006189181964336 L 129.325107025024,2.255928470506989z" style="fill: rgb(255,0,0); fill-opacity: 1"/><path d="M 131.97809545676145 1.3038125937905167 L 131.16706477565066 2.255928470506989 L 131.36250899745633,2.252738105973279z" style="fill: rgb(255,0,0); fill-opacity: 1"/><path d="M -0.920978875313324 -132.50201897883957 L -1.3006188721816487 -132.31463283272652 L -1.5968377762389958,-131.68507488709048z" style="fill: rgb(255,0,0); fill-opacity: 1"/><path d="M 0.920978875313324 -132.50201897883957 L 1.5968377762389958 -131.68507488709048 L 2.252738026273332,-131.36251364494967z" style="fill: rgb(255,0,0); fill-opacity: 1"/><path d="M -1.5968377762389958 -129.07744969950946 L -2.252738026273332 -128.7612758085568 L -0.920978875313324,-127.9901620378256z" style="fill: rgb(255,0,0); fill-opacity: 1"/><path d="M 1.5968377762389958 -129.07744969950946 L 0.920978875313324 -127.9901620378256 L 1.3006188721816487,-127.80915662077996z" style="fill: rgb(255,0,0); fill-opacity: 1"/><path d="M -93.0188989153459 89.84199482787133 L -93.26829278891488 89.7149390644977 L -93.79033872925719,90.889691620955z" style="fill: rgb(255,0,0); fill-opacity: 1"/><path d="M -91.17694116471925 89.84199482787133 L -90.5966631767792 90.889691620955 L -89.7149358904599,90.66705825227453z" style="fill: rgb(255,0,0); fill-opacity: 1"/><path d="M -93.79033872925719 93.49731680853603 L -94.22041194300655 93.2682960886674 L -93.0188989153459,94.3538517688853z" style="fill: rgb(255,0,0); fill-opacity: 1"/><path d="M -90.5966631767792 93.49731680853603 L -91.17694116471925 94.3538517688853 L -90.66705504455157,94.22041527644426z" style="fill: rgb(255,0,0); fill-opacity: 1"/><path d="M -1.5968377762389958 -1.3038125937905167 L -2.252738026273332 -1.3006189181964336 L -1.8445700609021483,-1.597316713265193e-16z" style="fill: rgb(255,0,0); fill-opacity: 1"/><path d="M 1.5968377762389958 -1.3038125937905167 L 1.8445700609021483 -1.597316713265193e-16 L 2.6012377443632975,-1.5927988194953096e-16z" style="fill: rgb(255,0,0); fill-opacity: 1"/><path d="M -1.8445700609021483 -1.597316713265193e-16 L -2.6012377443632975 -1.5927988194953096e-16 L -1.5968377762389958,1.3038125937905167z" style="fill: rgb(255,0,0); fill-opacity: 1"/><path d="M 1.8445700609021483 -1.597316713265193e-16 L 1.5968377762389958 1.3038125937905167 L 2.252738026273332,1.3006189181964336z" style="fill: rgb(255,0,0); fill-opacity: 1"/><path d="M 128.78441990428345 -1.3038125937905167 L 127.80915209900132 -1.3006189181964336 L 128.58623407655293,-1.597316713265193e-16z" style="fill: rgb(255,0,0); fill-opacity: 1"/><path d="M 131.97809545676145 -1.3038125937905167 L 132.2753741983572 -1.597316713265193e-16 L 132.66312786963795,-1.5927988194953096e-16z" style="fill: rgb(255,0,0); fill-opacity: 1"/><path d="M 128.58623407655293 -1.597316713265193e-16 L 127.46065238091137 -1.5927988194953096e-16 L 128.78441990428345,1.3038125937905167z" style="fill: rgb(255,0,0); fill-opacity: 1"/><path d="M 132.2753741983572 -1.597316713265193e-16 L 131.97809545676145 1.3038125937905167 L 132.314628151548,1.3006189181964336z" style="fill: rgb(255,0,0); fill-opacity: 1"/><path d="M -1.5968377762389958 -131.68507488709048 L -2.252738026273332 -131.36251364494967 L -1.8445700609021483,-130.43080875198552z" style="fill: rgb(255,0,0); fill-opacity: 1"/><path d="M 1.5968377762389958 -131.68507488709048 L 1.8445700609021483 -130.43080875198552 L 2.6012377443632975,-130.06189472675322z" style="fill: rgb(255,0,0); fill-opacity: 1"/><path d="M -1.8445700609021483 -130.43080875198552 L -2.6012377443632975 -130.06189472675322 L -1.5968377762389958,-129.07744969950946z" style="fill: rgb(255,0,0); fill-opacity: 1"/><path d="M 1.8445700609021483 -130.43080875198552 L 1.5968377762389958 -129.07744969950946 L 2.252738026273332,-128.7612758085568z" style="fill: rgb(255,0,0); fill-opacity: 1"/><path d="M -93.79033872925719 90.889691620955 L -94.22041194300655 90.66705825227453 L -94.07310566081438,92.22853886287903z" style="fill: rgb(255,0,0); fill-opacity: 1"/><path d="M -90.5966631767792 90.889691620955 L -90.38396553901008 92.22853886287903 L -89.36643617236993,91.96767717047096z" style="fill: rgb(255,0,0); fill-opacity: 1"/><path d="M -94.07310566081438 92.22853886287903 L -94.56891166109652 91.96767717047096 L -93.79033872925719,93.49731680853603z" style="fill: rgb(255,0,0); fill-opacity: 1"/><path d="M -90.38396553901008 92.22853886287903 L -90.5966631767792 93.49731680853603 L -89.7149358904599,93.2682960886674z" style="fill: rgb(255,0,0); fill-opacity: 1"/><path d="M 0.920978875313324 -2.255928470506989 L -7.97995372280613e-17 -2.2572526110945614 L 1.5968377762389958,-1.3038125937905167z" style="fill: rgb(255,0,0); fill-opacity: 1"/><path d="M -1.5968377762389958 1.3038125937905167 L -0.920978875313324 2.255928470506989 L -7.97995372280613e-17,2.2572526110945614z" style="fill: rgb(255,0,0); fill-opacity: 1"/><path d="M 131.16706477565066 -2.255928470506989 L 130.32253518982844 -2.2572526110945614 L 131.97809545676145,-1.3038125937905167z" style="fill: rgb(255,0,0); fill-opacity: 1"/><path d="M 128.78441990428345 1.3038125937905167 L 129.325107025024 2.255928470506989 L 130.32253518982844,2.2572526110945614z" style="fill: rgb(255,0,0); fill-opacity: 1"/><path d="M 0.920978875313324 -132.50201897883957 L -7.97995372280613e-17 -132.57979241162298 L 1.5968377762389958,-131.68507488709048z" style="fill: rgb(255,0,0); fill-opacity: 1"/><path d="M -1.5968377762389958 -129.07744969950946 L -0.920978875313324 -127.9901620378256 L -7.97995372280613e-17,-128.06528718943386z" style="fill: rgb(255,0,0); fill-opacity: 1"/><path d="M -91.17694116471925 89.84199482787133 L -92.15197786835041 89.89472851751411 L -90.5966631767792,90.889691620955z" style="fill: rgb(255,0,0); fill-opacity: 1"/><path d="M -93.79033872925719 93.49731680853603 L -93.0188989153459 94.3538517688853 L -92.15197786835041,94.40923373970324z" style="fill: rgb(255,0,0); fill-opacity: 1"/><path d="M -7.97995372280613e-17 -2.2572526110945614 L -0.920978875313324 -2.255928470506989 L -1.3841991655157384e-16,-1.3051400559884583z" style="fill: rgb(255,0,0); fill-opacity: 1"/><path d="M -1.3841991655157384e-16 1.3051400559884583 L -7.97995372280613e-17 2.2572526110945614 L 0.920978875313324,2.255928470506989z" style="fill: rgb(255,0,0); fill-opacity: 1"/><path d="M 130.32253518982844 -2.2572526110945614 L 129.325107025024 -2.255928470506989 L 130.51400389858728,-1.3051400559884583z" style="fill: rgb(255,0,0); fill-opacity: 1"/><path d="M 130.51400389858728 1.3051400559884583 L 130.32253518982844 2.2572526110945614 L 131.16706477565066,2.255928470506989z" style="fill: rgb(255,0,0); fill-opacity: 1"/><path d="M -7.97995372280613e-17 -132.57979241162298 L -0.920978875313324 -132.50201897883957 L -1.3841991655157384e-16,-131.8191485720497z" style="fill: rgb(255,0,0); fill-opacity: 1"/><path d="M -1.3841991655157384e-16 -129.20886846007278 L -7.97995372280613e-17 -128.06528718943386 L 0.920978875313324,-127.9901620378256z" style="fill: rgb(255,0,0); fill-opacity: 1"/><path d="M -92.15197786835041 89.89472851751411 L -93.0188989153459 89.84199482787133 L -92.28736673403142,90.98222994309116z" style="fill: rgb(255,0,0); fill-opacity: 1"/><path d="M -92.28736673403142 93.59251005506808 L -92.15197786835041 94.40923373970324 L -91.17694116471925,94.3538517688853z" style="fill: rgb(255,0,0); fill-opacity: 1"/><path d="M -0.920978875313324 -2.255928470506989 L -1.5968377762389958 -1.3038125937905167 L -1.3841991655157384e-16,-1.3051400559884583z" style="fill: rgb(255,0,0); fill-opacity: 1"/><path d="M 1.5968377762389958 1.3038125937905167 L -1.3841991655157384e-16 1.3051400559884583 L 0.920978875313324,2.255928470506989z" style="fill: rgb(255,0,0); fill-opacity: 1"/><path d="M 129.325107025024 -2.255928470506989 L 128.78441990428345 -1.3038125937905167 L 130.51400389858728,-1.3051400559884583z" style="fill: rgb(255,0,0); fill-opacity: 1"/><path d="M 131.97809545676145 1.3038125937905167 L 130.51400389858728 1.3051400559884583 L 131.16706477565066,2.255928470506989z" style="fill: rgb(255,0,0); fill-opacity: 1"/><path d="M -0.920978875313324 -132.50201897883957 L -1.5968377762389958 -131.68507488709048 L -1.3841991655157384e-16,-131.8191485720497z" style="fill: rgb(255,0,0); fill-opacity: 1"/><path d="M 1.5968377762389958 -129.07744969950946 L -1.3841991655157384e-16 -129.20886846007278 L 0.920978875313324,-127.9901620378256z" style="fill: rgb(255,0,0); fill-opacity: 1"/><path d="M -93.0188989153459 89.84199482787133 L -93.79033872925719 90.889691620955 L -92.28736673403142,90.98222994309116z" style="fill: rgb(255,0,0); fill-opacity: 1"/><path d="M -90.5966631767792 93.49731680853603 L -92.28736673403142 93.59251005506808 L -91.17694116471925,94.3538517688853z" style="fill: rgb(255,0,0); fill-opacity: 1"/><path d="M -7.97995372280613e-17 -2.2572526110945614 L -1.3841991655157384e-16 -1.3051400559884583 L 1.5968377762389958,-1.3038125937905167z" style="fill: rgb(255,0,0); fill-opacity: 1"/><path d="M -1.3841991655157384e-16 1.3051400559884583 L -1.5968377762389958 1.3038125937905167 L -7.97995372280613e-17,2.2572526110945614z" style="fill: rgb(255,0,0); fill-opacity: 1"/><path d="M 130.32253518982844 -2.2572526110945614 L 130.51400389858728 -1.3051400559884583 L 131.97809545676145,-1.3038125937905167z" style="fill: rgb(255,0,0); fill-opacity: 1"/><path d="M 130.51400389858728 1.3051400559884583 L 128.78441990428345 1.3038125937905167 L 130.32253518982844,2.2572526110945614z" style="fill: rgb(255,0,0); fill-opacity: 1"/><path d="M -7.97995372280613e-17 -132.57979241162298 L -1.3841991655157384e-16 -131.8191485720497 L 1.5968377762389958,-131.68507488709048z" style="fill: rgb(255,0,0); fill-opacity: 1"/><path d="M -1.3841991655157384e-16 -129.20886846007278 L -1.5968377762389958 -129.07744969950946 L -7.97995372280613e-17,-128.06528718943386z" style="fill: rgb(255,0,0); fill-opacity: 1"/><path d="M -92.15197786835041 89.89472851751411 L -92.28736673403142 90.98222994309116 L -90.5966631767792,90.889691620955z" style="fill: rgb(255,0,0); fill-opacity: 1"/><path d="M -92.28736673403142 93.59251005506808 L -93.79033872925719 93.49731680853603 L -92.15197786835041,94.40923373970324z" style="fill: rgb(255,0,0); fill-opacity: 1"/><path d="M 1.5968377762389958 -1.3038125937905167 L -1.3841991655157384e-16 -1.3051400559884583 L 1.8445700609021483,-1.597316713265193e-16z" style="fill: rgb(255,0,0); fill-opacity: 1"/><path d="M -1.8445700609021483 -1.597316713265193e-16 L -1.5968377762389958 1.3038125937905167 L -1.3841991655157384e-16,1.3051400559884583z" style="fill: rgb(255,0,0); fill-opacity: 1"/><path d="M 131.97809545676145 -1.3038125937905167 L 130.51400389858728 -1.3051400559884583 L 132.2753741983572,-1.597316713265193e-16z" style="fill: rgb(255,0,0); fill-opacity: 1"/><path d="M 128.58623407655293 -1.597316713265193e-16 L 128.78441990428345 1.3038125937905167 L 130.51400389858728,1.3051400559884583z" style="fill: rgb(255,0,0); fill-opacity: 1"/><path d="M 1.5968377762389958 -131.68507488709048 L -1.3841991655157384e-16 -131.8191485720497 L 1.8445700609021483,-130.43080875198552z" style="fill: rgb(255,0,0); fill-opacity: 1"/><path d="M -1.8445700609021483 -130.43080875198552 L -1.5968377762389958 -129.07744969950946 L -1.3841991655157384e-16,-129.20886846007278z" style="fill: rgb(255,0,0); fill-opacity: 1"/><path d="M -90.5966631767792 90.889691620955 L -92.28736673403142 90.98222994309116 L -90.38396553901008,92.22853886287903z" style="fill: rgb(255,0,0); fill-opacity: 1"/><path d="M -94.07310566081438 92.22853886287903 L -93.79033872925719 93.49731680853603 L -92.28736673403142,93.59251005506808z" style="fill: rgb(255,0,0); fill-opacity: 1"/><path d="M -1.5968377762389958 -1.3038125937905167 L -1.8445700609021483 -1.597316713265193e-16 L -1.5991955451811956e-16,-1.5991956017593679e-16z" style="fill: rgb(255,0,0); fill-opacity: 1"/><path d="M 1.8445700609021483 -1.597316713265193e-16 L -1.5991955451811956e-16 -1.5991956017593679e-16 L 1.5968377762389958,1.3038125937905167z" style="fill: rgb(255,0,0); fill-opacity: 1"/><path d="M 128.78441990428345 -1.3038125937905167 L 128.58623407655293 -1.597316713265193e-16 L 130.58422702168627,-1.5991956017593679e-16z" style="fill: rgb(255,0,0); fill-opacity: 1"/><path d="M 132.2753741983572 -1.597316713265193e-16 L 130.58422702168627 -1.5991956017593679e-16 L 131.97809545676145,1.3038125937905167z" style="fill: rgb(255,0,0); fill-opacity: 1"/><path d="M -1.5968377762389958 -131.68507488709048 L -1.8445700609021483 -130.43080875198552 L -1.5991955451811956e-16,-130.5842316416447z" style="fill: rgb(255,0,0); fill-opacity: 1"/><path d="M 1.8445700609021483 -130.43080875198552 L -1.5991955451811956e-16 -130.5842316416447 L 1.5968377762389958,-129.07744969950946z" style="fill: rgb(255,0,0); fill-opacity: 1"/><path d="M -93.79033872925719 90.889691620955 L -94.07310566081438 92.22853886287903 L -92.33702199646349,92.33702526326846z" style="fill: rgb(255,0,0); fill-opacity: 1"/><path d="M -90.38396553901008 92.22853886287903 L -92.33702199646349 92.33702526326846 L -90.5966631767792,93.49731680853603z" style="fill: rgb(255,0,0); fill-opacity: 1"/><path d="M -1.5991955451811956e-16 -1.5991956017593679e-16 L -1.3841991655157384e-16 1.3051400559884583 L 1.5968377762389958,1.3038125937905167z" style="fill: rgb(255,0,0); fill-opacity: 1"/><path d="M 130.58422702168627 -1.5991956017593679e-16 L 130.51400389858728 1.3051400559884583 L 131.97809545676145,1.3038125937905167z" style="fill: rgb(255,0,0); fill-opacity: 1"/><path d="M -1.5991955451811956e-16 -130.5842316416447 L -1.3841991655157384e-16 -129.20886846007278 L 1.5968377762389958,-129.07744969950946z" style="fill: rgb(255,0,0); fill-opacity: 1"/><path d="M -92.33702199646349 92.33702526326846 L -92.28736673403142 93.59251005506808 L -90.5966631767792,93.49731680853603z" style="fill: rgb(255,0,0); fill-opacity: 1"/><path d="M -1.3841991655157384e-16 -1.3051400559884583 L -1.5968377762389958 -1.3038125937905167 L -1.5991955451811956e-16,-1.5991956017593679e-16z" style="fill: rgb(255,0,0); fill-opacity: 1"/><path d="M 130.51400389858728 -1.3051400559884583 L 128.78441990428345 -1.3038125937905167 L 130.58422702168627,-1.5991956017593679e-16z" style="fill: rgb(255,0,0); fill-opacity: 1"/><path d="M -1.3841991655157384e-16 -131.8191485720497 L -1.5968377762389958 -131.68507488709048 L -1.5991955451811956e-16,-130.5842316416447z" style="fill: rgb(255,0,0); fill-opacity: 1"/><path d="M -92.28736673403142 90.98222994309116 L -93.79033872925719 90.889691620955 L -92.33702199646349,92.33702526326846z" style="fill: rgb(255,0,0); fill-opacity: 1"/><path d="M -1.3841991655157384e-16 -1.3051400559884583 L -1.5991955451811956e-16 -1.5991956017593679e-16 L 1.8445700609021483,-1.597316713265193e-16z" style="fill: rgb(255,0,0); fill-opacity: 1"/><path d="M -1.5991955451811956e-16 -1.5991956017593679e-16 L -1.8445700609021483 -1.597316713265193e-16 L -1.3841991655157384e-16,1.3051400559884583z" style="fill: rgb(255,0,0); fill-opacity: 1"/><path d="M 130.51400389858728 -1.3051400559884583 L 130.58422702168627 -1.5991956017593679e-16 L 132.2753741983572,-1.597316713265193e-16z" style="fill: rgb(255,0,0); fill-opacity: 1"/><path d="M 130.58422702168627 -1.5991956017593679e-16 L 128.58623407655293 -1.597316713265193e-16 L 130.51400389858728,1.3051400559884583z" style="fill: rgb(255,0,0); fill-opacity: 1"/><path d="M -1.3841991655157384e-16 -131.8191485720497 L -1.5991955451811956e-16 -130.5842316416447 L 1.8445700609021483,-130.43080875198552z" style="fill: rgb(255,0,0); fill-opacity: 1"/><path d="M -1.5991955451811956e-16 -130.5842316416447 L -1.8445700609021483 -130.43080875198552 L -1.3841991655157384e-16,-129.20886846007278z" style="fill: rgb(255,0,0); fill-opacity: 1"/><path d="M -92.28736673403142 90.98222994309116 L -92.33702199646349 92.33702526326846 L -90.38396553901008,92.22853886287903z" style="fill: rgb(255,0,0); fill-opacity: 1"/><path d="M -92.33702199646349 92.33702526326846 L -94.07310566081438 92.22853886287903 L -92.28736673403142,93.59251005506808z" style="fill: rgb(255,0,0); fill-opacity: 1"/></svg>